<ttFont>
          <CharString index="0">
            0 -17 -8 -16 -17 -12 14 21 139 14 125 19 31 vhcurveto
            -14 22 33 callsubr
            -19 -103 -13 vhcurveto
            -13 -82 rlineto
            9 hlineto
            32 -2 4 -4 -37 vvcurveto
            -173 vlineto
            -10 -18 -17 -6 -11 hhcurveto
            -29 -14 20 42 120 12 115 16 31 hvcurveto
            -13 -35 callsubr
            -118 -22 -109 -13 2 callgsubr
            rlineto
            0 13 1 13 22 7 -10 -32 vhcurveto
            return
          </CharString>
          <CharString index="1">
            0 86 10 59 46 89 46 callsubr
            -26 callgsubr
            -14 -2 -9 -19 -6 7 23 201 8 117 16 30 vhcurveto
            -13 -35 callsubr
            -125 -23 -120 -14 2 callgsubr
            rlineto
            0 16 3 6 39 9 -11 -47 vhcurveto
            -171 vlineto
            -38 -18 -18 -39 -3 vhcurveto
            return
          </CharString>
          <CharString index="2">
            rmoveto
            23 -7 39 27 46 27 26 15 rlinecurve
            26 -15 47 -27 39 -27 23 7 rcurveline
            45 62 rlineto
            -78 69 -88 87 0 vvcurveto
            -27 hlineto
            0 -88 -87 -79 -69 vhcurveto
            return
          </CharString>
          <CharString index="3">
            rmoveto
            52 33 34 53 51 -29 29 -50 -53 -33 -34 -53 -52 28 -28 52 hvcurveto
            -193 hmoveto
            53 33 34 53 51 -29 29 -50 -53 -33 -34 -53 -52 28 -28 51 hvcurveto
            endchar
          </CharString>
          <CharString index="4">
            0 -18 -8 -16 -17 -12 14 20 vhcurveto
            28 22 117 32 vvcurveto
            73 -47 72 -152 -52 -156 -83 0 vhcurveto
            25 -80 12 -6 rlineto
            0 63 43 52 51 31 -27 -45 vhcurveto
            -3 -160 rmoveto
            -3 -14 -20 -3 -15 hhcurveto
            -25 -15 23 31 14 4 5 14 3 hvcurveto
            72 16 rlineto
            return
          </CharString>
          <CharString index="5">
            62 39 40 64 60 -34 35 -59 -63 -39 -40 -64 -61 33 -34 61 hvcurveto
            return
          </CharString>
          <CharString index="6">
            194 119 79 130 111 -90 45 -81 34 hvcurveto
            -66 28 -60 20 41 vvcurveto
            27 26 18 37 47 26 -23 -47 vhcurveto
            -16 vlineto
            12 -8 116 8 rlineto
            8 90 19 84 -10 callgsubr
            -35 callsubr
            -81 28 -110 -185 -123 -85 -129 -104 77 -48 76 -34 vhcurveto
            72 -33 71 -20 -44 vvcurveto
            -25 -25 -16 -41 -57 -31 30 72 vhcurveto
            -126 -9 rlineto
            -3 -66 -18 -99 0 vvcurveto
            12 -18 rlineto
            0 return
          </CharString>
          <CharString index="7">
            rmoveto
            -49 -42 23 47 -20 hvcurveto
            -27 -7 -40 -62 rlineto
            -68 21 55 -68 102 hhcurveto
            102 55 68 68 21 hvcurveto
            -40 62 -27 7 rlineto
            -47 -20 -42 -23 -49 hhcurveto
            endchar
          </CharString>
          <CharString index="8">
            244 -12 rmoveto
            158 93 97 163 152 -81 84 -148 -158 -94 -96 -163 -147 88 -90 142 hvcurveto
            12 107 rmoveto
            -40 -12 40 136 71 11 22 35 40 12 -39 -134 -74 -11 -22 -35 hvcurveto
            return
          </CharString>
          <CharString index="9">
            hstem
            167 -12 rmoveto
            135 96 65 92 71 -31 34 -125 52 hvcurveto
            -33 14 -14 13 17 vvcurveto
            19 15 11 24 36 18 -21 -46 1 vhcurveto
            -4 vlineto
            80 4 rlineto
            6 68 12 70 0 vvcurveto
            -9 17 rlineto
            0 -48 20 -77 -142 -92 -65 -101 -66 36 -43 84 -34 vhcurveto
            67 -27 14 -10 -20 vvcurveto
            -16 -16 -10 -24 -43 -34 35 44 -1 vhcurveto
            -80 -6 -4 -44 -6 -50 -5 -35 rlinecurve
            10 2 callsubr
            61 -34 89 vhcurveto
            return
          </CharString>
          <CharString index="10">
            rmoveto
            -72 101 rlineto
            -17 hlineto
            0 -93 -86 -94 -81 vhcurveto
            41 -61 22 -7 rlineto
            103 61 108 56 0 vvcurveto
            return
          </CharString>
          <CharString index="11">
            0 96 5 95 55 86 -2 0 vhcurveto
            8 79 -7 10 -31 3 -16 19 -12 45 rlinecurve
            -298 325 rmoveto
            22 hlineto
            34 -175 rlineto
            -1 -18 -19 -1 -15 hhcurveto
            -51 hlineto
            return
          </CharString>
          <CharString index="12">
            -2 -111 -5 -77 vhcurveto
            -72 hlineto
            -8 -84 2 -5 22 -2 13 -8 16 -28 rlinecurve
            27 -55 80 -208 39 -100 -43 -50 -70 -32 -96 -15 -10 -19 rcurveline
            -30 81 -78 30 90 103 104 169 65 vhcurveto
            127 314 10 26 7 5 28 8 rlinecurve
            9 88 rlineto
            -101 hlineto
            -42 -69 2 0 hvcurveto
            -11 -84 4 -7 rlineto
            16 hlineto
            18 3 -2 -13 -15 -27 -81 -35 -96 hvcurveto
            return
          </CharString>
          <CharString index="13">
            0 137 9 64 58 149 -46 callsubr
            -12 16 47 34 0 24 15 35 vhcurveto
            91 182 28 56 41 46 42 24 rlinecurve
            8 87 -4 -2 callsubr
            -61 -4 -52 vhcurveto
            -158 hlineto
            -8 -79 3 -6 rlineto
            28 10 -4 -12 -10 -5 -16 -8 -18 hvcurveto
            -41 -114 rlineto
            -14 hlineto
            -20 50 -36 82 16 vvcurveto
            return
          </CharString>
          <CharString index="14">
            rmoveto
            -23 7 -47 -19 -54 -21 -30 -11 rlinecurve
            -30 11 -57 21 -45 19 -23 -7 rcurveline
            -35 -62 rlineto
            83 -61 93 -77 0 vvcurveto
            27 hlineto
            0 93 77 84 61 vhcurveto
            endchar
          </CharString>
          <CharString index="15">
            rmoveto
            -57 59 -44 83 91 68 56 76 49 -27 28 -31 19 vhcurveto
            27 14 27 25 43 vvcurveto
            54 -59 45 -76 -89 -68 -51 -68 -50 25 -32 31 -24 vhcurveto
            -30 -12 -31 -25 -46 vvcurveto
            147 -23 rmoveto
            -23 -15 16 26 12 1 10 5 10 hvcurveto
            35 -17 28 -12 -19 vvcurveto
            -17 -10 -9 -21 vhcurveto
            -20 223 rmoveto
            15 11 9 18 20 12 -12 -20 -13 -4 -11 -5 -10 vhcurveto
            -29 12 -23 11 19 vvcurveto
            endchar
          </CharString>
          <CharString index="16">
            rmoveto
            23 -7 47 19 54 21 30 11 rlinecurve
            30 -11 57 -21 45 -19 23 7 rcurveline
            35 62 rlineto
            -83 63 -93 81 -6 vvcurveto
            -27 hlineto
            0 -93 -77 -84 -61 vhcurveto
            endchar
          </CharString>
          <CharString index="17">
            0 -129 -5 -43 vhcurveto
            -161 17 callgsubr
            return
          </CharString>
          <CharString index="18">
            hstem
            382 151 rmoveto
            0 -44 -26 -54 -56 -25 46 102 62 19 31 38 29 11 -16 -42 vhcurveto
            -36 vlineto
            92 5 rlineto
            7 90 16 84 0 vvcurveto
            -5 11 rlineto
            0 -51 22 -87 -157 -101 -100 -154 -152 86 -90 147 73 94 83 0 vhcurveto
            -22 75 rlineto
            return
          </CharString>
          <CharString index="19">
            271 285 rmoveto
            -196 -36 rlineto
            -38 -8 -26 -35 -44 vvcurveto
            -95 65 -75 82 31 49 42 32 31 vhcurveto
            12 -5 rlineto
            return
          </CharString>
          <CharString index="20">
            -87 rmoveto
            39 -19 48 -25 -22 vvcurveto
            -14 -12 -9 -20 -28 -20 19 37 -1 vhcurveto
            -9 hlineto
            -20 -20 -29 -34 -16 vvcurveto
            -33 49 -19 39 82 66 44 55 45 -66 40 -42 20 vhcurveto
            return
          </CharString>
          <CharString index="21">
            -6 -81 12 -14 rlineto
            63 -7 12 -10 -46 vvcurveto
            -12 -349 -1 -40 -17 -18 -39 -5 rlinecurve
            -10 -90 rlineto
            0 85 8 69 43 111 -57 callgsubr
            11 85 -9 9 rlineto
            0 -22 -4 -12 -29 -9 13 38 -1 vhcurveto
            -3 178 rlineto
            15 hlineto
            return
          </CharString>
          <CharString index="22">
            rmoveto
            22 -59 10 -5 rlineto
            0 253 55 204 vvcurveto
            93 -58 58 -90 -103 -63 -55 -92 -75 45 -44 68 vhcurveto
            12 6 11 2 12 4 4 -8 rcurveline
            -51 -60 -72 -24 0 vvcurveto
            125 166 rmoveto
            -21 -9 15 36 32 9 12 24 22 12 -19 -40 -9 -1 -9 -1 -9 hvcurveto
            -4 -8 -12 -5 -15 hhcurveto
            endchar
          </CharString>
          <CharString index="23">
            rmoveto
            78 -69 88 -87 0 vvcurveto
            27 hlineto
            0 88 87 79 69 vhcurveto
            -46 62 -23 7 -39 -27 -46 -27 -26 -15 rlinecurve
            -26 15 -47 27 -39 27 -23 -7 rcurveline
            endchar
          </CharString>
          <CharString index="24">
            0 79 5 63 42 80 46 callsubr
            86 -36 callsubr
            -12 -1 -4 -19 -5 7 25 16 7 108 5 76 vhcurveto
            10 13 17 11 15 -30 callsubr
            -24 -3 rlinecurve
            return
          </CharString>
          <CharString index="25">
            rmoveto
            -87 32 -267 -426 rlineto
            -83 -132 -111 -160 0 vvcurveto
            6 -17 93 -35 rlineto
            0 99 155 90 143 vhcurveto
            91 139 179 277 0 vvcurveto
            return
          </CharString>
          <CharString index="26">
            -11 callsubr
            83 -57 callgsubr
            11 82 -2 callgsubr
            -8 28 callgsubr
            72 0 65 1 60 vhcurveto
            11 14 21 15 17 -30 callsubr
            -24 -3 rlinecurve
            -8 -87 rlineto
            0 86 3 36 40 90 -57 callgsubr
            11 84 -2 4 rlineto
            0 -15 -1 -10 -20 -7 9 28 vhcurveto
            40 22 150 44 vvcurveto
            85 -58 45 -108 -21 -53 -53 -42 -40 vhcurveto
            return
          </CharString>
          <CharString index="27">
            -30 -89 34 -35 hhcurveto
            -17 -4 -81 -115 rlineto
            -16 vlineto
            59 -54 rlineto
            endchar
          </CharString>
          <CharString index="28">
            -75 callgsubr
            hintmask 01110000
            -71 callsubr
            return
          </CharString>
          <CharString index="29">
            rmoveto
            0 108 -56 103 -61 vhcurveto
            22 7 41 61 rlineto
            -94 81 -93 86 0 vvcurveto
            -17 hlineto
            -72 -101 rlineto
            endchar
          </CharString>
          <CharString index="30">
            hstem
            571 19 rmoveto
            2 100 21 156 0 vvcurveto
            -126 -9 -9 -93 -26 -37 -64 -12 rlinecurve
            -105 -15 55 85 129 202 149 199 rlinecurve
            -25 54 rlineto
            -331 hlineto
            -181 11 -11 -11 rlineto
            -3 -93 -12 -147 0 vvcurveto
            126 9 3 85 12 14 77 15 rlinecurve
            77 10 -326 -491 36 -58 82 10 429 -6 rlineto
            return
          </CharString>
          <CharString index="31">
            rmoveto
            121 51 78 91 92 vvcurveto
            276 9 159 18 41 vhcurveto
            -13 -35 callsubr
            -139 -24 -103 -15 vhcurveto
            -8 -81 rlineto
            0 16 3 16 25 8 -14 -44 vhcurveto
            -276 vlineto
            -119 -16 -48 -57 -56 vhcurveto
            -2 -15 rlineto
            return
          </CharString>
          <CharString index="32">
            hstem
            28 -7 rmoveto
            60 7 319 -4 15 16 rlineto
            76 17 133 0 vhcurveto
            -66 -5 -10 -74 -26 -30 -62 -9 rlinecurve
            -59 -9 45 70 90 135 96 133 rlinecurve
            -18 40 rlineto
            -257 hlineto
            -132 8 -8 -8 rlineto
            -2 -68 -9 -122 0 vvcurveto
            65 5 3 63 16 14 75 8 rlinecurve
            52 7 -230 -344 rlineto
            return
          </CharString>
          <CharString index="33">
            -20 hstemhm
            hintmask 01001010
            -70 callgsubr
            hintmask 10000110
            -32 callgsubr
            hintmask 00101010
            -62 callgsubr
            hintmask 10010010
            -66 callgsubr
            return
          </CharString>
          <CharString index="34">
            296 -12 125 -113 113 153 97 163 127 -96 96 -6 -20 hstemhm
            hintmask 10101000
            342 -37 callgsubr
            hintmask 10100100
            0 -132 -6 -34 -12 callgsubr
            hintmask 01101000
            0 17 2 15 19 6 -12 -42 vhcurveto
            -140 -93 vlineto
            -13 -89 10 -8 rlineto
            96 -98 hlineto
            -28 callgsubr
            hintmask 10110000
            63 96 -12 0 hvcurveto
            -26 511 rmoveto
            20 1 5 7 15 hhcurveto
            -29 callsubr
            hvcurveto
            105 79 vlineto
            7 90 -8 10 -75 -3 rlineto
            endchar
          </CharString>
          <CharString index="35">
            -20 hstemhm
            hintmask 10110000
            -49 callsubr
            -73 -75 5 0 vhcurveto
            -86 callsubr
            hintmask 01110000
            -14 callgsubr
            hintmask 10110000
            -68 callgsubr
            return
          </CharString>
          <CharString index="36">
            -49 9 39 -24 69 hhcurveto
            64 24 59 98 0 vvcurveto
            -17 26 rlineto
            return
          </CharString>
          <CharString index="37">
            0 115 -104 -21 276 120 53 208 -120 120 -88 88 return
          </CharString>
          <CharString index="38">
            -47 6 41 -26 66 hhcurveto
            47 10 61 111 0 vvcurveto
            -17 27 rlineto
            return
          </CharString>
          <CharString index="39">
            -43 callgsubr
            0 80 7 54 37 72 -57 callgsubr
            10 64 -3 4 rlineto
            0 -13 -1 -16 -18 -8 14 29 124 3 71 6 21 vhcurveto
            453 71 -82 callsubr
            return
          </CharString>
          <CharString index="40">
            -55 callsubr
            -14 18 51 132 2 135 3 99 vhcurveto
            54 5 -20 -124 10 hvcurveto
            124 -2 callsubr
            -4 137 -1 117 vhcurveto
            return
          </CharString>
          <CharString index="41">
            -10 callgsubr
            12 33 callsubr
            -21 -116 -16 -41 callsubr
            16 hlineto
            return
          </CharString>
          <CharString index="42">
            rmoveto
            -84 63 -14 -5 rlineto
            0 -53 -93 -55 -90 vhcurveto
            49 -38 rlineto
            19 hlineto
            68 76 73 73 0 vvcurveto
            return
          </CharString>
          <CharString index="43">
            -11 callgsubr
            553 199 hstemhm
            hintmask 01100000
            165 -30 callgsubr
            -158 -553 rmoveto
            hintmask 10100000
            -106 callsubr
            endchar
          </CharString>
          <CharString index="44">
            rmoveto
            -17 19 -12 30 27 vvcurveto
            36 25 42 39 28 vhcurveto
            25 vlineto
            -58 46 rlineto
            -103 -59 -64 -81 -70 vvcurveto
            -61 34 -40 51 28 38 16 28 36 vhcurveto
            return
          </CharString>
          <CharString index="45">
            48 119 -5 0 vhcurveto
            12 94 -5 -44 callsubr
            -37 -2 -25 -21 -10 12 25 vhcurveto
            return
          </CharString>
          <CharString index="46">
            -20 hstem
            16 -52 rmoveto
            4 -10 95 -55 80 122 rlineto
            -11 34 40 -6 44 hhcurveto
            209 118 127 225 100 -23 78 -45 53 hvcurveto
            77 114 -2 13 -97 54 -76 -114 rlineto
            14 -38 -44 7 -50 hhcurveto
            -212 -115 -123 -224 -107 27 -83 53 -55 hvcurveto
            237 47 -83 callgsubr
            return
          </CharString>
          <CharString index="47">
            65 -12 117 494 -20 hstem
            421 511 rmoveto
            -30 81 -13 7 rlineto
            0 -363 -84 -304 vvcurveto
            -136 82 -87 128 146 90 82 133 108 -64 68 -100 vhcurveto
            -58 -21 -6 11 rlineto
            71 101 117 41 0 vvcurveto
            -180 -252 rmoveto
            35 17 -27 -55 -51 -16 -21 -38 -37 -20 -6 callsubr
            20 9 25 hhcurveto
            endchar
          </CharString>
          <CharString index="48">
            249 176 rmoveto
            0 -46 158 29 vvcurveto
            15 7 5 30 3 vhcurveto
            11 88 -2 5 rlineto
            return
          </CharString>
          <CharString index="49">
            vvcurveto
            -55 49 -34 80 vhcurveto
            48 18 56 53 0 vvcurveto
            return
          </CharString>
          <CharString index="50">
            -60 -15 -20 -50 -8 vhcurveto
            -9 -92 rlineto
            return
          </CharString>
          <CharString index="51">
            hhcurveto
            33 11 -17 -51 -1 hvcurveto
            -2 -141 return
          </CharString>
          <CharString index="52">
            9 94 -5 6 rlineto
            0 -26 -3 -25 -38 return
          </CharString>
          <CharString index="53">
            rmoveto
            -130 -15 -41 -68 -62 vhcurveto
            -2 -15 40 -48 rlineto
            167 44 73 77 128 vvcurveto
            137 6 196 6 92 vhcurveto
            3 37 5 6 39 9 return
          </CharString>
          <CharString index="54">
            rmoveto
            69 83 87 93 0 vvcurveto
            27 vlineto
            0 -87 93 -69 84 vhcurveto
            -62 -36 -7 -23 27 -47 27 -54 15 -30 rlinecurve
            -15 -30 -27 -57 -27 -45 7 -23 rcurveline
            return
          </CharString>
          <CharString index="55">
            -119 11 -13 -14 rlineto
            -1 -114 -7 -148 0 vvcurveto
            124 8 rlineto
            return
          </CharString>
          <CharString index="56">
            -9 26 rcurveline
            0 -150 -21 -118 -15 -41 callsubr
            25 hlineto
            39 9 -11 -48 hvcurveto
            return
          </CharString>
          <CharString index="57">
            0 37 1 43 48 147 -2 -1 2 vhcurveto
            7 83 -7 10 rlineto
            -46 -9 -1 16 4 2 9 4 13 hvcurveto
            16 53 77 23 75 13 5 -57 rlineto
            1 -15 0 -7 -10 vvcurveto
            -29 -12 -8 -56 -6 vhcurveto
            -41 237 rmoveto
            57 154 rlineto
            22 hlineto
            14 -141 -50 -9 rlineto
            return
          </CharString>
          <CharString index="58">
            487 333 rmoveto
            0 -102 156 -90 162 vhcurveto
            0 -74 -4 -54 return
          </CharString>
          <CharString index="59">
            -20 hstem
            -21 -73 rmoveto
            4 -10 95 -55 90 136 rlineto
            -7 23 26 -3 27 hhcurveto
            158 93 97 163 68 -17 55 -31 39 hvcurveto
            85 130 -2 13 -97 54 -86 -133 rlineto
            6 -24 -27 4 -30 hhcurveto
            -158 -94 -96 -163 -69 19 -57 36 -40 hvcurveto
            return
          </CharString>
          <CharString index="60">
            247 -12 126 408 137 return
          </CharString>
          <CharString index="61">
            -6 0 vhcurveto
            -55 callsubr
            return
          </CharString>
          <CharString index="62">
            145 -10 138 -119 -21 return
          </CharString>
          <CharString index="63">
            5 rlineto
            0 return
          </CharString>
          <CharString index="64">
            97 -97 131 24 -20 hstemhm
            return
          </CharString>
          <CharString index="65">
            0 101 8 54 -34 callgsubr
            return
          </CharString>
          <CharString index="66">
            vhcurveto
            -8 -75 5 -7 rlineto
            return
          </CharString>
          <CharString index="67">
            72 -34 66 -29 0 vvcurveto
            56 92 -9 21 rlineto
            0 -74 32 -71 32 vhcurveto
            -102 49 rlineto
            8 vlineto
            90 39 rlineto
            73 32 93 36 0 vvcurveto
            -34 105 -18 11 rlineto
            0 -74 -37 -77 -33 vhcurveto
            -178 -77 rlineto
            -153 vlineto
            return
          </CharString>
          <CharString index="68">
            -10 -138 rmoveto
            98 66 65 128 120 -57 56 -91 -98 -68 -65 -128 -120 59 -56 91 hvcurveto
            return
          </CharString>
          <CharString index="69">
            143 -12 133 -133 230 213 228 -138 138 return
          </CharString>
          <CharString index="70">
            40 117 -34 46 hhcurveto
            22 4 107 115 rlineto
            16 vlineto
            -49 56 rlineto
            -16 hlineto
            0 -57 -58 -31 vhcurveto
            return
          </CharString>
          <CharString index="71">
            -3 -44 callsubr
            return
          </CharString>
          <CharString index="72">
            22 rlineto
            0 return
          </CharString>
          <CharString index="73">
            32 -12 137 149 210 -118 118 return
          </CharString>
          <CharString index="74">
            -20 hstemhm
            hintmask 01100000
            return
          </CharString>
          <CharString index="75">
            135 135 139 hstem
            26 87 129 87 vstem
            171 return
          </CharString>
          <CharString index="76">
            2 0 vhcurveto
            return
          </CharString>
          <CharString index="77">
            -56 callsubr
            -1 -31 -10 -12 return
          </CharString>
          <CharString index="78">
            95 29 -49 -163 -146 -33 -55 -86 -28 -8 10 39 return
          </CharString>
          <CharString index="79">
            197 168 rmoveto
            -62 -17 -16 -82 -7 vhcurveto
            -8 -92 rlineto
            return
          </CharString>
          <CharString index="80">
            -20 -26 callsubr
            return
          </CharString>
          <CharString index="81">
            hstemhm
            hintmask 10100000
            return
          </CharString>
          <CharString index="82">
            27 131 -104 callgsubr
            return
          </CharString>
          <CharString index="83">
            -169 -163 3 0 hvcurveto
            -9 -79 12 -14 rlineto
            -3 callsubr
            16 7 -7 -21 3 vhcurveto
            -166 -391 -14 -31 -18 -18 -25 -6 rlinecurve
            3 -87 rlineto
            return
          </CharString>
          <CharString index="84">
            0 136 1 90 vhcurveto
            227 1 13 136 rlineto
            return
          </CharString>
          <CharString index="85">
            231 -11 141 116 108 167 138 return
          </CharString>
          <CharString index="86">
            rmoveto
            hintmask 10000000
            0 -23 -2 -64 vhcurveto
            -365 hlineto
            -11 -105 rlineto
            hintmask 01100000
            11 -19 rlineto
            hintmask 10000000
            148 151 1 149 hhcurveto
            14 106 rlineto
            endchar
          </CharString>
          <CharString index="87">
            -12 12 33 callsubr
            -21 -116 -16 -41 callsubr
            16 hlineto
            40 8 -10 -48 hvcurveto
            -173 vlineto
            -38 -12 -12 -39 -2 vhcurveto
            return
          </CharString>
          <CharString index="88">
            -141 -1 -8 -76 47 callgsubr
            21 2 15 26 6 -10 -41 vhcurveto
            return
          </CharString>
          <CharString index="89">
            -21 236 164 3 -20 hstemhm
            hintmask 11000000
            178 return
          </CharString>
          <CharString index="90">
            0 vvcurveto
            10 -12 164 12 11 11 rlineto
            0 -4 return
          </CharString>
          <CharString index="91">
            71 -1 41 -2 0 vvcurveto
            11 85 -5 7 rlineto
            0 -45 -3 -72 vhcurveto
            return
          </CharString>
          <CharString index="92">
            -56 -12 -15 -53 -11 vhcurveto
            -8 -85 rlineto
            return
          </CharString>
          <CharString index="93">
            255 0 83 -71 -21 569 86 return
          </CharString>
          <CharString index="94">
            rmoveto
            -32 97 -15 4 rlineto
            0 -113 -48 -111 -42 vhcurveto
            19 -63 17 -12 rlineto
            112 28 117 21 0 vvcurveto
            endchar
          </CharString>
          <CharString index="95">
            48 -2 220 -204 -21 291 188 return
          </CharString>
          <CharString index="96">
            39 callsubr
            45 return
          </CharString>
          <CharString index="97">
            0 vhcurveto
            14 4 rlineto
            20 61 19 54 0 vvcurveto
            -7 23 rlineto
            0 return
          </CharString>
          <CharString index="98">
            -22 29 callsubr
            return
          </CharString>
          <CharString index="99">
            70 17 34 35 25 21 -10 0 vhcurveto
            endchar
          </CharString>
          <CharString index="100">
            664 510 rmoveto
            2 38 10 8 48 8 7 88 rcurveline
            return
          </CharString>
          <CharString index="101">
            33 64 14 1 13 1 13 hvcurveto
            8 12 return
          </CharString>
          <CharString index="102">
            26 82 rmoveto
            -12 -87 rlineto
            0 86 5 63 return
          </CharString>
          <CharString index="103">
            0 83 -67 -21 344 145 return
          </CharString>
          <CharString index="104">
            0 15 2 11 return
          </CharString>
          <CharString index="105">
            8 rlineto
            0 return
          </CharString>
          <CharString index="106">
            hintmask 10110000
            0 return
          </CharString>
          <CharString index="107">
            vhcurveto
            -8 -85 rlineto
            0 103 5 63 42 125 -57 callgsubr
            9 84 -8 10 rlineto
            0 -11 -3 -21 -26 return
          </CharString>
          <CharString index="108">
            37 0 90 -75 -21 234 246 -156 156 return
          </CharString>
          <CharString index="109">
            -14 rlineto
            0 return
          </CharString>
          <CharString index="110">
            11 -6 18 rcurveline
            0 -110 -14 -85 -11 vhcurveto
            -6 -54 3 -5 rlineto
            18 hlineto
            28 6 -7 -33 hvcurveto
            return
          </CharString>
          <CharString index="111">
            139 304 142 48 -20 hstem
            return
          </CharString>
          <CharString index="112">
            99 190 102 32 -20 hstem
            298 return
          </CharString>
          <CharString index="113">
            -1 0 vvcurveto
            11 113 -11 15 rlineto
            return
          </CharString>
          <CharString index="114">
            -6 -63 rmoveto
            63 36 48 53 45 -25 43 -66 -61 -38 -42 -55 -54 32 -38 59 hvcurveto
            138 return
          </CharString>
          <CharString index="115">
            rmoveto
            -40 -12 40 136 71 11 22 35 40 12 -39 -134 -74 -11 -22 -35 hvcurveto
            endchar
          </CharString>
          <CharString index="116">
            24 28 66 -3 0 vhcurveto
            7 60 -1 3 rlineto
            0 -10 -1 -6 -14 -4 6 17 vhcurveto
            26 return
          </CharString>
          <CharString index="117">
            hhcurveto
            23 18 -10 -30 35 hvcurveto
            18 3 rlineto
            14 22 26 80 20 vvcurveto
            12 -44 11 -50 return
          </CharString>
          <CharString index="118">
            -102 callsubr
            endchar
          </CharString>
          <CharString index="119">
            0 115 -104 -21 569 88 5 -20 hstemhm
            return
          </CharString>
          <CharString index="120">
            -11 141 391 138 return
          </CharString>
          <CharString index="121">
            111 9 9 25 55 hhcurveto
            return
          </CharString>
          <CharString index="122">
            369 8 -21 396 89 return
          </CharString>
          <CharString index="123">
            -106 -77 -109 -150 -144 84 -82 148 157 93 101 169 return
          </CharString>
          <CharString index="124">
            53 102 -6 0 vhcurveto
            14 90 -4 6 rlineto
            0 -20 -2 -24 -27 -12 20 45 return
          </CharString>
          <CharString index="125">
            -71 -17 -33 -35 -25 -21 9 0 hvcurveto
            endchar
          </CharString>
          <CharString index="126">
            139 177 -108 108 return
          </CharString>
          <CharString index="127">
            52 -3 13 -6 2 -31 return
          </CharString>
          <CharString index="128">
            -12 0 hvcurveto
            17 18 rlineto
            5 89 22 133 0 vvcurveto
            -116 -9 rlineto
            return
          </CharString>
          <CharString index="129">
            50 -92 27 hvcurveto
            11 vlineto
            68 21 43 51 59 vvcurveto
            73 -67 48 -101 -62 return
          </CharString>
          <CharString index="130">
            54 33 34 56 51 -29 30 -50 -55 -33 -34 -56 -51 28 -30 52 hvcurveto
            return
          </CharString>
          <CharString index="131">
            57 105 -6 0 hvcurveto
            14 93 -6 8 rlineto
            return
          </CharString>
          <CharString index="132">
            281 -8 127 -110 -21 370 126 -114 114 return
          </CharString>
          <CharString index="133">
            530 0 114 -100 -21 27 -21 479 -20 69 120 return
          </CharString>
          <CharString index="134">
            43 callgsubr
            4 -6 return
          </CharString>
          <CharString index="135">
            -242 66 56 -20 return
          </CharString>
          <CharString index="136">
            -40 -42 -58 callsubr
            return
          </CharString>
          <CharString index="137">
            -8 rlineto
            0 -7 -154 -16 -145 vhcurveto
            9 -11 rlineto
            return
          </CharString>
          <CharString index="138">
            -21 92 85 232 -20 hstem
            8 return
          </CharString>
          <CharString index="139">
            199 hstem
            115 return
          </CharString>
          <CharString index="140">
            rlineto
            0 -120 return
          </CharString>
          <CharString index="141">
            28 29 45 43 -25 25 -43 -46 -28 -28 -46 -44 return
          </CharString>
          <CharString index="142">
            65 44 9 20 19 14 13 -6 0 vhcurveto
            endchar
          </CharString>
          <CharString index="143">
            0 20 2 15 20 6 return
          </CharString>
          <CharString index="144">
            78 247 84 hstem
            20 return
          </CharString>
          <CharString index="145">
            rlineto
            -33 -1 -34 -33 vvcurveto
            return
          </CharString>
          <CharString index="146">
            0 68 5 58 return
          </CharString>
          <CharString index="147">
            -4 rlineto
            9 hlineto
            12 1 -1 -9 hvcurveto
            endchar
          </CharString>
          <CharString index="148">
            133 -99 99 -99 133 return
          </CharString>
          <CharString index="149">
            rmoveto
            -54 -26 15 32 return
          </CharString>
          <CharString index="150">
            135 70 -20 return
          </CharString>
          <CharString index="151">
            16 -21 26 -21 742 -27 callsubr
            return
          </CharString>
          <CharString index="152">
            vhcurveto
            -22 -23 rlineto
            -99 7 25 -35 67 hhcurveto
            return
          </CharString>
          <CharString index="153">
            -57 callgsubr
            12 return
          </CharString>
        <CharString name=".notdef">
          -264 endchar
        </CharString>
        <CharString name="A">
          -63 callgsubr
          200 -20 -99 callgsubr
          endchar
        </CharString>
        <CharString name="AE">
          26 callsubr
          12 -20 hstemhm
          hintmask 10011000
          22 callgsubr
          hintmask 01011000
          3 callgsubr
          hintmask 10011000
          -90 -12 -16 -17 -77 hhcurveto
          -30 -18 22 45 -7 hvcurveto
          -11 73 65 12 96 12 12 116 -17 17 -101 -26 -73 -13 -19 131 rlineto
          19 7 5 27 81 17 -10 -45 -13 -2 -24 0 vhcurveto
          138 9 rlineto
          5 94 18 105 0 vvcurveto
          hintmask 10010100
          -13 16 rlineto
          hintmask 00111000
          -38 -5 -160 -6 -147 -1 rrcurveto
          -24 callsubr
          -50 callsubr
          endchar
        </CharString>
        <CharString name="AEacute">
          26 callsubr
          288 -20 hstemhm
          hintmask 10011100
          22 callgsubr
          hintmask 01011100
          3 callgsubr
          hintmask 10011100
          -90 -12 -16 -17 -77 hhcurveto
          -30 -18 22 45 -7 hvcurveto
          -11 73 65 12 96 12 12 116 -17 17 -101 -26 -73 -13 -19 131 rlineto
          19 7 5 27 81 17 -10 -45 -13 -2 -24 0 vhcurveto
          138 9 rlineto
          5 94 18 105 0 vvcurveto
          -13 16 -38 -5 -160 -6 -147 -1 rlinecurve
          -24 callsubr
          hintmask 00111100
          -50 callsubr
          337 506 -97 callsubr
          endchar
        </CharString>
        <CharString name="Aacute">
          -63 callgsubr
          417 -20 -99 callgsubr
          260 461 rmoveto
          -36 108 -16 -44 callsubr
          -126 -54 -123 -46 vhcurveto
          21 -71 19 -13 rlineto
          124 31 130 24 0 vvcurveto
          endchar
        </CharString>
        <CharString name="Abreve">
          -63 callgsubr
          217 29 callgsubr
          hintmask 10111100
          615 153 rmoveto
          -29 108 -96 385 0 vvcurveto
          -15 12 -263 -16 -159 -502 -10 -31 -17 -18 -24 -6 rlinecurve
          -7 -87 rlineto
          0 71 1 62 61 93 -3 0 vhcurveto
          8 83 -8 10 rlineto
          -26 hlineto
          -27 -4 3 17 4 1 7 2 11 hvcurveto
          10 44 rlineto
          2 26 31 3 23 hhcurveto
          19 31 -1 -1 27 hvcurveto
          6 -39 rlineto
          1 -8 1 -6 -4 vvcurveto
          -26 -3 -1 -61 -7 vhcurveto
          -6 -84 rlineto
          hintmask 01111100
          8 -9 rlineto
          hintmask 10111100
          -96 callsubr
          71 509 -100 callsubr
        </CharString>
        <CharString name="Acircumflex">
          -63 callgsubr
          hstemhm
          hintmask 10110000
          615 153 rmoveto
          -29 108 -96 385 0 vvcurveto
          -15 12 -263 -16 -159 -502 -10 -31 -17 -18 -24 -6 rlinecurve
          -7 -87 rlineto
          0 71 1 62 61 93 -3 0 vhcurveto
          8 83 -8 10 rlineto
          -26 hlineto
          -27 -4 3 17 4 1 7 2 11 hvcurveto
          10 44 rlineto
          2 26 31 3 23 hhcurveto
          19 31 -1 -1 27 hvcurveto
          6 -39 rlineto
          1 -8 1 -6 -4 vvcurveto
          -26 -3 -1 -61 -7 vhcurveto
          -6 -84 rlineto
          hintmask 01110000
          8 -9 rlineto
          hintmask 10110000
          -96 callsubr
          -81 407 -91 callsubr
        </CharString>
        <CharString name="Adieresis">
          -63 callgsubr
          227 167 -99 callgsubr
          165 384 -104 callsubr
        </CharString>
        <CharString name="Agrave">
          -63 callgsubr
          417 -20 -99 callgsubr
          -75 445 -82 callgsubr
        </CharString>
        <CharString name="Amacron">
          -63 callgsubr
          237 122 6 -20 -98 callgsubr
          hintmask 10110100
          -96 callsubr
          219 522 rmoveto
          hintmask 10111000
          -88 callgsubr
        </CharString>
        <CharString name="Aogonek">
          268 -242 85 156 90 91 121 177 -20 200 -20 hstem
          654 -27 callgsubr
          24 13 26 48 65 vhcurveto
          35 -1 30 -1 0 vvcurveto
          8 79 -7 10 -31 3 -16 19 -12 45 rlinecurve
          -29 108 -96 385 0 vvcurveto
          -15 12 -263 -16 -159 -502 -10 -31 -17 -18 -24 -6 rlinecurve
          -7 -87 rlineto
          0 71 1 62 61 93 -3 0 vhcurveto
          8 83 -8 10 rlineto
          -26 hlineto
          -27 -4 3 17 4 1 7 2 11 hvcurveto
          10 44 rlineto
          2 26 31 3 23 hhcurveto
          19 31 -1 -1 27 hvcurveto
          6 -39 rlineto
          1 -8 1 -6 -4 vvcurveto
          -26 -3 -1 -61 -7 vhcurveto
          -6 -84 8 -9 rlineto
          0 96 5 95 vhcurveto
          1 hlineto
          -65 -70 -9 callsubr
          -362 649 rmoveto
          22 hlineto
          34 -175 rlineto
          -1 -18 -19 -1 -15 hhcurveto
          -51 hlineto
          endchar
        </CharString>
        <CharString name="Aring">
          -63 callgsubr
          224 210 -72 72 -98 callgsubr
          hintmask 10110100
          -96 callsubr
          74 451 -51 callgsubr
          hintmask 10111000
          -7 -70 -58 callgsubr
          endchar
        </CharString>
        <CharString name="Aringacute">
          -63 callgsubr
          220 189 -126 -20 81 65 149 -20 hstemhm
          hintmask 10111001
          615 153 rmoveto
          -29 108 -96 385 0 vvcurveto
          -15 12 -263 -16 -159 -502 -10 -31 -17 -18 -24 -6 rlinecurve
          -7 -87 rlineto
          0 71 1 62 61 93 -3 0 vhcurveto
          8 83 -8 10 rlineto
          -26 hlineto
          -27 -4 3 17 4 1 7 2 11 hvcurveto
          10 44 rlineto
          2 26 31 3 23 hhcurveto
          19 31 -1 -1 27 hvcurveto
          6 -39 rlineto
          1 -8 1 -6 -4 vvcurveto
          -26 -3 -1 -61 -7 vhcurveto
          -6 -84 rlineto
          hintmask 01111001
          8 -9 rlineto
          hintmask 10110111
          -96 callsubr
          74 440 18 callgsubr
          hintmask 10111001
          7 callsubr
          237 -13 callsubr
        </CharString>
        <CharString name="Atilde">
          -63 callgsubr
          241 -55 callgsubr
          hintmask 10111001
          615 153 rmoveto
          -29 108 -96 385 0 vvcurveto
          -15 12 -263 -16 -159 -502 -10 -31 -17 -18 -24 -6 rlinecurve
          -7 -87 rlineto
          0 71 1 62 61 93 -3 0 vhcurveto
          8 83 -8 10 rlineto
          -26 hlineto
          -27 -4 3 17 4 1 7 2 11 hvcurveto
          10 44 rlineto
          2 26 31 3 23 hhcurveto
          19 31 -1 -1 27 hvcurveto
          6 -39 rlineto
          1 -8 1 -6 -4 vvcurveto
          -26 -3 -1 -61 -7 vhcurveto
          -6 -84 rlineto
          hintmask 01111001
          8 -9 rlineto
          hintmask 10110101
          -96 callsubr
          -50 374 -36 callgsubr
          hintmask 10111001
          -87 callgsubr
          hintmask 10110011
          -80 callsubr
        </CharString>
        <CharString name="B">
          255 -11 125 -93 -21 528 126 -7 -33 callsubr
          194 hmoveto
          hintmask 10100000
          26 108 -7 -4 30 hvcurveto
          191 97 70 139 89 -65 35 -60 21 hvcurveto
          51 34 46 44 75 vvcurveto
          103 -79 55 -149 vhcurveto
          hintmask 01010000
          0 -159 -7 -33 -32 -137 -31 callsubr
          -12 -80 12 -12 rlineto
          0 22 2 12 18 9 -15 -31 vhcurveto
          -1 -357 rlineto
          -48 -15 -16 -52 -9 vhcurveto
          -9 -90 rlineto
          0 117 7 64 vhcurveto
          173 260 rmoveto
          41 -13 23 -26 -34 vvcurveto
          hintmask 10100000
          -48 -26 -25 -49 -51 -22 14 32 vhcurveto
          5 100 rlineto
          2 129 rmoveto
          0 3 81 4 44 vhcurveto
          11 1 4 3 13 hhcurveto
          66 31 -22 -46 -55 -42 -27 0 -23 -57 11 0 hvcurveto
          endchar
        </CharString>
        <CharString name="C">
          13 callsubr
          -96 callgsubr
          endchar
        </CharString>
        <CharString name="Cacute">
          13 callsubr
          216 -20 -96 callgsubr
          214 773 rmoveto
          -36 108 -16 -44 callsubr
          -126 -54 -123 -46 vhcurveto
          21 -71 19 -13 rlineto
          124 31 130 24 0 vvcurveto
          endchar
        </CharString>
        <CharString name="Ccaron">
          13 callsubr
          236 -20 -96 callgsubr
          179 899 -93 callsubr
        </CharString>
        <CharString name="Ccedilla">
          28 callsubr
          130 140 391 138 hstem
          261 -87 callsubr
          6 28 rlineto
          113 5 91 32 0 vvcurveto
          13 16 rlineto
          96 12 117 0 vhcurveto
          -153 -10 rlineto
          -85 -7 -21 -31 -51 hhcurveto
          -67 -30 68 149 132 22 42 70 50 19 -20 -54 -31 -2 -26 0 hvcurveto
          154 9 rlineto
          7 122 21 92 0 vvcurveto
          -8 20 rlineto
          0 -124 26 -86 -226 -125 -124 -224 -192 97 -117 168 -12 vhcurveto
          endchar
        </CharString>
        <CharString name="Ccircumflex">
          13 callsubr
          275 -20 -96 callgsubr
          -104 727 -105 callsubr
          endchar
        </CharString>
        <CharString name="Cdotaccent">
          13 callsubr
          24 199 -96 callgsubr
          24 694 rmoveto
          11 callsubr
        </CharString>
        <CharString name="D">
          274 -12 125 -113 113 413 127 -96 96 -6 39 callgsubr
          319 -37 callgsubr
          hintmask 10001000
          0 -120 -6 -46 -12 callgsubr
          hintmask 01010000
          0 17 2 15 19 6 -12 -42 vhcurveto
          -335 vlineto
          -28 callgsubr
          hintmask 10100000
          -24 callgsubr
          endchar
        </CharString>
        <CharString name="Dcaron">
          274 -12 125 -113 113 413 127 -96 96 -6 -20 268 -20 hstemhm
          hintmask 10010100
          319 -37 callgsubr
          hintmask 10001100
          0 -120 -6 -46 -12 callgsubr
          hintmask 01010100
          0 17 2 15 19 6 -12 -42 vhcurveto
          -335 vlineto
          -28 callgsubr
          hintmask 10100100
          -24 callgsubr
          187 362 -93 callsubr
        </CharString>
        <CharString name="Dcroat">
          -73 callsubr
        </CharString>
        <CharString name="Delta">
          267 0 136 523 -20 hstem
          24 hmoveto
          630 hlineto
          9 7 rlineto
          -96 293 -80 359 0 vvcurveto
          -10 hlineto
          -265 -17 -200 -629 rlineto
          327 484 rmoveto
          67 -361 rlineto
          -179 hlineto
          89 361 rlineto
          endchar
        </CharString>
        <CharString name="E">
          -70 callsubr
          12 -20 hstemhm
          hintmask 10101000
          284 175 rmoveto
          22 0 29 1 34 vhcurveto
          2 18 28 4 29 hhcurveto
          46 74 -3 0 hvcurveto
          14 115 -12 14 rlineto
          0 -80 -6 -30 vhcurveto
          -28 -35 1 -19 hhcurveto
          6 113 rlineto
          22 6 5 28 81 17 -10 -45 -13 -2 -24 0 vhcurveto
          138 9 rlineto
          5 94 18 105 0 vvcurveto
          hintmask 10100010
          -13 16 rlineto
          hintmask 01100100
          -7 -56 -128 -5 -125 hhcurveto
          -91 -142 3 0 hvcurveto
          -9 -79 12 -14 rlineto
          -50 callgsubr
          endchar
        </CharString>
        <CharString name="Eacute">
          -70 callsubr
          228 -20 -106 callgsubr
          231 587 rmoveto
          -36 108 -16 -44 callsubr
          -126 -54 -123 -46 vhcurveto
          21 -71 19 -13 rlineto
          124 31 130 24 0 vvcurveto
          endchar
        </CharString>
        <CharString name="Ebreve">
          -70 callsubr
          53 29 callgsubr
          hintmask 10101011
          -105 callgsubr
          hintmask 01100111
          -80 callgsubr
          hintmask 10110011
          -40 callgsubr
          155 166 -7 0 vhcurveto
          15 16 rlineto
          10 109 18 97 -10 callgsubr
          15 -128 -9 rlineto
          -90 -12 -18 -16 -86 hhcurveto
          -42 -6 8 52 hvcurveto
          43 660 -100 callsubr
        </CharString>
        <CharString name="Ecaron">
          -70 callsubr
          248 -20 -106 callgsubr
          196 713 -93 callsubr
        </CharString>
        <CharString name="Ecircumflex">
          -70 callsubr
          hstemhm
          hintmask 10101000
          -105 callgsubr
          hintmask 01100100
          -50 callgsubr
          -110 533 -91 callsubr
        </CharString>
        <CharString name="Edieresis">
          -70 callsubr
          38 167 -106 callgsubr
          136 510 -104 callsubr
        </CharString>
        <CharString name="Edotaccent">
          -70 callsubr
          36 199 -106 callgsubr
          41 508 rmoveto
          11 callsubr
        </CharString>
        <CharString name="Egrave">
          -70 callsubr
          228 -20 -106 callgsubr
          -134 571 -82 callgsubr
        </CharString>
        <CharString name="Emacron">
          -70 callsubr
          48 122 6 -20 -100 callgsubr
          hintmask 10110001
          -40 callgsubr
          155 166 -7 0 vhcurveto
          15 16 rlineto
          10 109 18 97 -10 callgsubr
          15 -128 -9 rlineto
          -90 -12 -18 -16 -86 hhcurveto
          -42 -6 8 52 hvcurveto
          190 648 rmoveto
          hintmask 10110010
          -88 callgsubr
        </CharString>
        <CharString name="Eng">
          328 -151 -21 172 83 564 -20 25 -20 hstemhm
          hintmask 11100000
          168 647 rmoveto
          hintmask 11010000
          -54 -91 5 0 hvcurveto
          -6 -77 11 -14 rlineto
          65 -7 11 -13 -42 vvcurveto
          -12 -356 -1 -42 -17 -18 -39 -5 rlinecurve
          -10 -86 rlineto
          0 80 8 40 79 101 -57 callgsubr
          10 82 -8 -2 callsubr
          -24 -3 -11 -29 -9 12 38 -1 vhcurveto
          -2 198 rlineto
          14 hlineto
          0 95 -143 114 -188 vhcurveto
          -12 -42 -22 -30 -49 -39 -2 -15 rcurveline
          38 -46 162 45 68 78 4 134 rlinecurve
          11 416 1 41 14 16 44 6 rlinecurve
          5 87 rlineto
          hintmask 11100000
          0 -87 -3 -46 -1 vhcurveto
          -30 -134 4 0 hvcurveto
          -5 -79 5 -10 rlineto
          0 24 1 7 24 9 -10 -33 vhcurveto
          4 -202 rlineto
          -14 hlineto
          0 -110 166 -94 167 vhcurveto
          0 -70 -4 -51 vhcurveto
          endchar
        </CharString>
        <CharString name="Eogonek">
          -242 85 157 115 151 120 141 120 -88 88 12 -20 hstemhm
          hintmask 11110000
          563 -27 callgsubr
          24 12 25 46 62 vhcurveto
          19 -1 12 -1 0 vvcurveto
          15 16 rlineto
          10 109 18 97 -10 callgsubr
          15 -128 -9 rlineto
          -90 -12 -18 -16 -86 hhcurveto
          -42 -6 8 52 22 0 29 1 34 hvcurveto
          2 18 28 4 29 hhcurveto
          46 74 -3 0 hvcurveto
          14 115 -12 14 rlineto
          0 -80 -6 -30 vhcurveto
          -28 -35 1 -19 hhcurveto
          6 113 rlineto
          22 6 5 28 81 17 -10 -45 -13 -2 -24 0 vhcurveto
          138 9 rlineto
          5 94 18 105 0 vvcurveto
          hintmask 11100100
          -13 16 rlineto
          hintmask 11101000
          -7 -56 -128 -5 -125 hhcurveto
          -91 -142 3 0 hvcurveto
          -9 -79 12 -14 rlineto
          -80 callgsubr
          -40 callgsubr
          76 79 -1 -2 61 vhcurveto
          -64 -68 -21 29 callsubr
          endchar
        </CharString>
        <CharString name="Eth">
          -73 callsubr
        </CharString>
        <CharString name="Euro">
          148 -8 106 -106 202 -34 75 38 75 -40 204 -105 105 hstem
          371 237 rmoveto
          -119 -4 rlineto
          -3 hlineto
          -1 11 0 12 13 vvcurveto
          4 vlineto
          125 1 6 68 -8 8 -116 -4 rlineto
          44 11 24 17 43 hhcurveto
          44 18 -16 -42 -24 -1 -20 0 hvcurveto
          120 7 rlineto
          6 94 18 70 0 vvcurveto
          -7 16 rlineto
          0 -100 20 -72 -144 -96 -58 -108 -35 vhcurveto
          -77 hlineto
          -9 -67 8 -6 rlineto
          64 hlineto
          -1 -11 0 -10 -11 vvcurveto
          -8 -62 vlineto
          -9 -67 8 -6 rlineto
          72 hlineto
          -107 26 84 -61 125 hhcurveto
          107 88 29 0 hvcurveto
          10 12 rlineto
          1 74 10 91 0 vvcurveto
          -120 -8 rlineto
          -67 -7 -20 -25 -44 hhcurveto
          -37 -26 20 42 -14 hvcurveto
          112 1 6 68 rlineto
          endchar
        </CharString>
        <CharString name="F">
          146 0 115 -104 -21 259 120 71 207 -120 120 -88 88 12 -20 hstemhm
          hintmask 10101000
          284 175 rmoveto
          1 68 rlineto
          2 17 29 4 29 hhcurveto
          44 71 -3 0 hvcurveto
          14 115 -12 14 rlineto
          0 -76 -6 -29 vhcurveto
          -83 1 7 130 rlineto
          22 6 5 28 59 16 -12 -43 -12 -2 -24 0 vhcurveto
          138 8 rlineto
          4 92 14 107 0 vvcurveto
          hintmask 10100010
          -13 16 rlineto
          hintmask 01100100
          -7 -51 -116 -5 -114 hhcurveto
          -91 -142 3 0 hvcurveto
          -9 -79 12 -14 rlineto
          -80 callgsubr
          hintmask 10110000
          -40 callgsubr
          47 116 -3 0 vhcurveto
          13 108 -16 18 rlineto
          0 -28 -8 -30 -34 -8 12 48 vhcurveto
          endchar
        </CharString>
        <CharString name="G">
          -22 callsubr
          -94 callgsubr
          endchar
        </CharString>
        <CharString name="Gbreve">
          -22 callsubr
          46 43 callsubr
          -94 callgsubr
          -277 539 -100 callsubr
        </CharString>
        <CharString name="Gcircumflex">
          -22 callsubr
          275 -20 -94 callgsubr
          -406 415 -105 callsubr
          endchar
        </CharString>
        <CharString name="Gcommaaccent">
          231 -324 -21 334 141 0 116 108 52 115 138 hstemhm
          hintmask 10111000
          609 359 rmoveto
          -1 -62 -4 -57 vhcurveto
          -153 hlineto
          -12 -95 47 callgsubr
          17 1 16 25 7 -9 -32 vhcurveto
          -63 vlineto
          0 -16 -12 -36 -73 -31 65 152 132 26 42 82 46 13 -15 -49 -32 -2 -23 0 vhcurveto
          154 9 rlineto
          6 117 22 85 0 vvcurveto
          -11 20 rlineto
          0 -109 26 -94 -235 -126 -121 -227 vhcurveto
          hintmask 11011000
          -203 113 -119 192 162 80 33 0 vhcurveto
          12 16 rlineto
          -5 21 -2 24 41 vvcurveto
          131 6 20 46 26 vhcurveto
          -385 -393 -104 callgsubr
          endchar
        </CharString>
        <CharString name="Gdotaccent">
          -22 callsubr
          24 199 -94 callgsubr
          -278 382 rmoveto
          11 callsubr
        </CharString>
        <CharString name="H">
          25 callgsubr
          172 88 5 -20 hstemhm
          hintmask 10101000
          -7 callsubr
          hintmask 10110000
          -35 callgsubr
          -119 vlineto
          -2 -19 -20 -1 -45 hhcurveto
          -85 3 6 121 2 36 8 8 43 8 rlinecurve
          hintmask 10101000
          7 90 rlineto
          hintmask 01110000
          0 -140 -5 -59 vhcurveto
          -129 17 callgsubr
          -15 callsubr
          -1 callsubr
          104 5 62 41 121 -57 callgsubr
          9 84 -8 10 rlineto
          0 -9 -3 -18 -26 -6 13 56 vhcurveto
          100 vlineto
          0 91 9 22 25 34 -1 0 vhcurveto
          -102 vlineto
          -54 -18 -21 -48 -1 vhcurveto
          -8 -87 rlineto
          0 120 1 46 83 88 -2 0 vhcurveto
          9 83 -8 11 rlineto
          0 -13 -3 -15 -29 -10 17 50 128 4 145 6 81 vhcurveto
          endchar
        </CharString>
        <CharString name="Hbar">
          25 callgsubr
          50 66 56 88 5 -20 hstemhm
          hintmask 10110100
          -7 callsubr
          hintmask 10111000
          -35 callgsubr
          -5 -55 vlineto
          -109 hlineto
          1 7 2 36 8 8 43 8 rlinecurve
          hintmask 10110100
          7 90 rlineto
          hintmask 01111000
          0 -140 -5 -59 vhcurveto
          -129 hlineto
          -8 -75 47 callgsubr
          15 1 11 28 7 -10 -41 vhcurveto
          -5 vlineto
          -50 -35 19 callgsubr
          82 -274 hlineto
          -15 callsubr
          hintmask 10111000
          0 104 5 62 41 121 -57 callgsubr
          9 84 -8 10 rlineto
          0 -9 -3 -18 -26 -6 13 56 vhcurveto
          100 vlineto
          0 91 9 22 25 34 -1 0 vhcurveto
          -102 vlineto
          -54 -18 -21 -48 -1 vhcurveto
          -8 -87 rlineto
          0 120 1 46 83 88 -2 0 vhcurveto
          9 83 -8 11 rlineto
          0 -13 -3 -15 -29 -10 17 50 95 2 105 4 81 vhcurveto
          83 1 36 callgsubr
          -28 -1 -42 -1 vhcurveto
          1 1 1 2 vvcurveto
          -288 -73 rmoveto
          81 -48 hlineto
          -2 -19 -20 -1 -45 hhcurveto
          -85 3 2 48 rlineto
          endchar
        </CharString>
        <CharString name="Hcircumflex">
          25 callgsubr
          172 88 313 -20 hstemhm
          hintmask 01111000
          -7 callsubr
          -35 callgsubr
          -119 vlineto
          -2 -19 -20 -1 -45 hhcurveto
          -85 3 6 121 2 36 8 8 43 8 rlinecurve
          7 90 rlineto
          0 -140 -5 -59 vhcurveto
          -129 17 callgsubr
          -15 callsubr
          hintmask 10111000
          0 104 5 62 41 121 -57 callgsubr
          9 84 -8 10 rlineto
          0 -9 -3 -18 -26 -6 13 56 vhcurveto
          100 vlineto
          0 91 9 22 25 34 -1 0 vhcurveto
          -102 vlineto
          -54 -18 -21 -48 -1 vhcurveto
          -8 -87 rlineto
          0 120 1 46 83 88 -2 0 vhcurveto
          9 83 -8 11 rlineto
          0 -13 -3 -15 -29 -10 17 50 128 4 145 6 81 vhcurveto
          -429 232 -105 callsubr
          endchar
        </CharString>
        <CharString name="I">
          -41 callgsubr
          5 39 callgsubr
          295 510 rmoveto
          3 37 8 8 46 7 7 90 rcurveline
          hintmask 01100000
          -90 callsubr
          -55 -11 -15 -54 -12 vhcurveto
          -8 -85 rlineto
          hintmask 10100000
          -91 callgsubr
          endchar
        </CharString>
        <CharString name="IJ">
          301 -143 -21 164 87 472 88 8 -20 hstemhm
          hintmask 11100000
          295 510 rmoveto
          3 37 8 8 46 7 7 90 rcurveline
          -90 callsubr
          -55 -11 -15 -54 -12 vhcurveto
          -8 -85 rlineto
          -91 callgsubr
          155 -378 -54 callsubr
          rrcurveto
          hintmask 11010000
          8 93 rlineto
          0 -93 -6 -97 -1 vhcurveto
          hintmask 11100000
          -19 callsubr
          endchar
        </CharString>
        <CharString name="Iacute">
          -41 callgsubr
          228 -20 -76 callgsubr
          hintmask 10110000
          -91 callgsubr
          81 252 rmoveto
          -36 108 -16 -44 callsubr
          -126 -54 -123 -46 vhcurveto
          21 -71 19 -13 rlineto
          124 31 130 24 0 vvcurveto
          endchar
        </CharString>
        <CharString name="Ibreve">
          -41 callgsubr
          53 29 callgsubr
          hintmask 01111000
          295 510 rmoveto
          3 37 8 8 46 7 7 90 rcurveline
          -90 callsubr
          -55 -11 -15 -54 -12 vhcurveto
          -8 -85 rlineto
          hintmask 10111000
          -91 callgsubr
          -107 325 -100 callsubr
        </CharString>
        <CharString name="Icircumflex">
          -41 callgsubr
          hstemhm
          hintmask 01100000
          295 510 rmoveto
          3 37 8 8 46 7 7 90 rcurveline
          -90 callsubr
          -55 -11 -15 -54 -12 vhcurveto
          -8 -85 rlineto
          hintmask 10100000
          -91 callgsubr
          -260 198 -91 callsubr
        </CharString>
        <CharString name="Idieresis">
          -41 callgsubr
          38 167 -76 callgsubr
          hintmask 10110000
          -91 callgsubr
          -14 175 -104 callsubr
        </CharString>
        <CharString name="Idotaccent">
          -41 callgsubr
          36 199 -76 callgsubr
          hintmask 10110000
          -91 callgsubr
          -109 173 rmoveto
          11 callsubr
        </CharString>
        <CharString name="Igrave">
          -41 callgsubr
          228 -20 -76 callgsubr
          hintmask 10110000
          -91 callgsubr
          -284 236 -82 callgsubr
        </CharString>
        <CharString name="Imacron">
          -41 callgsubr
          48 122 6 -20 -76 callgsubr
          hintmask 10101000
          -91 callgsubr
          40 313 rmoveto
          hintmask 10110000
          -88 callgsubr
        </CharString>
        <CharString name="Iogonek">
          -38 -242 85 157 87 472 88 5 42 callgsubr
          338 -27 callgsubr
          24 13 26 48 64 vhcurveto
          29 -1 27 -1 0 vvcurveto
          9 84 -8 10 rlineto
          0 -11 -3 -21 -26 -6 13 56 130 4 130 6 94 vhcurveto
          3 37 8 8 46 7 7 90 rcurveline
          hintmask 11100000
          -90 callsubr
          -55 -11 -15 -54 -12 vhcurveto
          -8 -85 rlineto
          0 103 5 63 vhcurveto
          37 hlineto
          -66 -71 -9 callsubr
          endchar
        </CharString>
        <CharString name="Itilde">
          -41 callgsubr
          77 -55 callgsubr
          hintmask 01110010
          295 510 rmoveto
          3 37 8 8 46 7 7 90 rcurveline
          -90 callsubr
          -55 -11 -15 -54 -12 vhcurveto
          -8 -85 rlineto
          hintmask 10101010
          -91 callgsubr
          -231 190 -36 callgsubr
          hintmask 10110010
          -87 callgsubr
          hintmask 10100110
          -80 callsubr
        </CharString>
        <CharString name="J">
          -69 -143 -21 723 88 8 -27 callsubr
          80 132 -54 callsubr
          8 93 rcurveline
          0 -93 -6 -97 -1 vhcurveto
          hintmask 11000000
          -19 callsubr
          endchar
        </CharString>
        <CharString name="Jcircumflex">
          -69 -143 -21 723 88 287 -20 hstem
          80 132 -54 callsubr
          8 93 rcurveline
          0 -93 -6 -97 -1 vhcurveto
          -19 callsubr
          -41 208 -105 callsubr
          endchar
        </CharString>
        <CharString name="K">
          285 0 87 -82 -21 663 -20 25 39 callgsubr
          -42 callgsubr
          hintmask 01100000
          -54 callgsubr
          hintmask 10010000
          -9 15 rlineto
          hintmask 10100000
          -19 callgsubr
          endchar
        </CharString>
        <CharString name="Kcommaaccent">
          285 32 callgsubr
          87 560 -20 25 42 callgsubr
          -42 callgsubr
          hintmask 11100000
          -54 callgsubr
          hintmask 11010000
          -9 15 rlineto
          hintmask 11100000
          -19 callgsubr
          -27 -439 -104 callgsubr
          endchar
        </CharString>
        <CharString name="L">
          149 12 callsubr
          hintmask 10010000
          224 hmoveto
          -81 callgsubr
          11 98 rcurveline
          hintmask 01100000
          0 -159 -5 -48 -92 callgsubr
          -338 vlineto
          -57 callsubr
          hintmask 10100000
          -40 callgsubr
          vhcurveto
          endchar
        </CharString>
        <CharString name="Lacute">
          149 0 115 -104 -21 569 88 228 -20 hstemhm
          hintmask 10110000
          224 hmoveto
          -81 callgsubr
          11 98 rcurveline
          0 -159 -5 -48 -92 callgsubr
          -338 vlineto
          -60 -15 -20 -50 -8 vhcurveto
          hintmask 01110000
          -9 -92 rlineto
          hintmask 10110000
          -40 callgsubr
          vhcurveto
          155 762 rmoveto
          -36 108 -16 -44 callsubr
          -126 -54 -123 -46 vhcurveto
          21 -71 19 -13 rlineto
          124 31 130 24 0 vvcurveto
          endchar
        </CharString>
        <CharString name="Lcaron">
          162 12 callsubr
          hintmask 10100000
          565 647 rmoveto
          -134 2 callsubr
          11 -118 -2 -120 vhcurveto
          19 -6 73 25 rlineto
          26 112 16 109 0 vvcurveto
          -350 -635 rmoveto
          -81 callgsubr
          rrcurveto
          hintmask 10010000
          11 98 rlineto
          hintmask 01100000
          0 -159 -5 -48 -92 callgsubr
          -338 vlineto
          -57 callsubr
          hintmask 10100000
          -40 callgsubr
          vhcurveto
          endchar
        </CharString>
        <CharString name="Lcommaaccent">
          149 32 callgsubr
          115 444 88 5 42 callgsubr
          224 hmoveto
          -81 callgsubr
          11 98 rcurveline
          hintmask 11100000
          0 -159 -5 -48 -92 callgsubr
          -338 vlineto
          -57 callsubr
          -40 callgsubr
          vhcurveto
          -37 -92 -104 callgsubr
          endchar
        </CharString>
        <CharString name="Ldot">
          169 0 115 -104 -21 388 199 -18 88 5 -20 hstemhm
          hintmask 10101000
          224 hmoveto
          -81 callgsubr
          11 98 rcurveline
          hintmask 01010000
          0 -159 -5 -48 -92 callgsubr
          -338 vlineto
          -57 callsubr
          hintmask 10101000
          -40 callgsubr
          vhcurveto
          247 378 rmoveto
          11 callsubr
        </CharString>
        <CharString name="Lslash">
          174 12 callsubr
          hintmask 10010000
          249 hmoveto
          143 151 21 callgsubr
          9 139 15 128 -10 callgsubr
          15 -128 -13 rlineto
          -134 -7 -18 -29 -71 hhcurveto
          -27 -10 12 31 59 0 52 1 46 hvcurveto
          127 63 -31 93 -9 4 -82 -41 1 23 1 23 2 22 rlinecurve
          2 35 17 10 69 7 11 98 rcurveline
          hintmask 01100000
          0 -159 -5 -48 -92 callgsubr
          -154 vlineto
          -97 -48 31 -94 10 -2 56 28 rlineto
          -68 vlineto
          -57 callsubr
          hintmask 10100000
          -40 callgsubr
          vhcurveto
          endchar
        </CharString>
        <CharString name="M">
          426 0 89 -80 -21 573 87 -1 -20 26 -27 callsubr
          462 -2 rmoveto
          53 197 56 168 0 vvcurveto
          13 hlineto
          0 4 -186 -45 vvcurveto
          -32 -14 -13 -37 -4 vhcurveto
          -12 -91 rlineto
          4 13 160 4 19 hhcurveto
          47 -1 63 -2 0 vvcurveto
          9 86 -7 -2 callsubr
          -14 -2 -16 -30 -11 22 65 -5 vhcurveto
          -10 93 -12 180 61 vvcurveto
          40 11 9 55 2 vhcurveto
          8 88 rlineto
          hintmask 10001000
          -7 4 rlineto
          hintmask 10100000
          0 -46 -3 -48 -2 vhcurveto
          hintmask 10010000
          -4 -62 -61 3 -62 hhcurveto
          -35 -145 -49 -169 0 vvcurveto
          -13 hlineto
          0 -45 169 -29 149 vhcurveto
          0 -99 -4 -55 -42 -105 5 0 vhcurveto
          -10 -86 8 -8 rlineto
          60 -7 2 -1 -37 vvcurveto
          -26 -35 -339 0 vhcurveto
          -3 -45 -17 -17 -37 -4 -8 -90 rcurveline
          1 77 7 40 33 110 46 callsubr
          86 -9 -2 callsubr
          -19 -2 -7 -23 -10 11 23 22 5 219 0 vhcurveto
          13 hlineto
          hintmask 01100000
          0 51 -163 57 -212 vhcurveto
          endchar
        </CharString>
        <CharString name="N">
          6 callgsubr
          5 -27 callsubr
          -49 callsubr
          vhcurveto
          hintmask 10010000
          -73 -75 5 0 hvcurveto
          -86 callsubr
          hintmask 01100000
          -14 callgsubr
          hintmask 10100000
          -68 callgsubr
          endchar
        </CharString>
        <CharString name="Nacute">
          6 callgsubr
          228 -72 callsubr
          71 429 rmoveto
          -36 108 -16 -44 callsubr
          -126 -54 -123 -46 vhcurveto
          21 -71 19 -13 rlineto
          124 31 130 24 0 vvcurveto
          endchar
        </CharString>
        <CharString name="Ncaron">
          6 callgsubr
          248 -72 callsubr
          36 555 -93 callsubr
        </CharString>
        <CharString name="Ncommaaccent">
          331 32 callgsubr
          86 473 88 5 -20 hstemhm
          hintmask 11100000
          -49 callsubr
          vhcurveto
          hintmask 11010000
          -73 -75 5 0 hvcurveto
          -86 callsubr
          -14 callgsubr
          188 12 13 497 1 41 14 16 43 6 rlinecurve
          5 90 rlineto
          hintmask 11100000
          -1 -83 -2 -56 -56 -110 4 0 vhcurveto
          -5 -81 5 -11 rlineto
          31 hlineto
          24 7 -9 -34 2 hvcurveto
          4 -183 rlineto
          -219 -425 -104 callgsubr
          endchar
        </CharString>
        <CharString name="Ntilde">
          6 callgsubr
          52 -55 callgsubr
          hintmask 10110010
          -49 callsubr
          -73 -75 5 0 vhcurveto
          -86 callsubr
          hintmask 01110010
          -14 callgsubr
          hintmask 10101010
          -68 callgsubr
          -239 342 -36 callgsubr
          hintmask 10110010
          -87 callgsubr
          hintmask 10100110
          -80 callsubr
        </CharString>
        <CharString name="O">
          -47 callsubr
          hstem
          -102 callgsubr
          endchar
        </CharString>
        <CharString name="OE">
          507 -10 125 -112 112 148 123 53 199 -111 111 -111 123 9 -20 hstemhm
          hintmask 10101010
          596 175 rmoveto
          1 85 75 6 rlineto
          46 74 -3 0 hvcurveto
          14 115 -12 14 rlineto
          0 -80 -6 -30 vhcurveto
          -82 1 6 113 rlineto
          22 6 5 28 81 17 -10 -45 -13 -2 -24 0 vhcurveto
          138 9 rlineto
          5 94 18 105 0 vvcurveto
          -13 16 rlineto
          -7 -56 -138 -14 -126 hhcurveto
          hintmask 10100100
          -91 -73 12 -65 hhcurveto
          -212 -110 -114 -224 -209 110 -113 193 hvcurveto
          hintmask 01110010
          55 85 13 75 hhcurveto
          155 169 -10 0 hvcurveto
          15 16 rlineto
          10 109 18 97 -10 callgsubr
          15 -128 -9 rlineto
          -89 -11 -18 -17 -87 hhcurveto
          -42 -6 8 52 hvcurveto
          -264 -67 rmoveto
          -67 -23 67 187 121 21 45 59 50 33 -22 -67 hvcurveto
          -1 -243 rlineto
          -61 -26 -27 -46 vhcurveto
          endchar
        </CharString>
        <CharString name="Oacute">
          -47 callsubr
          216 -20 hstem
          -102 callgsubr
          200 774 rmoveto
          -36 108 -16 -44 callsubr
          -126 -54 -123 -46 vhcurveto
          21 -71 19 -13 rlineto
          124 31 130 24 0 vvcurveto
          endchar
        </CharString>
        <CharString name="Obreve">
          -47 callsubr
          41 43 callsubr
          hstem
          -102 callgsubr
          12 847 -100 callsubr
        </CharString>
        <CharString name="Ocircumflex">
          -47 callsubr
          hstem
          -102 callgsubr
          -141 720 -91 callsubr
        </CharString>
        <CharString name="Odieresis">
          -47 callsubr
          26 167 hstem
          -102 callgsubr
          105 697 -104 callsubr
        </CharString>
        <CharString name="Ograve">
          -47 callsubr
          216 -20 hstem
          -102 callgsubr
          -165 758 -82 callgsubr
        </CharString>
        <CharString name="Ohungarumlaut">
          -47 callsubr
          221 -20 hstem
          -102 callgsubr
          60 811 -64 callgsubr
          198 15 -64 callgsubr
          endchar
        </CharString>
        <CharString name="Omacron">
          -47 callsubr
          36 122 6 42 callgsubr
          -102 callgsubr
          159 835 rmoveto
          hintmask 11100000
          -88 callgsubr
        </CharString>
        <CharString name="Omega">
          457 14 -21 529 137 hstem
          857 19 rmoveto
          92 3 144 0 vhcurveto
          -106 -9 -10 -90 -22 -38 -45 -6 rlinecurve
          -58 -10 rlineto
          89 83 40 92 119 vvcurveto
          158 -123 105 -185 -186 -131 -120 -172 -102 39 -86 79 -76 vhcurveto
          -53 9 -50 7 -22 40 -6 96 rlinecurve
          -105 -9 rlineto
          0 3 -135 -92 vvcurveto
          21 -22 295 6 72 -10 26 81 rlineto
          -53 52 -17 71 174 vvcurveto
          110 29 41 59 62 17 -55 -142 -155 -12 -43 -60 -53 vhcurveto
          27 -81 72 10 290 -6 rlineto
          endchar
        </CharString>
        <CharString name="Oslash">
          247 -96 -21 105 126 408 137 93 -61 callsubr
          endchar
        </CharString>
        <CharString name="Oslashacute">
          247 -96 -21 105 126 408 137 229 -61 callsubr
          164 661 rmoveto
          -36 108 -16 -44 callsubr
          -126 -54 -123 -46 vhcurveto
          21 -71 19 -13 rlineto
          124 31 130 24 0 vvcurveto
          endchar
        </CharString>
        <CharString name="Otilde">
          -47 callsubr
          40 -55 callgsubr
          hintmask 11010100
          -102 callgsubr
          -110 687 -36 callgsubr
          hintmask 11100100
          -87 callgsubr
          hintmask 11001100
          -80 callsubr
        </CharString>
        <CharString name="P">
          198 0 88 -76 -21 537 125 -94 94 -6 -20 hstemhm
          hintmask 01010000
          17 569 rmoveto
          10 -12 rlineto
          36 callsubr
          -13 -41 vhcurveto
          -337 vlineto
          -56 -16 -21 -49 -8 vhcurveto
          -9 -92 rlineto
          hintmask 10100000
          0 140 9 46 42 121 -57 callgsubr
          10 86 -5 -2 callsubr
          -19 -2 -14 -41 -9 18 54 vhcurveto
          48 86 vlineto
          134 116 110 127 78 -32 130 -239 hvcurveto
          hintmask 10001000
          0 -135 -6 -45 vhcurveto
          -143 hlineto
          260 -316 rmoveto
          2 63 3 61 3 51 rrcurveto
          hintmask 10100000
          19 1 2 3 14 hhcurveto
          71 32 -28 -65 -64 -19 -36 -40 -14 hvcurveto
          endchar
        </CharString>
        <CharString name="Q">
          251 -242 170 60 126 408 137 hstem
          313 -12 rmoveto
          -195 206 52 -35 82 hhcurveto
          37 139 101 0 hvcurveto
          -17 68 -12 11 rlineto
          0 -46 -10 -45 -65 -87 35 55 -72 vhcurveto
          14 vlineto
          96 58 59 109 141 vvcurveto
          211 -100 108 -198 -212 -115 -123 -224 -209 105 -115 193 vhcurveto
          19 126 -83 callgsubr
          endchar
        </CharString>
        <CharString name="R">
          -15 callgsubr
          hstemhm
          hintmask 01001000
          -70 callgsubr
          hintmask 10000100
          -32 callgsubr
          hintmask 00101000
          -62 callgsubr
          hintmask 10010000
          -66 callgsubr
          endchar
        </CharString>
        <CharString name="Racute">
          -15 callgsubr
          248 -74 callsubr
          167 418 rmoveto
          -36 108 -16 -44 callsubr
          -126 -54 -123 -46 vhcurveto
          21 -71 19 -13 rlineto
          124 31 130 24 0 vvcurveto
          endchar
        </CharString>
        <CharString name="Rcaron">
          -15 callgsubr
          268 -74 callsubr
          132 544 -93 callsubr
        </CharString>
        <CharString name="Rcommaaccent">
          270 -324 -21 335 98 -67 -21 559 94 -6 42 callgsubr
          -70 callgsubr
          hintmask 11001000
          -32 callgsubr
          hintmask 10110000
          -62 callgsubr
          hintmask 11010000
          -66 callgsubr
          -116 -436 -104 callgsubr
          endchar
        </CharString>
        <CharString name="S">
          -38 callsubr
          hstem
          222 -12 rmoveto
          -101 callsubr
          80 -43 117 vhcurveto
          endchar
        </CharString>
        <CharString name="Sacute">
          -38 callsubr
          216 -20 hstem
          288 -12 rmoveto
          -101 callsubr
          80 -43 117 vhcurveto
          188 774 rmoveto
          -36 108 -16 -44 callsubr
          -126 -54 -123 -46 vhcurveto
          21 -71 19 -13 rlineto
          124 31 130 24 0 vvcurveto
          endchar
        </CharString>
        <CharString name="Scaron">
          -38 callsubr
          236 -20 hstem
          288 -12 rmoveto
          -101 callsubr
          80 -43 117 vhcurveto
          153 900 -93 callsubr
        </CharString>
        <CharString name="Scedilla">
          143 28 callsubr
          128 133 310 228 -138 138 hstem
          200 -87 callsubr
          5 26 rlineto
          7 hlineto
          -101 callsubr
          50 -27 79 -11 vhcurveto
          endchar
        </CharString>
        <CharString name="Scircumflex">
          -38 callsubr
          275 -20 hstem
          158 716 -105 callsubr
          110 -790 rmoveto
          -101 callsubr
          80 -43 117 vhcurveto
          endchar
        </CharString>
        <CharString name="Scommaaccent">
          143 -324 -21 333 133 -133 230 303 138 hstem
          288 -12 rmoveto
          -101 callsubr
          80 -43 117 vhcurveto
          -135 -80 -104 callgsubr
          endchar
        </CharString>
        <CharString name="T">
          185 0 91 -79 -21 535 121 11 -33 callsubr
          -28 callsubr
          hintmask 10100000
          0 137 9 64 57 146 -6 0 vhcurveto
          -67 callsubr
          hintmask 10010000
          -13 14 rlineto
          hintmask 10100000
          13 callgsubr
          hintmask 10010000
          -52 callsubr
          hintmask 10100000
          14 callsubr
          endchar
        </CharString>
        <CharString name="Tbar">
          185 0 91 -79 -21 261 66 208 121 11 -20 hstemhm
          hintmask 01110000
          -28 callsubr
          -1 callsubr
          137 9 64 57 146 -46 callsubr
          -14 18 51 vhcurveto
          92 82 vlineto
          36 callgsubr
          -33 -2 -39 -1 vhcurveto
          1 76 2 72 2 59 rrcurveto
          54 5 -20 -124 10 hvcurveto
          124 -2 callsubr
          -4 137 -1 117 vhcurveto
          hintmask 10101000
          -13 14 rlineto
          hintmask 10110000
          13 callgsubr
          hintmask 10101000
          -52 callsubr
          hintmask 10110000
          14 callsubr
          -208 vlineto
          -42 -38 19 callgsubr
          0 35 0 42 1 vhcurveto
          endchar
        </CharString>
        <CharString name="Tcaron">
          185 0 91 -79 -21 535 121 248 -20 hstemhm
          hintmask 01110000
          -28 callsubr
          -1 callsubr
          137 9 64 57 146 -6 0 vhcurveto
          -67 callsubr
          -13 14 13 callgsubr
          -52 callsubr
          14 callsubr
          257 362 -93 callsubr
        </CharString>
        <CharString name="Tcedilla">
          185 28 callsubr
          140 91 435 121 11 -20 hstemhm
          hintmask 11110000
          239 -87 callsubr
          8 38 rlineto
          67 -2 104 -4 0 vvcurveto
          -67 callsubr
          hintmask 11101000
          -13 14 rlineto
          hintmask 11110000
          13 callgsubr
          hintmask 11101000
          -52 callsubr
          hintmask 11110000
          14 callsubr
          -358 vlineto
          -62 -17 -16 -82 -7 vhcurveto
          -8 -92 rlineto
          0 102 7 69 2 vhcurveto
          endchar
        </CharString>
        <CharString name="Thorn">
          197 0 87 -71 -21 412 115 37 88 5 -20 hstemhm
          hintmask 10101000
          295 527 rmoveto
          3 22 5 3 49 10 7 90 rcurveline
          hintmask 01110000
          -90 callsubr
          -15 callsubr
          -1 callsubr
          104 5 62 45 132 -57 callgsubr
          9 84 -8 10 rlineto
          0 -14 -3 -28 -26 -6 5 24 vhcurveto
          23 71 vlineto
          148 101 78 114 130 -77 61 -165 hvcurveto
          -69 hlineto
          1 1 2 2 vvcurveto
          -7 -142 rmoveto
          16 6 6 14 63 28 -23 -53 -48 -16 -28 -33 -9 vhcurveto
          -11 -26 4 6 -27 hvcurveto
          34 2 68 27 vvcurveto
          endchar
        </CharString>
        <CharString name="U">
          -44 callgsubr
          4 -27 callsubr
          257 220 rmoveto
          6 289 1 31 12 15 35 3 rlinecurve
          10 93 rlineto
          hintmask 11000000
          0 -95 -4 -39 -79 -98 3 0 vhcurveto
          -10 -89 2 -4 rlineto
          0 19 2 10 23 5 -10 -44 vhcurveto
          -306 vlineto
          -147 75 -64 171 176 91 84 162 vhcurveto
          282 vlineto
          24 6 6 42 14 vhcurveto
          8 90 rlineto
          0 -83 -3 -61 -37 -83 3 0 vhcurveto
          -11 -89 3 -4 rlineto
          0 13 2 10 20 6 -13 -41 vhcurveto
          0 1 -240 -62 vvcurveto
          -62 -22 -26 -50 -50 -27 41 64 vhcurveto
          endchar
        </CharString>
        <CharString name="Uacute">
          -44 callgsubr
          228 -20 hstem
          -107 callgsubr
          264 542 rmoveto
          -36 108 -16 -44 callsubr
          -126 -54 -123 -46 vhcurveto
          21 -71 19 -13 rlineto
          124 31 130 24 0 vvcurveto
          endchar
        </CharString>
        <CharString name="Ubreve">
          -44 callgsubr
          63 43 callsubr
          hstem
          -107 callgsubr
          76 625 -100 callsubr
        </CharString>
        <CharString name="Ucircumflex">
          -44 callgsubr
          hstem
          -107 callgsubr
          -77 488 -91 callsubr
        </CharString>
        <CharString name="Udieresis">
          -44 callgsubr
          38 167 hstem
          -107 callgsubr
          169 465 -104 callsubr
        </CharString>
        <CharString name="Ugrave">
          -44 callgsubr
          228 -20 hstem
          -107 callgsubr
          -101 526 -82 callgsubr
        </CharString>
        <CharString name="Uhungarumlaut">
          -44 callgsubr
          233 -20 hstem
          -107 callgsubr
          124 579 -64 callgsubr
          198 15 -64 callgsubr
          endchar
        </CharString>
        <CharString name="Umacron">
          -44 callgsubr
          48 122 6 42 callgsubr
          -107 callgsubr
          223 603 rmoveto
          hintmask 11100000
          -88 callgsubr
        </CharString>
        <CharString name="Uogonek">
          219 -242 85 145 127 444 88 4 -20 hstemhm
          hintmask 11100000
          513 -27 callgsubr
          29 12 20 94 122 vhcurveto
          42 53 18 54 72 vvcurveto
          282 vlineto
          24 6 6 42 14 vhcurveto
          8 90 rlineto
          0 -83 -3 -61 -37 -83 3 0 vhcurveto
          -11 -89 3 -4 rlineto
          0 13 2 10 20 6 -13 -41 vhcurveto
          0 1 -240 -62 vvcurveto
          -62 -22 -26 -50 -48 -29 39 66 vhcurveto
          6 289 1 32 13 14 34 3 rlinecurve
          hintmask 11010000
          10 93 rlineto
          hintmask 11100000
          0 -95 -4 -39 -79 -98 3 0 vhcurveto
          -10 -89 2 -4 rlineto
          0 19 2 10 23 5 -10 -44 vhcurveto
          -306 vlineto
          -147 75 -64 171 31 25 2 5 24 vhcurveto
          -59 -65 -21 -39 -44 -23 callgsubr
        </CharString>
        <CharString name="Uring">
          -44 callgsubr
          35 210 -72 72 hstemhm
          hintmask 11010000
          -107 callgsubr
          78 532 -51 callgsubr
          hintmask 11100000
          -7 -70 -58 callgsubr
          endchar
        </CharString>
        <CharString name="Utilde">
          -44 callgsubr
          77 -55 callgsubr
          hintmask 11010100
          -107 callgsubr
          -48 480 -36 callgsubr
          hintmask 11100100
          -87 callgsubr
          hintmask 11001100
          -80 callsubr
        </CharString>
        <CharString name="V">
          233 8 -21 570 90 5 -20 hstemhm
          hintmask 11000000
          57 493 rmoveto
          28 -108 90 -398 0 vvcurveto
          275 17 149 502 12 38 7 10 22 7 rlinecurve
          7 87 rlineto
          0 -66 -1 -57 -61 -93 3 0 2 callgsubr
          8 -10 rlineto
          26 hlineto
          26 5 -3 -17 -33 -82 -336 0 hvcurveto
          -22 hlineto
          0 -54 317 40 vvcurveto
          25 2 1 62 8 vhcurveto
          6 84 rlineto
          hintmask 10100000
          -8 9 rlineto
          hintmask 11000000
          0 -96 -5 -95 -53 -84 -31 callsubr
          -8 -79 7 -10 28 -4 15 -18 12 -45 rlinecurve
          endchar
        </CharString>
        <CharString name="W">
          14 callgsubr
          5 -20 hstemhm
          hintmask 11000000
          819 4 rmoveto
          138 502 12 38 7 10 21 7 rlinecurve
          7 87 rlineto
          0 -63 -1 -55 -58 -90 3 0 2 callgsubr
          7 -10 rlineto
          25 hlineto
          25 5 -3 -17 -33 -79 -336 0 hvcurveto
          -21 hlineto
          0 -51 317 40 vvcurveto
          26 1 0 60 8 vhcurveto
          7 84 rlineto
          hintmask 10100000
          -8 9 rlineto
          hintmask 11000000
          0 -92 -5 -91 -59 -103 -31 callsubr
          -9 -79 7 -10 rlineto
          46 10 -5 -26 -5 -1 -9 -2 -13 hvcurveto
          -15 -88 -61 -246 0 vvcurveto
          -21 hlineto
          0 -52 317 40 vvcurveto
          25 2 1 60 8 vhcurveto
          6 84 rlineto
          hintmask 10100000
          -7 9 rlineto
          hintmask 11000000
          0 -93 -5 -91 -51 -80 -31 callsubr
          -9 -79 7 -10 27 -4 14 -18 12 -45 rlinecurve
          26 -108 87 -398 0 vvcurveto
          265 17 63 268 rlineto
          14 hlineto
          44 -285 rlineto
          endchar
        </CharString>
        <CharString name="Wacute">
          14 callgsubr
          228 -20 -101 callgsubr
          153 775 rmoveto
          -36 108 -16 -44 callsubr
          -126 -54 -123 -46 vhcurveto
          21 -71 19 -13 rlineto
          124 31 130 24 0 vvcurveto
          endchar
        </CharString>
        <CharString name="Wcircumflex">
          14 callgsubr
          -101 callgsubr
          -188 721 -91 callsubr
        </CharString>
        <CharString name="Wdieresis">
          14 callgsubr
          38 167 -101 callgsubr
          58 698 -104 callsubr
        </CharString>
        <CharString name="Wgrave">
          14 callgsubr
          228 -20 -101 callgsubr
          -212 759 -82 callgsubr
        </CharString>
        <CharString name="X">
          303 2 84 -70 -21 565 87 6 -27 callsubr
          133 219 rmoveto
          -37 -53 -60 -62 -29 -14 -6 -80 rcurveline
          5 2 callsubr
          94 6 40 32 119 -6 0 vhcurveto
          5 81 -6 11 rlineto
          -27 -12 9 21 9 7 15 10 16 hvcurveto
          38 63 61 -88 rlineto
          8 -11 3 -8 -8 vvcurveto
          -13 -10 -6 -19 -1 vhcurveto
          -7 -84 rlineto
          hintmask 01100000
          7 -7 rlineto
          hintmask 10100000
          0 160 7 47 38 97 -3 0 vhcurveto
          9 90 -4 4 -48 1 -35 26 -42 59 rlinecurve
          -87 122 94 145 34 53 30 25 64 31 rlinecurve
          5 87 -4 -2 callsubr
          -71 -3 -58 vhcurveto
          -155 hlineto
          -6 -80 2 -6 rlineto
          29 9 -5 -15 -17 -36 -56 -25 -44 hvcurveto
          -36 51 -27 35 26 vvcurveto
          16 12 8 27 vhcurveto
          7 82 rlineto
          hintmask 10010000
          -6 11 rlineto
          hintmask 10100000
          0 -129 -6 -44 -106 -70 1 0 vhcurveto
          -9 -91 5 -6 49 -12 27 -9 43 -63 rlinecurve
          82 -121 rlineto
          endchar
        </CharString>
        <CharString name="Y">
          -14 callsubr
          7 -27 callsubr
          297 535 rmoveto
          17 13 8 28 vhcurveto
          9 82 rlineto
          hintmask 10010000
          -7 11 rlineto
          hintmask 10100000
          0 -134 -7 -46 -33 -117 -31 callsubr
          -10 -91 4 -6 45 -19 34 -28 20 -37 rlinecurve
          107 -199 rlineto
          21 -39 7 -22 -29 vvcurveto
          -16 vlineto
          -59 -18 -14 -85 -6 vhcurveto
          hintmask 01100000
          -8 -92 rlineto
          hintmask 10100000
          -94 callsubr
          endchar
        </CharString>
        <CharString name="Yacute">
          -14 callsubr
          229 -20 hstemhm
          hintmask 10110000
          297 535 rmoveto
          17 13 8 28 vhcurveto
          9 82 -7 11 rlineto
          0 -134 -7 -46 -33 -117 -31 callsubr
          -10 -91 4 -6 45 -19 34 -28 20 -37 rlinecurve
          107 -199 rlineto
          21 -39 7 -22 -29 vvcurveto
          -16 vlineto
          -59 -18 -14 -85 -6 vhcurveto
          hintmask 01110000
          -8 -92 rlineto
          hintmask 10110000
          -94 callsubr
          256 227 rmoveto
          -36 108 -16 -44 callsubr
          -126 -54 -123 -46 vhcurveto
          21 -71 19 -13 rlineto
          124 31 130 24 0 vvcurveto
          endchar
        </CharString>
        <CharString name="Ycircumflex">
          -14 callsubr
          -26 callsubr
          297 535 rmoveto
          17 13 8 28 vhcurveto
          9 82 -7 11 rlineto
          0 -134 -7 -46 -33 -117 -31 callsubr
          -10 -91 4 -6 45 -19 34 -28 20 -37 rlinecurve
          107 -199 rlineto
          21 -39 7 -22 -29 vvcurveto
          -16 vlineto
          -59 -18 -14 -85 -6 vhcurveto
          hintmask 01100000
          -8 -92 rlineto
          hintmask 10100000
          -94 callsubr
          -85 173 -91 callsubr
        </CharString>
        <CharString name="Ydieresis">
          -14 callsubr
          39 167 hstemhm
          hintmask 10110000
          297 535 rmoveto
          17 13 8 28 vhcurveto
          9 82 -7 11 rlineto
          0 -134 -7 -46 -33 -117 -31 callsubr
          -10 -91 4 -6 45 -19 34 -28 20 -37 rlinecurve
          107 -199 rlineto
          21 -39 7 -22 -29 vvcurveto
          -16 vlineto
          -59 -18 -14 -85 -6 vhcurveto
          hintmask 01110000
          -8 -92 rlineto
          hintmask 10110000
          -94 callsubr
          161 150 -104 callsubr
        </CharString>
        <CharString name="Ygrave">
          -14 callsubr
          229 -20 hstemhm
          hintmask 10110000
          297 535 rmoveto
          17 13 8 28 vhcurveto
          9 82 -7 11 rlineto
          0 -134 -7 -46 -33 -117 -31 callsubr
          -10 -91 4 -6 45 -19 34 -28 20 -37 rlinecurve
          107 -199 rlineto
          21 -39 7 -22 -29 vvcurveto
          -16 vlineto
          -59 -18 -14 -85 -6 vhcurveto
          hintmask 01110000
          -8 -92 rlineto
          hintmask 10110000
          -94 callsubr
          -109 211 -82 callgsubr
        </CharString>
        <CharString name="Z">
          20 callgsubr
          11 -20 hstemhm
          hintmask 11000000
          571 19 rmoveto
          2 100 21 156 0 vvcurveto
          -126 -9 -9 -93 -26 -37 -64 -12 rlinecurve
          -105 -15 55 85 129 202 149 199 rlinecurve
          -25 54 rlineto
          -331 hlineto
          hintmask 10100000
          -181 11 rlineto
          hintmask 11000000
          -11 -11 rlineto
          -3 -93 -12 -147 0 vvcurveto
          126 9 3 85 12 14 77 15 rlinecurve
          77 10 -326 -491 36 -58 82 10 429 -6 rlineto
          endchar
        </CharString>
        <CharString name="Zacute">
          20 callgsubr
          226 -20 -77 callsubr
          -30 765 rmoveto
          -36 108 -16 -44 callsubr
          -126 -54 -123 -46 vhcurveto
          21 -71 19 -13 rlineto
          124 31 130 24 0 vvcurveto
          endchar
        </CharString>
        <CharString name="Zcaron">
          20 callgsubr
          246 -20 -77 callsubr
          -65 891 -93 callsubr
        </CharString>
        <CharString name="Zdotaccent">
          20 callgsubr
          34 199 -77 callsubr
          -220 686 rmoveto
          11 callsubr
        </CharString>
        <CharString name="a">
          -59 callgsubr
          -26 callsubr
          -88 callsubr
          hintmask 01100000
          -69 callsubr
          hintmask 10100000
          -103 callsubr
          endchar
        </CharString>
        <CharString name="a.sups">
          -67 callgsubr
        </CharString>
        <CharString name="aacute">
          -59 callgsubr
          278 -20 -74 callgsubr
          hintmask 10110000
          -103 callsubr
          145 449 -97 callsubr
          endchar
        </CharString>
        <CharString name="abreve">
          -59 callgsubr
          53 29 callgsubr
          hintmask 10111000
          -88 callsubr
          hintmask 01111000
          -69 callsubr
          hintmask 10111000
          -103 callsubr
          -33 460 -100 callsubr
        </CharString>
        <CharString name="acircumflex">
          -59 callgsubr
          277 -20 -74 callgsubr
          hintmask 10110000
          -103 callsubr
          -163 331 -105 callsubr
          endchar
        </CharString>
        <CharString name="acute">
          -10 546 -21 235 -20 hstem
          375 659 -97 callsubr
          endchar
        </CharString>
        <CharString name="acute.cap">
          -10 712 -21 184 -20 hstem
          369 762 rmoveto
          -36 108 -16 -44 callsubr
          -126 -54 -123 -46 vhcurveto
          21 -71 19 -13 rlineto
          124 31 130 24 0 vvcurveto
          endchar
        </CharString>
        <CharString name="adieresis">
          -59 callgsubr
          77 167 -74 callgsubr
          hintmask 10110000
          -103 callsubr
          62 349 -104 callsubr
        </CharString>
        <CharString name="ae">
          25 callsubr
          -26 callsubr
          -61 callgsubr
          hintmask 01010000
          -49 callgsubr
          endchar
        </CharString>
        <CharString name="aeacute">
          25 callsubr
          276 -20 hstemhm
          hintmask 10101000
          -61 callgsubr
          hintmask 01011000
          -49 callgsubr
          115 371 -97 callsubr
          endchar
        </CharString>
        <CharString name="agrave">
          -59 callgsubr
          278 -20 -74 callgsubr
          hintmask 10110000
          -103 callsubr
          -176 432 -78 callsubr
        </CharString>
        <CharString name="amacron">
          -59 callgsubr
          83 122 6 -20 -74 callgsubr
          hintmask 10101000
          -103 callsubr
          114 483 rmoveto
          hintmask 10110000
          -88 callgsubr
        </CharString>
        <CharString name="ampersand">
          333 -20 -21 29 110 252 113 44 -20 58 114 hstem
          346 337 rmoveto
          -82 69 -29 40 44 vvcurveto
          35 23 20 40 39 38 -14 -24 27 vhcurveto
          26 hlineto
          50 110 -4 20 rlineto
          0 -64 22 -95 -153 -96 -70 -111 -49 18 -34 58 -60 vhcurveto
          -11 vlineto
          0 -116 -40 -118 vvcurveto
          -113 86 -65 150 55 64 22 39 61 vhcurveto
          -60 67 40 -30 11 hhcurveto
          46 83 71 0 hvcurveto
          17 vlineto
          -134 113 rlineto
          21 31 23 42 45 vvcurveto
          22 -6 23 -11 19 vhcurveto
          2 8 rlineto
          65 hlineto
          38 22 10 26 9 hvcurveto
          23 72 -18 22 rlineto
          -1 -38 -7 -51 -3 vhcurveto
          -203 -12 rlineto
          -55 -3 -31 -14 0 vvcurveto
          26 -93 rlineto
          0 22 6 26 47 21 -20 -47 -20 -3 -21 -5 -21 vhcurveto
          -105 -113 rmoveto
          -9 -25 -25 -4 -27 hhcurveto
          -66 -47 41 58 25 9 27 15 20 hvcurveto
          endchar
        </CharString>
        <CharString name="aogonek">
          86 -241 85 148 136 230 126 hstem
          472 -131 rmoveto
          0 -36 -25 -30 -25 -16 16 24 30 43 67 96 124 vhcurveto
          -19 31 rlineto
          0 -18 -8 -16 -17 -12 14 20 vhcurveto
          28 22 117 32 vvcurveto
          19 -3 17 -7 17 vhcurveto
          60 -24 -66 32 -99 hhcurveto
          -8 -9 -2 -3 -11 hvcurveto
          -65 -17 -115 -61 0 vvcurveto
          25 -80 12 -6 rlineto
          0 63 43 52 51 31 -27 -45 vhcurveto
          -1 vlineto
          -196 -36 rlineto
          -37 -8 -27 -36 -43 vvcurveto
          -95 65 -75 82 23 41 27 47 47 vhcurveto
          12 -5 4 -34 22 -23 38 -10 rlinecurve
          -59 -64 -9 callsubr
          -229 296 rmoveto
          -4 -14 -19 -2 -16 hhcurveto
          -24 -16 21 33 14 4 5 14 3 hvcurveto
          72 16 rlineto
          endchar
        </CharString>
        <CharString name="approxequal">
          98 52 -21 24 41 callsubr
          33 41 callsubr
          24 -20 hstemhm
          hintmask 11000101
          75 231 rmoveto
          0 57 58 31 vhcurveto
          hintmask 11001001
          -37 callsubr
          hintmask 10100011
          -18 callgsubr
          16 -200 rmoveto
          0 57 58 31 vhcurveto
          hintmask 11001001
          -37 callsubr
          hintmask 10011001
          -18 callgsubr
          endchar
        </CharString>
        <CharString name="aring">
          -59 callgsubr
          60 210 -72 72 hstemhm
          271 76 hintmask 10110100
          -88 callsubr
          hintmask 01110100
          -69 callsubr
          hintmask 10101100
          -103 callsubr
          -26 402 -51 callgsubr
          hintmask 10110100
          -7 -70 -58 callgsubr
          endchar
        </CharString>
        <CharString name="aringacute">
          -59 callgsubr
          20 189 -65 65 151 -20 hstemhm
          hintmask 10110100
          -88 callsubr
          hintmask 01110100
          -69 callsubr
          hintmask 10101100
          -103 callsubr
          -13 355 18 callgsubr
          hintmask 10110100
          7 callsubr
          239 -13 callsubr
        </CharString>
        <CharString name="asciicircum">
          62 117 -21 388 -20 hstem
          303 484 rmoveto
          -151 -7 -77 -178 rlineto
          -33 -77 -37 -74 0 vvcurveto
          11 -18 105 -34 rlineto
          0 36 93 32 73 vhcurveto
          39 90 rlineto
          8 hlineto
          49 -102 rlineto
          32 -71 35 -74 0 vvcurveto
          21 -9 92 56 rlineto
          0 -32 66 -34 72 vhcurveto
          -30 69 -51 117 0 vvcurveto
          endchar
        </CharString>
        <CharString name="asciitilde">
          97 172 -21 24 41 callsubr
          24 -20 hstemhm
          hintmask 10101000
          75 151 rmoveto
          0 57 58 31 vhcurveto
          hintmask 11001000
          -37 callsubr
          hintmask 10011000
          -18 callgsubr
          endchar
        </CharString>
        <CharString name="asterisk">
          -44 409 -21 364 -20 hstem
          37 681 rmoveto
          -11 -3 rlineto
          -14 -39 0 -54 0 vvcurveto
          0 57 -14 55 -16 vhcurveto
          9 7 9 49 rlineto
          -61 46 -44 24 0 vvcurveto
          -6 -216 rmoveto
          -1 -12 rlineto
          33 -25 52 -16 0 vvcurveto
          0 30 50 32 48 vhcurveto
          -3 9 -45 24 rlineto
          -62 -44 -36 -34 0 vvcurveto
          203 -72 rmoveto
          11 -5 rlineto
          35 23 31 45 0 vvcurveto
          0 -39 45 -34 45 vhcurveto
          -11 hlineto
          -37 -35 rlineto
          23 -74 21 -44 0 vvcurveto
          132 171 rmoveto
          8 8 rlineto
          -11 40 -33 44 0 vvcurveto
          0 -55 -22 -53 -19 vhcurveto
          -4 -11 22 -46 rlineto
          77 -1 49 7 0 vvcurveto
          -121 178 rmoveto
          -7 10 rlineto
          -42 -52 -16 0 0 6 -59 2 -57 hvcurveto
          8 -5 50 5 rlineto
          24 73 11 49 0 vvcurveto
          endchar
        </CharString>
        <CharString name="at">
          489 -240 91 137 116 263 105 96 105 hstem
          511 -12 rmoveto
          228 144 141 221 200 -144 123 -235 -260 -230 -236 -268 -255 180 -154 299 hvcurveto
          37 64 rlineto
          9 1 9 9 vvcurveto
          -264 -144 124 228 208 149 156 201 1 hvcurveto
          188 115 -98 -160 -119 -67 -87 -92 hvcurveto
          -7 8 rlineto
          21 128 48 209 0 vvcurveto
          -8 23 -134 12 -19 -12 -5 -20 -72 20 rlineto
          -122 -132 -170 -157 -99 56 -58 95 hvcurveto
          41 28 37 47 55 95 rrcurveto
          10 hlineto
          -21 -90 -3 -13 -13 vvcurveto
          -32 22 -22 32 vhcurveto
          -127 155 rmoveto
          -8 -6 27 37 74 22 86 19 36 38 -26 0 hvcurveto
          -95 -26 -53 -103 -22 hhcurveto
          endchar
        </CharString>
        <CharString name="atilde">
          -59 callgsubr
          67 -55 callgsubr
          hintmask 10110010
          -88 callsubr
          hintmask 01110010
          -69 callsubr
          hintmask 10101010
          -103 callsubr
          -157 315 -36 callgsubr
          hintmask 10110010
          -87 callgsubr
          hintmask 10100110
          -80 callsubr
        </CharString>
        <CharString name="b">
          112 -7 113 247 126 263 -20 hstem
          48 565 rmoveto
          -540 vlineto
          10 -13 rlineto
          0 98 -19 94 34 callgsubr
          -11 -39 -27 -32 -45 vhcurveto
          5 179 10 102 16 15 -51 callsubr
          172 -450 rmoveto
          2 229 rlineto
          3 4 12 6 20 hhcurveto
          41 19 -45 -98 18 callsubr
        </CharString>
        <CharString name="b.sups">
          -28 323 81 156 89 91 -20 104 -20 hstem
          40 700 rmoveto
          -355 vlineto
          7 -9 rlineto
          0 71 -13 67 111 66 65 107 99 -46 55 -82 -8 -26 -18 -20 -30 vhcurveto
          4 119 7 65 11 3 callsubr
          128 -291 rmoveto
          1 149 rlineto
          -1 5 3 14 25 10 -27 -66 -44 -9 -19 -19 -17 -12 6 -1 2 vhcurveto
          endchar
        </CharString>
        <CharString name="backslash">
          -79 -89 -21 785 -20 hstem
          -15 655 rmoveto
          0 77 -278 43 -162 vhcurveto
          42 -165 41 -160 0 vvcurveto
          126 hlineto
          11 15 rlineto
          0 -50 169 -39 152 vhcurveto
          -115 449 rlineto
          -119 hlineto
          endchar
        </CharString>
        <CharString name="bar">
          -115 -248 -21 1076 -20 hstem
          194 807 rmoveto
          -114 -11 -1 -520 rlineto
          -1 -179 0 -350 0 vvcurveto
          15 -16 117 11 rlineto
          0 -1 377 172 vvcurveto
          166 6 334 0 vhcurveto
          endchar
        </CharString>
        <CharString name="braceleft">
          -73 -123 114 562 106 hstem
          41 235 rmoveto
          47 -13 25 -24 -36 -39 -53 -73 -57 vvcurveto
          -65 65 -51 84 71 37 23 0 vhcurveto
          14 83 -13 13 rlineto
          0 -15 -5 -16 -34 -21 22 36 vhcurveto
          36 27 68 42 vvcurveto
          43 -25 31 -48 16 vhcurveto
          5 vlineto
          46 12 27 32 41 36 -27 60 32 vvcurveto
          32 18 18 32 15 20 -5 0 vhcurveto
          18 83 -10 16 rlineto
          0 -49 12 -41 -104 -71 -47 -69 vhcurveto
          -54 53 -71 -42 vvcurveto
          -28 -25 -24 -43 -13 vhcurveto
          endchar
        </CharString>
        <CharString name="braceright">
          -73 -123 106 562 114 hstem
          294 311 rmoveto
          -45 8 -27 27 38 37 53 68 54 vvcurveto
          65 -65 51 -84 -71 -37 -23 0 vhcurveto
          -14 -83 13 -13 rlineto
          0 15 5 16 34 21 -22 -36 vhcurveto
          -34 -27 -63 -39 vvcurveto
          -43 25 -31 48 -16 vhcurveto
          -5 vlineto
          -46 -13 -27 -31 -41 -39 27 -65 -34 vvcurveto
          -32 -18 -18 -32 -15 -20 5 0 vhcurveto
          -18 -83 10 -16 rlineto
          0 49 -12 41 104 71 51 75 vhcurveto
          54 -53 71 42 vvcurveto
          29 27 26 41 10 vhcurveto
          endchar
        </CharString>
        <CharString name="bracketleft">
          -82 -106 -21 777 -20 hstem
          315 -127 rmoveto
          8 83 -4 11 -96 17 rlineto
          555 vlineto
          92 17 8 84 -4 10 -254 -11 rlineto
          0 11 -279 -100 vvcurveto
          -100 -11 -276 0 vhcurveto
          endchar
        </CharString>
        <CharString name="bracketright">
          -82 -106 -21 777 -20 hstem
          11 650 rmoveto
          -8 -83 4 -11 96 -17 rlineto
          -555 vlineto
          -92 -17 -8 -84 4 -10 254 11 rlineto
          0 -11 279 100 vvcurveto
          100 11 276 0 vhcurveto
          endchar
        </CharString>
        <CharString name="breve">
          -10 535 43 callsubr
          hstem
          199 670 -100 callsubr
        </CharString>
        <CharString name="breve.cap">
          -10 675 43 callsubr
          hstem
          199 810 -100 callsubr
        </CharString>
        <CharString name="brokenbar">
          -115 -248 -21 1076 -20 hstem
          79 150 rmoveto
          -1 -184 0 -219 0 vvcurveto
          15 -16 117 11 rlineto
          0 -1 221 187 vvcurveto
          -18 17 rlineto
          18 207 rmoveto
          1 174 5 243 0 vvcurveto
          -21 16 -114 -11 rlineto
          -142 -1 -143 -142 vvcurveto
          13 -11 rlineto
          endchar
        </CharString>
        <CharString name="bullet">
          -68 130 -21 265 -20 hstem
          165 109 rmoveto
          83 51 53 86 80 -45 46 -78 -85 -51 -53 -85 -82 44 -45 81 hvcurveto
          endchar
        </CharString>
        <CharString name="c">
          -34 callsubr
          -89 callsubr
          endchar
        </CharString>
        <CharString name="c.sups">
          -83 319 98 91 145 -85 85 hstem
          275 434 rmoveto
          0 -29 -17 -37 -36 -15 29 67 37 10 18 23 18 6 -9 -27 vhcurveto
          -25 vlineto
          68 3 rlineto
          5 62 11 58 0 vvcurveto
          -4 -2 callsubr
          -35 15 -62 -110 -70 -66 -104 -103 59 -61 104 52 65 57 0 vhcurveto
          -16 54 rlineto
          endchar
        </CharString>
        <CharString name="cacute">
          -34 callsubr
          276 -20 -89 callsubr
          47 513 -97 callsubr
          endchar
        </CharString>
        <CharString name="caron">
          -10 536 -21 225 -20 hstem
          18 671 -84 callsubr
        </CharString>
        <CharString name="caron.alt">
          -10 522 -21 258 -20 hstem
          261 759 rmoveto
          -134 2 callsubr
          11 -118 -2 -120 vhcurveto
          19 -6 73 25 rlineto
          26 112 16 109 0 vvcurveto
          endchar
        </CharString>
        <CharString name="caron.cap">
          -10 709 -21 207 -20 hstem
          353 888 -93 callsubr
        </CharString>
        <CharString name="ccaron">
          -34 callsubr
          31 -20 245 -20 -89 callsubr
          -310 525 -84 callsubr
        </CharString>
        <CharString name="ccedilla">
          32 28 callsubr
          414 210 -118 118 hstem
          195 -87 callsubr
          6 30 rlineto
          66 17 71 62 0 vvcurveto
          -22 75 -10 -44 callsubr
          -44 -26 -54 -56 -25 46 102 62 19 31 38 29 11 -16 -42 vhcurveto
          -36 vlineto
          92 5 rlineto
          7 90 16 84 0 vvcurveto
          -5 11 rlineto
          0 -51 22 -87 -157 -101 -100 -154 -141 73 -87 127 -12 vhcurveto
          endchar
        </CharString>
        <CharString name="ccircumflex">
          -34 callsubr
          275 -20 -89 callsubr
          -261 395 -105 callsubr
          endchar
        </CharString>
        <CharString name="cdotaccent">
          -34 callsubr
          59 199 -89 callsubr
          -134 397 rmoveto
          11 callsubr
        </CharString>
        <CharString name="cedilla">
          -10 28 callsubr
          175 -20 hstem
          131 -87 callsubr
          16 73 rlineto
          -61 hlineto
          endchar
        </CharString>
        <CharString name="cent">
          32 -143 -21 289 149 -149 241 292 -20 hstem
          382 151 rmoveto
          0 -44 -26 -54 -56 -25 46 102 62 19 31 38 29 11 -16 -42 vhcurveto
          -36 vlineto
          92 5 rlineto
          7 90 16 84 0 vvcurveto
          -5 11 rlineto
          0 -23 10 -42 6 vhcurveto
          21 171 -6 9 -116 -14 -21 -164 rlineto
          -129 -19 -80 -94 -137 vvcurveto
          -120 54 -82 95 -28 vhcurveto
          -20 -158 8 -6 114 13 18 145 rlineto
          64 18 67 59 0 vvcurveto
          -22 75 rlineto
          endchar
        </CharString>
        <CharString name="circumflex">
          -10 556 -21 225 -20 hstem
          64 542 -105 callsubr
          endchar
        </CharString>
        <CharString name="circumflex.cap">
          -10 722 -21 hstem
          45 708 -91 callsubr
        </CharString>
        <CharString name="colon">
          -170 -9 199 66 32 callsubr
          -9 rmoveto
          -102 callsubr
          265 vmoveto
          11 callsubr
        </CharString>
        <CharString name="comma">
          -170 -101 7 callgsubr
          -25 callsubr
          endchar
        </CharString>
        <CharString name="commaaccent">
          -10 -324 7 callgsubr
          97 -92 -104 callgsubr
          endchar
        </CharString>
        <CharString name="copyright">
          291 -12 59 80 79 -79 137 62 139 -76 76 74 59 hstem
          335 127 rmoveto
          70 60 18 0 hvcurveto
          8 10 rlineto
          -1 50 5 63 0 vvcurveto
          -89 -7 rlineto
          -40 -2 -10 -15 -24 hhcurveto
          -31 -12 30 73 64 8 16 32 25 8 -9 -28 -15 -1 -13 0 hvcurveto
          90 4 rlineto
          3 65 13 48 0 vvcurveto
          -5 11 rlineto
          0 -69 13 -47 -125 -64 -59 -115 -104 57 -60 101 vhcurveto
          -290 166 rmoveto
          -169 136 -136 168 168 137 136 169 168 -137 137 -168 -168 -136 -136 -169 vhcurveto
          60 hmoveto
          136 109 110 135 135 110 -110 -136 -136 -110 -110 -135 -135 -109 110 136 vhcurveto
          endchar
        </CharString>
        <CharString name="currency">
          36 126 -21 65 98 149 98 66 -20 hstem
          62 342 rmoveto
          -22 4 -21 7 -19 vhcurveto
          -77 -66 77 -105 23 -4 rlineto
          0 36 39 34 40 vhcurveto
          -9 21 23 -5 24 hhcurveto
          22 21 4 7 19 hvcurveto
          65 -74 105 77 4 23 rlineto
          0 -38 34 -39 33 vhcurveto
          9 21 5 23 24 vvcurveto
          23 -5 22 -8 21 vhcurveto
          74 64 -77 105 -23 4 rlineto
          0 -35 -40 -34 -39 vhcurveto
          8 -20 -22 5 -23 hhcurveto
          -23 -22 -5 -8 -20 hvcurveto
          -66 77 -105 -77 -4 -23 rlineto
          0 40 -37 40 -35 vhcurveto
          -8 -20 -4 -22 -23 vvcurveto
          98 hmoveto
          41 33 34 41 41 34 -34 -41 -41 -34 -33 -41 -41 -33 33 41 vhcurveto
          endchar
        </CharString>
        <CharString name="d">
          128 11 callgsubr
          307 63 rmoveto
          6 -2 rlineto
          -48 7 39 -25 67 hhcurveto
          65 24 50 97 0 vvcurveto
          -17 27 rlineto
          hintmask 10011000
          0 -15 -8 -15 -13 -9 14 21 302 14 226 21 29 vhcurveto
          -12 -35 callsubr
          -133 -23 -124 -14 vhcurveto
          -9 -87 rlineto
          0 16 2 7 39 9 -11 -48 vhcurveto
          -83 vlineto
          1 -7 -9 0 -14 hhcurveto
          -158 -98 -99 -159 -145 68 -83 119 10 38 25 45 58 hvcurveto
          -7 66 rmoveto
          0 -13 -10 -25 -41 -19 45 98 vhcurveto
          hintmask 10101000
          -8 callsubr
        </CharString>
        <CharString name="d.sups">
          -18 322 90 -72 -21 93 157 0 80 0 88 87 -20 hstemhm
          hintmask 01101100
          218 369 rmoveto
          4 -1 rlineto
          -32 5 27 -17 48 hhcurveto
          46 17 36 68 -10 callgsubr
          19 rlineto
          0 -10 -4 -8 -8 -6 9 13 204 10 144 15 20 vhcurveto
          -9 15 rlineto
          0 -96 -16 -91 -9 vhcurveto
          -6 -63 rlineto
          0 11 1 4 28 6 -7 -33 vhcurveto
          -48 -17 vlineto
          -111 -66 -64 -108 hvcurveto
          hintmask 10010100
          -99 46 -56 82 7 26 17 30 39 vhcurveto
          -6 46 rmoveto
          0 -4 -3 -16 -25 -10 28 35 callsubr
        </CharString>
        <CharString name="dagger">
          127 -71 -21 397 124 164 40 callgsubr
          -159 30 callgsubr
          -387 10 -9 122 7 -1 390 rlineto
          155 hlineto
          11 113 -10 14 -154 -5 3 156 rlineto
          endchar
        </CharString>
        <CharString name="daggerdbl">
          127 -71 -21 160 124 119 124 158 40 callgsubr
          -153 30 callgsubr
          -120 -151 1 -11 -114 9 -10 rlineto
          153 -150 hlineto
          10 -9 122 7 -1 153 rlineto
          155 hlineto
          11 113 -10 14 -156 -5 rlineto
          121 155 vlineto
          11 113 -10 14 -154 -5 3 150 rlineto
          endchar
        </CharString>
        <CharString name="dcaron">
          260 11 callgsubr
          664 693 rmoveto
          -134 2 callsubr
          11 -118 -2 -120 vhcurveto
          19 -6 73 25 rlineto
          26 112 16 109 0 vvcurveto
          -366 -618 rmoveto
          6 -2 rlineto
          -48 7 39 -25 67 hhcurveto
          65 24 50 97 0 vvcurveto
          -17 27 rlineto
          hintmask 10011000
          0 -15 -8 -15 -13 -9 14 21 302 14 226 21 29 vhcurveto
          -12 -35 callsubr
          -133 -23 -124 -14 vhcurveto
          -9 -87 rlineto
          0 16 2 7 39 9 -11 -48 vhcurveto
          -83 vlineto
          1 -7 -9 0 -14 hhcurveto
          -158 -98 -99 -159 -145 68 -83 119 10 38 25 45 58 hvcurveto
          -7 66 rmoveto
          0 -13 -10 -25 -41 -19 45 98 vhcurveto
          hintmask 10101000
          -8 callsubr
        </CharString>
        <CharString name="dcroat">
          128 -7 135 -119 -21 378 113 29 67 0 45 122 -20 hstemhm
          hintmask 01110100
          307 63 rmoveto
          6 -2 rlineto
          -48 7 39 -25 67 hhcurveto
          65 24 50 97 0 vvcurveto
          -17 27 rlineto
          hintmask 10101100
          0 -15 -8 -15 -13 -9 14 21 134 2 119 5 93 vhcurveto
          73 1 5 55 -15 15 -58 -2 6 78 8 51 9 13 rlinecurve
          -12 -35 callsubr
          -133 -23 -124 -14 vhcurveto
          -9 -87 rlineto
          0 16 2 7 34 11 -9 -36 2 vhcurveto
          -97 1 -8 -58 rlineto
          hintmask 10110100
          11 -10 rlineto
          95 -30 hlineto
          1 -7 -9 0 -14 hhcurveto
          -158 -98 -99 -159 -145 68 -83 119 10 38 25 45 58 hvcurveto
          -7 66 rmoveto
          0 -13 -10 -25 -41 -19 45 98 -8 callsubr
        </CharString>
        <CharString name="degree">
          -106 389 75 120 75 hstem
          16 524 rmoveto
          -75 60 -60 75 75 60 60 75 75 -60 60 -75 -75 -60 -60 -75 vhcurveto
          75 hmoveto
          35 24 25 36 35 25 -25 -35 -36 -25 -24 -35 -36 -24 24 36 vhcurveto
          endchar
        </CharString>
        <CharString name="dieresis">
          -10 559 167 hstem
          292 559 -104 callsubr
        </CharString>
        <CharString name="dieresis.cap">
          -10 685 167 hstem
          292 685 -104 callsubr
        </CharString>
        <CharString name="divide">
          98 -17 171 23 146 21 171 hstem
          483 329 rmoveto
          -29 callgsubr
          9 -13 rlineto
          -23 callsubr
          -245 -331 rmoveto
          23 callsubr
          361 vmoveto
          23 callsubr
          endchar
        </CharString>
        <CharString name="dollar">
          66 -143 -21 559 116 147 -20 hstem
          126 -164 rmoveto
          114 13 18 146 rlineto
          126 14 74 57 89 vvcurveto
          89 -74 35 -66 25 vhcurveto
          -54 20 -50 13 30 vvcurveto
          17 19 11 27 34 22 -18 -33 vhcurveto
          -8 vlineto
          11 -7 104 7 rlineto
          7 70 16 66 0 vvcurveto
          -11 19 rlineto
          0 -49 15 -71 5 vhcurveto
          18 138 -6 9 -116 -14 -18 -137 rlineto
          -114 -19 -70 -60 -85 vvcurveto
          -83 63 -37 63 -26 vhcurveto
          59 -24 58 -14 -31 vvcurveto
          -14 -17 -9 -30 -42 -26 24 46 vhcurveto
          -113 -8 rlineto
          -3 -47 -16 -80 0 vvcurveto
          11 -15 rlineto
          0 44 -22 69 -8 vhcurveto
          -19 -153 rlineto
          endchar
        </CharString>
        <CharString name="dotaccent">
          -10 543 199 hstem
          195 -30 callgsubr
          endchar
        </CharString>
        <CharString name="dotaccent.cap">
          -10 683 199 hstem
          195 683 rmoveto
          11 callsubr
        </CharString>
        <CharString name="dotbelowcomb">
          -170 -232 32 callsubr
          -232 rmoveto
          11 callsubr
        </CharString>
        <CharString name="dotlessi">
          -11 callgsubr
          494 -33 callsubr
          7 -10 rmoveto
          hintmask 10100000
          -106 callsubr
          endchar
        </CharString>
        <CharString name="dotlessj">
          -107 -227 -21 732 -20 hstem
          45 -248 -76 callsubr
          endchar
        </CharString>
        <CharString name="e">
          -46 callgsubr
          hstem
          -103 callgsubr
          endchar
        </CharString>
        <CharString name="e.sups">
          -55 319 93 50 191 -80 80 hstemhm
          hintmask 11000000
          318 462 rmoveto
          8 6 rlineto
          0 5 23 23 vvcurveto
          93 -44 46 -90 -110 -69 -65 -105 -106 61 -58 111 62 74 55 0 vhcurveto
          -16 54 -7 4 rlineto
          0 -37 -20 -44 -37 -20 12 38 -7 vhcurveto
          -4 54 rmoveto
          hintmask 10100000
          42 -1 7 15 26 hhcurveto
          16 8 -13 -29 -9 -1 -1 -6 -1 hvcurveto
          endchar
        </CharString>
        <CharString name="eacute">
          -46 callgsubr
          276 -20 hstem
          -103 callgsubr
          231 451 -97 callsubr
          endchar
        </CharString>
        <CharString name="ebreve">
          -46 callgsubr
          51 43 callsubr
          hstem
          -103 callgsubr
          53 462 -100 callsubr
        </CharString>
        <CharString name="ecaron">
          -46 callgsubr
          31 -20 245 -20 hstem
          -103 callgsubr
          -126 463 -84 callsubr
        </CharString>
        <CharString name="ecircumflex">
          -46 callgsubr
          275 -20 hstem
          -103 callgsubr
          -77 333 -105 callsubr
          endchar
        </CharString>
        <CharString name="edieresis">
          -46 callgsubr
          75 167 hstem
          -103 callgsubr
          148 351 -104 callsubr
        </CharString>
        <CharString name="edotaccent">
          -46 callgsubr
          59 199 hstem
          -103 callgsubr
          50 335 rmoveto
          11 callsubr
        </CharString>
        <CharString name="egrave">
          -46 callgsubr
          276 -20 hstem
          -103 callgsubr
          -90 434 -78 callsubr
        </CharString>
        <CharString name="eight">
          -65 callgsubr
        </CharString>
        <CharString name="eight.dnom">
          -62 -8 37 callsubr
          93 -92 callsubr
        </CharString>
        <CharString name="eight.lf">
          -65 callgsubr
        </CharString>
        <CharString name="eight.numr">
          -62 246 37 callsubr
          347 -92 callsubr
        </CharString>
        <CharString name="eight.sinf">
          -62 -128 37 callsubr
          -27 -92 callsubr
        </CharString>
        <CharString name="eight.sups">
          -62 319 37 callsubr
          420 -92 callsubr
        </CharString>
        <CharString name="eight.tf">
          52 -12 108 387 116 hstem
          16 137 rmoveto
          -86 83 -63 116 128 95 83 112 73 -38 42 -46 29 vhcurveto
          38 21 40 38 66 vvcurveto
          82 -84 65 -105 -124 -96 -77 -100 -74 37 -47 46 -35 vhcurveto
          -43 -19 -47 -38 -72 vvcurveto
          207 -41 rmoveto
          -35 -25 28 41 24 6 18 11 15 hvcurveto
          50 -27 43 -20 -32 vvcurveto
          -30 -17 -17 -33 vhcurveto
          -34 345 rmoveto
          25 17 17 28 30 19 -21 -35 -24 -7 -18 -9 -15 vhcurveto
          -43 20 -35 18 33 vvcurveto
          endchar
        </CharString>
        <CharString name="eight.tosf">
          42 -12 108 387 116 hstem
          13 137 rmoveto
          -86 82 -63 115 127 94 83 112 73 -38 42 -44 29 vhcurveto
          37 21 39 38 66 vvcurveto
          82 -83 65 -104 -123 -95 -77 -100 -74 36 -47 45 -35 vhcurveto
          -43 -19 -45 -38 -72 vvcurveto
          205 -41 rmoveto
          -34 -24 28 41 24 5 18 10 15 hvcurveto
          49 -27 42 -20 -32 vvcurveto
          -30 -17 -17 -31 vhcurveto
          -32 345 rmoveto
          25 16 17 27 30 18 -21 -35 -24 -7 -18 -8 -15 vhcurveto
          -43 20 -33 18 33 vvcurveto
          endchar
        </CharString>
        <CharString name="ellipsis">
          290 -9 199 hstem
          345 -9 rmoveto
          -102 callsubr
          230 hmoveto
          -102 callsubr
          -460 hmoveto
          11 callsubr
        </CharString>
        <CharString name="emacron">
          -46 callgsubr
          81 33 callgsubr
          hintmask 11101000
          -103 callgsubr
          200 485 rmoveto
          hintmask 11110000
          -88 callgsubr
        </CharString>
        <CharString name="emdash">
          422 199 123 -103 -21 126 -33 callsubr
          833 324 rmoveto
          hintmask 10000000
          -3 -31 -263 1 -133 hhcurveto
          -407 hlineto
          -11 -105 rlineto
          hintmask 01100000
          11 -19 rlineto
          hintmask 10000000
          277 275 1 278 hhcurveto
          14 106 rlineto
          endchar
        </CharString>
        <CharString name="endash">
          40 199 123 -103 -21 126 -33 callsubr
          451 324 -21 callsubr
        </CharString>
        <CharString name="eng">
          157 -143 -21 164 82 257 145 hstem
          367 484 rmoveto
          -17 -39 -32 -57 -52 hvcurveto
          -7 4 rlineto
          3 34 9 39 -66 callsubr
          39 9 -11 -47 hvcurveto
          -173 vlineto
          -38 -12 -12 -39 -2 vhcurveto
          -12 -87 rlineto
          0 79 5 63 42 80 46 callsubr
          86 -36 callsubr
          -12 -1 -4 -19 -5 7 25 11 3 47 9 142 vhcurveto
          14 18 15 7 12 hhcurveto
          33 11 -17 -51 -1 hvcurveto
          -141 vlineto
          -2 -128 -20 -40 -90 -63 -2 -15 rcurveline
          40 -48 164 42 62 67 13 144 rlinecurve
          21 265 rlineto
          85 -58 45 -108 vhcurveto
          endchar
        </CharString>
        <CharString name="eogonek">
          71 -241 85 144 131 89 79 86 111 hstem
          444 -131 rmoveto
          0 -36 -25 -30 -25 -16 16 25 34 27 38 87 112 vhcurveto
          -22 74 -9 -44 callsubr
          -54 -29 -64 -58 -32 24 63 -9 vhcurveto
          2 237 vlineto
          11 10 rlineto
          0 8 33 33 vvcurveto
          134 -63 66 -127 -155 -100 -100 -154 -155 88 -87 157 19 19 4 6 20 vhcurveto
          -58 -65 -23 -42 -43 -58 callsubr
          -271 454 rmoveto
          64 15 25 40 27 13 -21 -44 -14 -2 -3 -10 -1 vhcurveto
          endchar
        </CharString>
        <CharString name="equal">
          98 77 146 -126 -21 201 146 6 -27 callsubr
          483 229 rmoveto
          -29 callgsubr
          rlineto
          hintmask 01100000
          9 -13 rlineto
          hintmask 10010000
          -23 callsubr
          -7 215 rmoveto
          hintmask 10100000
          -29 callgsubr
          9 -13 rlineto
          -23 callsubr
          endchar
        </CharString>
        <CharString name="estimated">
          389 9 -21 663 -20 hstem
          180 311 rmoveto
          597 8 hlineto
          184 -165 148 -203 -203 -166 -148 -184 -183 166 -148 203 118 107 51 78 67 vhcurveto
          -54 hlineto
          -67 -57 -85 -42 -95 hhcurveto
          -89 -81 37 60 -56 hvcurveto
          -5 6 -4 7 8 vvcurveto
          181 vlineto
          3 2 1 3 vhcurveto
          463 205 rmoveto
          -182 vlineto
          -3 -2 -2 -3 vhcurveto
          -458 hlineto
          -3 -2 2 3 hvcurveto
          178 vlineto
          9 4 8 6 6 vhcurveto
          59 57 79 37 89 hhcurveto
          87 79 -36 -57 57 hvcurveto
          6 -6 4 -7 -9 vvcurveto
          endchar
        </CharString>
        <CharString name="eth">
          100 -12 107 254 124 269 -20 hstem
          373 742 rmoveto
          -144 -74 -43 27 -48 25 -52 22 rlinecurve
          -16 -8 -51 -81 28 -19 26 -17 23 -17 rlinecurve
          -79 -41 31 -94 10 -2 125 64 23 -22 19 -22 15 -23 rlinecurve
          -4 -9 -40 22 rlineto
          16 callsubr
          124 -62 119 -111 98 hvcurveto
          91 46 -31 93 rlineto
          -81 -536 -8 callgsubr
        </CharString>
        <CharString name="exclam">
          -124 -9 199 527 -20 hstem
          132 -9 rmoveto
          -102 callsubr
          -54 274 rmoveto
          21 -20 103 16 73 430 -25 26 -188 -26 -18 -24 rlineto
          endchar
        </CharString>
        <CharString name="exclamdown">
          -124 -221 -21 527 199 hstem
          152 484 rmoveto
          -62 -39 -40 -64 -60 34 -35 59 63 39 40 64 61 -33 34 -61 hvcurveto
          54 -274 rmoveto
          -21 20 -103 -16 -73 -430 25 -26 188 26 18 24 rlineto
          endchar
        </CharString>
        <CharString name="f">
          -53 -17 callgsubr
          hintmask 01110000
          10 366 rmoveto
          20 callsubr
          rrcurveto
          -48 callgsubr
          hintmask 10110000
          0 callgsubr
          1 236 rlineto
          -16 callsubr
          42 vlineto
          99 15 24 62 55 39 -39 -10 callsubr
          -47 23 -70 -167 -108 -108 -169 vhcurveto
          -14 vlineto
          43 callgsubr
          rlineto
          endchar
        </CharString>
        <CharString name="f.f">
          -53 13 -21 29 -21 365 86 145 44 callgsubr
          80 25 23 62 79 55 -59 0 vhcurveto
          14 4 rlineto
          25 61 24 54 0 vvcurveto
          -7 23 rlineto
          0 -67 43 -100 -184 -101 -107 -164 vhcurveto
          27 callsubr
          20 callsubr
          -21 callgsubr
          0 63 5 54 2 vhcurveto
          hintmask 01110000
          1 14 13 0 11 hhcurveto
          48 119 -5 0 hvcurveto
          12 94 -5 -44 callsubr
          -37 -2 -25 -21 -10 12 25 vhcurveto
          79 1 78 79 vvcurveto
          212 hlineto
          11 79 -5 7 rlineto
          -217 hlineto
          endchar
        </CharString>
        <CharString name="f.l">
          -53 -17 callgsubr
          hintmask 01110000
          252 493 rmoveto
          99 15 24 62 67 47 -49 -10 callsubr
          -55 33 -82 -176 -99 -114 -177 vhcurveto
          27 callsubr
          20 callsubr
          -21 callgsubr
          hintmask 10110000
          -42 callsubr
          78 79 vvcurveto
          -16 callsubr
          endchar
        </CharString>
        <CharString name="f.sups">
          -141 327 66 -51 -21 247 61 105 90 hstemhm
          hintmask 01110000
          14 569 rmoveto
          36 -2 9 -4 1 -21 rrcurveto
          -122 vlineto
          -25 -9 -8 -28 -3 vhcurveto
          -6 -63 rlineto
          -1 callsubr
          71 6 40 33 86 -57 callgsubr
          8 68 -3 3 rlineto
          0 -27 -1 -16 -14 -6 8 15 vhcurveto
          152 vlineto
          49 27 -2 0 hvcurveto
          8 60 -4 -44 callsubr
          -29 -2 -50 vhcurveto
          28 vlineto
          64 8 13 42 37 26 -27 0 vhcurveto
          10 3 rlineto
          14 43 13 39 0 vvcurveto
          -5 16 rlineto
          0 -32 16 -49 -117 -77 -72 -113 vhcurveto
          -10 vlineto
          -43 -6 -6 -50 rlineto
          endchar
        </CharString>
        <CharString name="f.t">
          -53 -17 callgsubr
          hintmask 01110000
          10 366 rmoveto
          20 callsubr
          rrcurveto
          -48 callgsubr
          hintmask 10110000
          -42 callsubr
          78 79 vvcurveto
          212 hlineto
          11 79 -5 7 rlineto
          -217 hlineto
          134 5 31 72 55 39 -39 -10 callsubr
          -47 23 -70 -176 -99 -114 -177 vhcurveto
          43 callgsubr
          rlineto
          endchar
        </CharString>
        <CharString name="fi">
          253 0 92 -81 -21 377 85 164 44 callgsubr
          99 19 24 78 61 43 -49 0 vhcurveto
          14 4 rlineto
          23 66 21 59 0 vvcurveto
          -7 23 rlineto
          16 -40 -48 7 -44 hhcurveto
          -192 -103 -114 -177 hvcurveto
          27 callsubr
          54 -3 10 -7 3 -30 -21 callgsubr
          -42 callsubr
          80 79 vvcurveto
          133 hlineto
          39 9 -11 -47 hvcurveto
          -171 vlineto
          -37 -16 -19 -37 -3 vhcurveto
          hintmask 01110000
          -12 -89 rlineto
          -1 callsubr
          84 10 57 46 89 46 callsubr
          -26 callgsubr
          -14 -2 -9 -19 -6 7 23 201 8 117 16 30 vhcurveto
          -13 22 rlineto
          -28 -158 -48 -4 -157 hhcurveto
          endchar
        </CharString>
        <CharString name="five">
          15 -95 4 callsubr
          404 133 rmoveto
          90 -65 46 -169 29 vhcurveto
          8 50 rlineto
          100 79 23 callgsubr
          -198 -6 -8 30 callsubr
          123 -12 44 -18 -39 vvcurveto
          -33 -47 -23 -65 -33 -32 5 13 -27 45 callsubr
          165 156 111 117 hvcurveto
          endchar
        </CharString>
        <CharString name="five.dnom">
          -86 -8 5 callsubr
          132 -86 callgsubr
        </CharString>
        <CharString name="five.lf">
          28 -12 4 callsubr
          411 198 rmoveto
          100 -64 51 -167 30 vhcurveto
          4 52 rlineto
          100 89 23 callgsubr
          -208 -6 -8 -8 rlineto
          0 -6 -154 -13 -147 vhcurveto
          9 -11 rlineto
          118 -13 46 -17 -36 vvcurveto
          -34 -38 -23 -61 -37 -30 6 12 -25 45 callsubr
          158 150 102 108 hvcurveto
          endchar
        </CharString>
        <CharString name="five.numr">
          -86 246 5 callsubr
          386 -86 callgsubr
        </CharString>
        <CharString name="five.sinf">
          -86 -128 5 callsubr
          12 -86 callgsubr
        </CharString>
        <CharString name="five.sups">
          -86 319 5 callsubr
          459 -86 callgsubr
        </CharString>
        <CharString name="five.tf">
          52 -12 4 callsubr
          428 198 rmoveto
          100 -68 51 -173 30 vhcurveto
          4 52 rlineto
          105 94 -8 0 hvcurveto
          18 19 30 179 -79 -5 -10 -30 -16 -9 -39 -1 rlinecurve
          -215 -6 -8 -8 rlineto
          0 -6 -154 -14 -147 vhcurveto
          10 -11 rlineto
          124 -13 49 -17 -36 vvcurveto
          -34 -42 -23 -65 -38 -31 6 12 -26 vhcurveto
          -22 -23 rlineto
          -99 7 26 -35 68 hhcurveto
          161 156 102 108 hvcurveto
          endchar
        </CharString>
        <CharString name="five.tosf">
          42 -95 4 callsubr
          422 133 rmoveto
          90 -70 46 -173 29 vhcurveto
          8 50 rlineto
          105 83 -8 0 hvcurveto
          19 19 30 179 -79 -5 -10 -30 -16 -9 -39 -1 rlinecurve
          -205 -6 -9 30 callsubr
          130 -12 46 -18 -39 vvcurveto
          -33 -51 -23 -70 -34 -33 5 13 -28 vhcurveto
          -21 -23 rlineto
          -99 7 25 -35 68 hhcurveto
          168 163 111 117 hvcurveto
          endchar
        </CharString>
        <CharString name="fj">
          251 -227 -21 248 92 275 85 164 126 hstem
          628 462 rmoveto
          -13 22 rlineto
          -27 -157 -52 -5 -154 hhcurveto
          133 6 31 91 61 43 -49 0 vhcurveto
          14 4 rlineto
          23 66 21 59 0 vvcurveto
          -7 23 rlineto
          0 -24 10 -39 7 vhcurveto
          3 -20 -23 3 -26 hhcurveto
          -189 -106 -114 -177 hvcurveto
          27 callsubr
          20 callsubr
          -21 callgsubr
          0 callgsubr
          79 1 80 79 vvcurveto
          133 hlineto
          38 10 -12 -46 hvcurveto
          -276 vlineto
          -119 -16 -48 -57 -56 vhcurveto
          -2 -15 47 -43 rlineto
          121 51 78 91 92 vvcurveto
          289 8 148 17 39 vhcurveto
          endchar
        </CharString>
        <CharString name="fl">
          234 -17 callgsubr
          hintmask 10110000
          251 365 rmoveto
          -16 callsubr
          42 vlineto
          99 15 24 62 26 28 -10 -18 27 vhcurveto
          1 -23 rlineto
          -432 vlineto
          -36 -9 -12 -33 -4 vhcurveto
          -11 -86 rlineto
          8 callgsubr
          371 12 209 23 22 vhcurveto
          -9 26 rlineto
          0 -67 -10 -79 -10 vhcurveto
          12 -30 -44 8 -37 hhcurveto
          -167 -108 -108 -169 hvcurveto
          -14 vlineto
          27 callsubr
          54 -3 10 -7 3 -30 rlinecurve
          -192 vlineto
          -37 -14 -14 -40 -4 vhcurveto
          hintmask 01110000
          -9 -87 rlineto
          hintmask 10110000
          0 callgsubr
          endchar
        </CharString>
        <CharString name="florin">
          45 -164 106 350 77 121 -13 callgsubr
          75 69 47 72 41 vhcurveto
          24 41 14 50 3 53 9 193 rcurveline
          114 hlineto
          10 69 -5 8 rlineto
          -114 hlineto
          4 43 rlineto
          56 4 15 22 39 10 callsubr
          -93 -100 -59 -72 -48 vhcurveto
          -18 -27 -10 -28 -28 vvcurveto
          -14 vlineto
          -83 -13 -8 -59 3 -6 rlineto
          65 18 -9 -32 2 hvcurveto
          -68 1 -69 -68 vvcurveto
          endchar
        </CharString>
        <CharString name="foundryicon">
          375 -59 152 52 157 42 180 -87 87 hstemhm
          hintmask 11100000
          328 344 rmoveto
          45 33 -31 -42 hvcurveto
          -178 -74 136 vlineto
          38 -14 18 -29 -18 -6 -3 -9 vhcurveto
          -180 -74 vlineto
          hintmask 11010000
          344 74 -116 vlineto
          -6 2 -3 4 3 3 2 2 3 vhcurveto
          hintmask 11100000
          155 4 rmoveto
          89 56 rlineto
          21 -28 hlineto
          -6 4 -4 6 vhcurveto
          58 -36 -58 hlineto
          -7 -3 -4 -6 hvcurveto
          -90 vlineto
          -40 12 -17 29 8 9 1 3 9 vhcurveto
          -25 vlineto
          -63 -37 rlineto
          -45 -33 31 42 hvcurveto
          132 vlineto
          7 -3 3 -7 vhcurveto
          -26 hlineto
          -255 -361 rmoveto
          423 hlineto
          52 28 28 52 hvcurveto
          423 vlineto
          52 -28 28 -52 vhcurveto
          -423 hlineto
          -52 -28 -28 -52 hvcurveto
          -423 vlineto
          -52 28 -28 52 vhcurveto
          endchar
        </CharString>
        <CharString name="four">
          82 -74 -21 147 121 340 -20 22 42 callgsubr
          55 vmoveto
          66 86 -1 -2 80 hvcurveto
          -2 -66 -4 -69 -17 callsubr
          56 -2 63 vhcurveto
          41 -1 27 6 callsubr
          -69 330 hlineto
          -140 4 callgsubr
          -254 -358 38 callsubr
          222 245 rmoveto
          11 -127 -97 hlineto
          endchar
        </CharString>
        <CharString name="four.dnom">
          -43 13 31 callsubr
          85 rmoveto
          155 -2 rlineto
          -1 -43 -3 -40 0 vvcurveto
          7 -8 121 8 9 -2 callsubr
          -3 32 -1 39 vhcurveto
          44 -1 8 81 -8 10 rlineto
          -45 223 hlineto
          -106 9 -7 -2 -169 -242 rlineto
          147 93 rmoveto
          8 -81 -59 hlineto
          endchar
        </CharString>
        <CharString name="four.lf">
          86 9 -21 142 121 345 -20 22 42 callgsubr
          -2 133 rmoveto
          65 83 -1 -2 79 hvcurveto
          -2 -65 -4 -65 -17 callsubr
          53 -2 61 vhcurveto
          41 -1 27 6 callsubr
          -69 335 hlineto
          -140 4 callgsubr
          -249 -363 38 callsubr
          217 250 rmoveto
          11 -132 -95 hlineto
          endchar
        </CharString>
        <CharString name="four.numr">
          -43 267 -21 92 85 81 -20 171 -20 hstem
          8 339 rmoveto
          155 -2 rlineto
          -1 -43 -3 -40 0 vvcurveto
          7 -8 121 8 9 -2 callsubr
          -3 32 -1 39 vhcurveto
          44 -1 8 81 -8 10 rlineto
          -45 223 hlineto
          -106 9 -7 -2 -169 -242 rlineto
          147 93 rmoveto
          8 -81 -59 hlineto
          endchar
        </CharString>
        <CharString name="four.sinf">
          -43 -107 31 callsubr
          -35 rmoveto
          155 -2 rlineto
          -1 -43 -3 -40 0 vvcurveto
          7 -8 121 8 9 -2 callsubr
          -3 32 -1 39 vhcurveto
          44 -1 8 81 -8 10 rlineto
          -45 223 hlineto
          -106 9 -7 -2 -169 -242 rlineto
          147 93 rmoveto
          8 -81 -59 hlineto
          endchar
        </CharString>
        <CharString name="four.sups">
          -43 340 31 callsubr
          412 rmoveto
          155 -2 rlineto
          -1 -43 -3 -40 0 vvcurveto
          7 -8 121 8 9 -2 callsubr
          -3 32 -1 39 vhcurveto
          44 -1 8 81 -8 10 rlineto
          -45 223 hlineto
          -106 9 -7 -2 -169 -242 rlineto
          147 93 rmoveto
          8 -81 -59 hlineto
          endchar
        </CharString>
        <CharString name="four.tf">
          52 9 -21 142 121 345 -20 22 42 callgsubr
          -9 133 rmoveto
          61 78 -1 -2 75 hvcurveto
          -2 -65 -4 -65 -17 callsubr
          53 -2 61 vhcurveto
          38 -1 24 6 callsubr
          -63 335 hlineto
          -142 4 callgsubr
          -234 -363 38 callsubr
          204 250 rmoveto
          11 -132 -83 hlineto
          endchar
        </CharString>
        <CharString name="four.tosf">
          42 -74 -21 147 121 340 -20 22 42 callgsubr
          -9 55 rmoveto
          61 81 -1 -2 76 hvcurveto
          -2 -66 -4 -69 -17 callsubr
          56 -2 63 vhcurveto
          38 -1 24 6 callsubr
          -63 330 hlineto
          -142 4 callgsubr
          -238 -358 38 callsubr
          208 245 rmoveto
          11 -127 -85 hlineto
          endchar
        </CharString>
        <CharString name="fraction">
          -221 -70 -21 770 -20 hstem
          349 647 -82 callsubr
          endchar
        </CharString>
        <CharString name="franc">
          89 -1 90 -75 -21 28 -21 125 64 29 96 115 75 9 -20 hstemhm
          hintmask 10011010
          268 125 rmoveto
          110 hlineto
          3 60 -5 6 rlineto
          0 -53 -2 -53 vhcurveto
          1 25 rlineto
          1 21 20 3 21 hhcurveto
          36 61 -2 0 hvcurveto
          9 90 -11 12 rlineto
          0 -63 -4 -24 vhcurveto
          -22 -22 1 -22 hhcurveto
          3 67 rlineto
          15 1 5 4 19 hhcurveto
          44 14 -8 -22 -9 -2 -18 0 hvcurveto
          125 7 rlineto
          3 67 11 82 -10 callgsubr
          13 rlineto
          hintmask 01011100
          -5 -49 -105 -4 -82 hhcurveto
          -57 hlineto
          -71 1 -75 1 0 vvcurveto
          -8 -66 11 -12 rlineto
          0 12 1 9 17 4 -8 -34 vhcurveto
          -1 -198 rlineto
          -58 hlineto
          -8 -59 6 -5 rlineto
          59 hlineto
          -4 -38 -10 -13 -37 -4 -8 -77 rcurveline
          hintmask 10011100
          0 45 4 61 2 vhcurveto
          hintmask 00111100
          1 20 23 0 23 hhcurveto
          38 109 -2 0 hvcurveto
          11 82 -15 16 rlineto
          hintmask 10011100
          0 -17 -7 -26 -26 -8 7 29 -1 vhcurveto
          endchar
        </CharString>
        <CharString name="g">
          -22 callgsubr
          58 -20 hstemhm
          hintmask 11011000
          -71 callgsubr
          hintmask 11101000
          -97 callgsubr
          endchar
        </CharString>
        <CharString name="g.sups">
          -28 165 75 170 66 106 73 -6 -20 46 -20 hstemhm
          hintmask 11011000
          184 410 rmoveto
          100 66 47 73 24 -8 21 -19 18 hvcurveto
          3 5 rlineto
          21 -1 18 2 0 vvcurveto
          10 72 -6 4 rlineto
          0 -67 -24 -33 -2 vhcurveto
          -25 -18 6 -32 hhcurveto
          -102 -63 -48 -79 -43 19 -32 35 -20 hvcurveto
          -8 vlineto
          0 -38 -27 -20 -22 vhcurveto
          -38 25 -26 43 -7 vhcurveto
          -5 vlineto
          0 -54 -23 -16 -10 vhcurveto
          -60 61 -42 88 103 97 64 68 vhcurveto
          133 -239 -73 43 vvcurveto
          5 3 5 1 3 vhcurveto
          -2 14 16 -1 17 hhcurveto
          7 66 rmoveto
          -21 1 -7 14 35 vvcurveto
          hintmask 11100000
          39 7 17 16 24 8 -15 -36 -39 -8 -16 -19 vhcurveto
          5 -236 rmoveto
          -24 -18 11 16 13 2 11 0 hvcurveto
          86 -12 4 -1 -14 vvcurveto
          -14 -21 -10 -29 vhcurveto
          endchar
        </CharString>
        <CharString name="gbreve">
          -22 callgsubr
          78 29 callgsubr
          hintmask 11011100
          -71 callgsubr
          hintmask 11101100
          -97 callgsubr
          -3 808 -100 callsubr
        </CharString>
        <CharString name="gcircumflex">
          -22 callgsubr
          302 -20 hstemhm
          hintmask 11011000
          -71 callgsubr
          hintmask 11101000
          -97 callgsubr
          -133 679 -105 callsubr
          endchar
        </CharString>
        <CharString name="gcommaaccent">
          112 -242 104 219 43 93 167 0 102 -9 -20 379 -20 hstemhm
          hintmask 11101100
          -71 callgsubr
          hintmask 11010100
          -35 -27 9 -46 hhcurveto
          -142 -90 -73 -115 -63 27 -49 50 -29 hvcurveto
          -10 vlineto
          0 -55 -40 -29 -32 vhcurveto
          -56 37 -39 63 -11 vhcurveto
          -7 vlineto
          0 -77 -35 -24 -19 vhcurveto
          -89 85 -61 124 146 138 95 100 94 -67 32 -205 2 vhcurveto
          -47 -25 9 17 7 3 8 7 8 hvcurveto
          -4 20 22 -2 24 hhcurveto
          hintmask 11101100
          12 93 rmoveto
          -34 1 -15 25 55 vvcurveto
          59 13 27 28 38 16 -25 -57 -60 -14 -25 -32 vhcurveto
          7 -355 rmoveto
          -39 -28 19 27 23 10 19 0 hvcurveto
          132 -20 5 -2 -22 vvcurveto
          -25 -35 -19 -45 vhcurveto
          92 721 -63 callsubr
          endchar
        </CharString>
        <CharString name="gdotaccent">
          -22 callgsubr
          86 199 hstemhm
          hintmask 11011000
          -71 callgsubr
          hintmask 11101000
          -97 callgsubr
          -6 681 rmoveto
          11 callsubr
        </CharString>
        <CharString name="germandbls">
          284 -12 104 -104 118 -106 92 524 126 hstemhm
          403 79 hintmask 10011000
          317 53 rmoveto
          -37 16 65 -28 71 hhcurveto
          130 93 74 103 hvcurveto
          166 -210 -10 78 59 96 36 86 vvcurveto
          102 -84 60 -142 -172 -103 -109 -182 vhcurveto
          27 callsubr
          54 -3 10 -7 3 -30 -21 callgsubr
          hintmask 00111000
          2 117 6 38 42 85 -5 0 vhcurveto
          12 94 -5 -44 callsubr
          -10 -2 -16 -18 -9 12 25 vhcurveto
          2 364 rlineto
          98 16 25 63 41 31 -29 -40 vhcurveto
          -68 -96 -33 -88 -150 200 11 -75 vvcurveto
          hintmask 01011000
          -24 -15 -14 -26 -37 -31 35 47 -5 vhcurveto
          -27 2 -23 -31 -23 -66 -3 -40 rlinecurve
          endchar
        </CharString>
        <CharString name="grave">
          -10 546 -21 235 -20 hstem
          60 642 -78 callsubr
        </CharString>
        <CharString name="grave.cap">
          -10 712 -21 184 -20 hstem
          35 746 -82 callgsubr
        </CharString>
        <CharString name="greater">
          23 63 -21 457 -20 hstem
          398 357 rmoveto
          0 -113 50 -66 29 vhcurveto
          -39 callgsubr
          endchar
        </CharString>
        <CharString name="greaterequal">
          62 -124 124 -123 -20 642 -27 callsubr
          417 357 rmoveto
          -149 66 -30 13 rlineto
          -39 callgsubr
          -3 -340 -16 callgsubr
        </CharString>
        <CharString name="guillemotleft">
          68 37 callgsubr
          372 422 -53 callgsubr
          -268 35 -53 callgsubr
          endchar
        </CharString>
        <CharString name="guillemotright">
          68 37 callgsubr
          310 42 -53 callsubr
          -144 -35 -53 callsubr
          endchar
        </CharString>
        <CharString name="guilsinglleft">
          -138 37 callgsubr
          166 422 -53 callgsubr
          endchar
        </CharString>
        <CharString name="guilsinglright">
          -138 37 callgsubr
          104 42 -53 callsubr
          endchar
        </CharString>
        <CharString name="h">
          146 0 84 -68 -21 344 145 258 -20 hstemhm
          hintmask 01110000
          3 -5 rmoveto
          hintmask 10110000
          -81 callsubr
          5 199 11 112 17 16 -51 callsubr
          -432 vlineto
          -36 -9 -12 -33 -4 vhcurveto
          endchar
        </CharString>
        <CharString name="h.sups">
          -4 327 60 -43 -21 226 104 87 -20 104 -20 hstemhm
          hintmask 01111000
          10 323 rmoveto
          hintmask 10111000
          0 48 4 41 32 60 -3 0 vhcurveto
          7 59 -2 -44 callsubr
          -4 -1 -4 -11 -3 5 14 vhcurveto
          128 vlineto
          7 10 11 8 9 1 callgsubr
          -16 -2 rlinecurve
          -5 -62 rlineto
          0 61 1 9 callsubr
          15 101 30 vvcurveto
          57 -40 30 -77 -13 -33 -34 -31 -29 vhcurveto
          3 135 8 72 12 3 callsubr
          -280 vlineto
          -24 -6 -8 -22 -3 vhcurveto
          endchar
        </CharString>
        <CharString name="hbar">
          150 0 84 -68 -21 344 145 25 66 0 49 118 -20 hstemhm
          hintmask 01110100
          7 -5 rmoveto
          hintmask 10110100
          -81 callsubr
          1 44 1 40 2 36 rrcurveto
          85 hlineto
          36 callgsubr
          -33 -2 -38 -1 vhcurveto
          6 82 8 48 11 10 -9 26 rcurveline
          0 -150 -21 -118 -15 vhcurveto
          -8 -75 rlineto
          hintmask 10101100
          5 -7 rlineto
          25 hlineto
          36 10 -10 -39 2 hvcurveto
          -46 -41 19 callgsubr
          hintmask 01110100
          0 38 0 46 1 vhcurveto
          -376 vlineto
          -36 -9 -12 -33 -4 vhcurveto
          endchar
        </CharString>
        <CharString name="hcircumflex">
          146 0 84 -68 -21 344 145 513 -20 hstemhm
          hintmask 01110000
          3 -5 rmoveto
          hintmask 10110000
          -81 callsubr
          5 199 11 112 17 16 -51 callsubr
          -432 vlineto
          -36 -9 -12 -33 -4 vhcurveto
          hintmask 01110000
          -15 698 -105 callsubr
          endchar
        </CharString>
        <CharString name="hungarumlaut">
          -10 549 -21 226 -20 hstem
          227 691 -65 callsubr
          160 14 -65 callsubr
          endchar
        </CharString>
        <CharString name="hungarumlaut.cap">
          -10 695 -21 206 -20 hstem
          249 799 -64 callgsubr
          198 15 -64 callgsubr
          endchar
        </CharString>
        <CharString name="hyphen">
          -84 197 -21 152 -20 hstem
          279 328 rmoveto
          0 -19 -4 -64 -7 vhcurveto
          -153 -17 -10 -106 13 -18 232 26 13 108 rlineto
          endchar
        </CharString>
        <CharString name="i">
          -64 callsubr
        </CharString>
        <CharString name="i.sups">
          -176 327 60 -46 -21 365 142 hstemhm
          hintmask 01100000
          127 685 rmoveto
          45 34 callsubr
          24 -24 45 hvcurveto
          -115 -365 rmoveto
          hintmask 10100000
          0 61 7 42 33 64 -3 0 vhcurveto
          9 61 -2 3 rlineto
          0 -9 -1 -6 -13 -3 4 14 139 5 73 11 20 vhcurveto
          -9 16 rlineto
          0 -91 -16 -87 -9 vhcurveto
          -6 -60 rlineto
          0 11 2 4 28 6 -7 -33 vhcurveto
          -107 vlineto
          -25 -13 -12 -26 -2 vhcurveto
          endchar
        </CharString>
        <CharString name="iacute">
          -11 callgsubr
          770 -33 callsubr
          7 -10 rmoveto
          hintmask 10100000
          -106 callsubr
          hintmask 01100000
          319 580 -97 callsubr
          endchar
        </CharString>
        <CharString name="ibreve">
          -11 callgsubr
          545 29 callgsubr
          hintmask 01110000
          7 -10 rmoveto
          hintmask 10110000
          -106 callsubr
          hintmask 01110000
          141 591 -100 callsubr
        </CharString>
        <CharString name="icircumflex">
          -11 callgsubr
          769 -33 callsubr
          7 -10 rmoveto
          hintmask 10100000
          -106 callsubr
          hintmask 01100000
          11 462 -105 callsubr
          endchar
        </CharString>
        <CharString name="idieresis">
          -11 callgsubr
          569 167 hstemhm
          175 73 hintmask 01110000
          7 -10 rmoveto
          hintmask 10110000
          -106 callsubr
          hintmask 01110000
          236 480 -104 callsubr
        </CharString>
        <CharString name="idotaccent">
          -64 callsubr
        </CharString>
        <CharString name="igrave">
          -11 callgsubr
          770 -33 callsubr
          7 -10 rmoveto
          hintmask 10100000
          -106 callsubr
          hintmask 01100000
          -2 563 -78 callsubr
        </CharString>
        <CharString name="ij">
          198 -227 -21 248 84 459 199 hstem
          165 -30 callgsubr
          -158 -553 rmoveto
          -106 callsubr
          331 -327 -76 callsubr
          164 748 rmoveto
          11 callsubr
        </CharString>
        <CharString name="imacron">
          -11 callgsubr
          575 122 6 -33 callsubr
          7 -10 rmoveto
          hintmask 10100000
          -106 callsubr
          hintmask 01010000
          288 614 rmoveto
          hintmask 10100000
          -88 callgsubr
        </CharString>
        <CharString name="infinity">
          116 76 126 -111 -21 212 147 -125 125 -26 callsubr
          154 423 rmoveto
          -83 -65 -81 -106 -89 54 -71 69 56 30 33 34 18 hvcurveto
          hintmask 01100000
          -40 25 35 -33 62 hhcurveto
          93 70 81 109 98 -53 71 -72 -61 -31 -41 -36 -17 hvcurveto
          39 -29 -39 32 -62 hhcurveto
          hintmask 10100000
          -4 -221 rmoveto
          -29 -16 15 27 25 12 13 21 26 15 -29 -36 17 hvcurveto
          -8 -13 -15 -7 -18 hhcurveto
          hintmask 10010000
          220 102 rmoveto
          34 22 -20 -31 -29 -13 -14 -25 -26 -17 35 42 -22 hvcurveto
          9 12 16 8 19 hhcurveto
          endchar
        </CharString>
        <CharString name="integral">
          45 -164 106 548 -13 callgsubr
          118 101 117 146 7 vhcurveto
          17 313 rlineto
          56 4 16 22 38 10 callsubr
          -128 -141 -112 -102 vhcurveto
          endchar
        </CharString>
        <CharString name="iogonek">
          -103 -233 85 148 84 459 199 hstem
          7 -10 rmoveto
          0 86 10 59 vhcurveto
          10 hlineto
          -60 -65 -20 -38 -41 -58 callsubr
          -25 39 rlineto
          0 -36 -25 -30 -25 -16 16 25 23 12 25 42 57 vhcurveto
          27 -1 23 -1 0 vvcurveto
          12 -26 callgsubr
          -14 -2 -9 -19 -6 7 23 201 8 117 16 30 vhcurveto
          -13 -35 callsubr
          -125 -23 -120 -14 2 callgsubr
          rlineto
          0 16 3 6 39 9 -11 -47 vhcurveto
          -171 vlineto
          -38 -18 -18 -39 -3 vhcurveto
          146 464 rmoveto
          11 callsubr
        </CharString>
        <CharString name="itilde">
          -11 callgsubr
          559 -55 callgsubr
          hintmask 01100100
          7 -10 rmoveto
          hintmask 10100100
          -106 callsubr
          hintmask 01010100
          17 446 -36 callgsubr
          hintmask 10100100
          -87 callgsubr
          hintmask 10001100
          -80 callsubr
        </CharString>
        <CharString name="j">
          -107 -227 -21 791 199 hstem
          45 -248 -76 callsubr
          164 748 rmoveto
          11 callsubr
        </CharString>
        <CharString name="j.sups">
          -176 181 -21 525 142 hstem
          42 160 rmoveto
          87 34 57 62 62 vvcurveto
          184 6 106 13 29 vhcurveto
          -10 16 rlineto
          0 -100 -16 -75 -11 vhcurveto
          -6 -58 rlineto
          0 11 2 12 16 6 -10 -30 vhcurveto
          -181 vlineto
          -78 -11 -32 -39 -37 vhcurveto
          -2 -11 rlineto
          118 494 rmoveto
          46 34 callsubr
          23 -24 45 hvcurveto
          endchar
        </CharString>
        <CharString name="jcircumflex">
          -107 -227 -21 1008 -20 hstem
          45 -248 -76 callsubr
          19 747 -105 callsubr
          endchar
        </CharString>
        <CharString name="k">
          134 5 -21 37 -21 472 -20 290 -20 hstemhm
          hintmask 01110000
          3 -5 rmoveto
          39 callsubr
          42 86 -6 0 vhcurveto
          13 82 -2 callgsubr
          -12 -1 -4 -93 callgsubr
          299 -16 rmoveto
          hintmask 10110000
          -60 callgsubr
          0 -66 -3 -55 -66 -78 -31 callsubr
          -9 -73 3 -5 rlineto
          -9 callgsubr
          endchar
        </CharString>
        <CharString name="k.sups">
          -10 336 -21 275 -20 170 35 callgsubr
          30 62 -57 callgsubr
          9 58 -2 5 rlineto
          -10 -38 callgsubr
          -21 -7 -7 -21 -3 vhcurveto
          209 -15 rmoveto
          19 -40 17 -13 36 -2 6 1 16 2 17 1 rrcurveto
          26 2 23 2 0 vvcurveto
          7 54 -5 8 -24 5 -17 14 -10 23 rlinecurve
          -39 82 26 26 27 28 35 19 rlinecurve
          7 61 -2 4 rlineto
          0 -47 -2 -39 -48 -55 1 0 vhcurveto
          -7 -53 2 -3 rlineto
          25 9 -3 -10 -7 -3 -5 -8 -9 hvcurveto
          -43 -50 -3 -23 rlineto
          endchar
        </CharString>
        <CharString name="kcommaaccent">
          134 -324 -21 366 -21 472 -20 290 -20 hstem
          3 -5 rmoveto
          39 callsubr
          42 86 -6 0 vhcurveto
          13 82 -2 callgsubr
          -12 -1 -4 -93 callgsubr
          299 -16 rmoveto
          -60 callgsubr
          0 -66 -3 -55 -66 -78 -31 callsubr
          -9 -73 3 -5 rlineto
          -9 callgsubr
          -51 -325 -104 callgsubr
          endchar
        </CharString>
        <CharString name="kgreenlandic">
          156 5 -21 37 -21 376 82 14 -20 32 -20 hstemhm
          hintmask 01010000
          15 -5 rmoveto
          0 78 5 58 42 86 -6 0 vhcurveto
          13 82 -2 callgsubr
          -12 -1 -4 -17 -6 8 24 300 7 32 8 26 vhcurveto
          hintmask 10101000
          -11 12 rlineto
          0 -127 -18 -112 -8 -41 callsubr
          57 -1 9 -11 -47 vvcurveto
          -184 vlineto
          -36 -19 -12 -33 -4 vhcurveto
          309 -16 rmoveto
          -60 callgsubr
          hintmask 01010000
          0 -66 -3 -55 -66 -78 -31 callsubr
          -9 -73 3 -5 rlineto
          hintmask 01101000
          -9 callgsubr
          endchar
        </CharString>
        <CharString name="l">
          -121 44 callsubr
          3 -5 rmoveto
          hintmask 01100000
          0 68 5 58 45 99 -4 0 vhcurveto
          13 80 -3 7 rlineto
          0 -26 -1 -6 -93 callgsubr
          endchar
        </CharString>
        <CharString name="l.sups">
          -186 345 -21 416 35 callgsubr
          32 72 -3 0 vhcurveto
          9 57 -2 5 rlineto
          -22 -38 callgsubr
          -22 -7 -6 -21 -2 vhcurveto
          endchar
        </CharString>
        <CharString name="lacute">
          -121 16 -21 26 -21 1008 -27 callsubr
          3 -5 rmoveto
          hintmask 01100000
          0 68 5 58 45 99 -4 0 vhcurveto
          13 80 -3 7 rlineto
          0 -26 -1 -6 -93 callgsubr
          hintmask 10100000
          311 826 -97 callsubr
          endchar
        </CharString>
        <CharString name="lcaron">
          20 44 callsubr
          419 685 rmoveto
          -134 2 callsubr
          11 -118 -2 -120 vhcurveto
          19 -6 73 25 rlineto
          26 112 16 109 0 vvcurveto
          -425 -678 rmoveto
          hintmask 01100000
          0 68 5 58 45 99 -4 0 vhcurveto
          13 80 -3 7 rlineto
          0 -26 -1 -6 -93 callgsubr
          endchar
        </CharString>
        <CharString name="lcommaaccent">
          -121 -324 -21 366 -21 742 -20 hstem
          3 -5 rmoveto
          0 68 5 58 45 99 -4 0 vhcurveto
          13 80 -3 7 rlineto
          0 -26 -1 -6 -93 callgsubr
          26 -173 -104 callgsubr
          endchar
        </CharString>
        <CharString name="ldot">
          54 16 -21 26 -21 205 199 338 -20 hstemhm
          hintmask 10110000
          3 -5 rmoveto
          hintmask 01110000
          0 68 5 58 45 99 -4 0 vhcurveto
          13 80 -3 7 rlineto
          0 -26 -1 -6 -93 callgsubr
          hintmask 10110000
          347 124 rmoveto
          11 callsubr
        </CharString>
        <CharString name="less">
          23 63 -21 457 -20 hstem
          33 184 rmoveto
          0 113 -50 66 -29 vhcurveto
          -40 callsubr
          endchar
        </CharString>
        <CharString name="lessequal">
          62 -124 124 -123 -20 642 -27 callsubr
          52 184 rmoveto
          149 -66 30 -13 rlineto
          -40 callsubr
          381 -197 -16 callgsubr
        </CharString>
        <CharString name="logicalnot">
          98 32 -21 196 146 6 -27 callsubr
          453 359 rmoveto
          hintmask 11000000
          0 -123 -6 -68 -89 -140 1 0 vhcurveto
          16 callgsubr
          136 1 90 vhcurveto
          51 hlineto
          -1 -96 0 -91 0 vvcurveto
          13 -9 135 18 rlineto
          0 -1 65 70 vvcurveto
          1 102 12 78 0 vvcurveto
          endchar
        </CharString>
        <CharString name="lozenge">
          134 -72 -21 744 -20 hstem
          40 252 rmoveto
          78 -168 74 -170 15 -7 151 7 83 188 70 153 1 51 -77 160 -77 178 -13 7 -152 -7 -78 -180 -75 -163 rlineto
          177 102 rmoveto
          51 116 rlineto
          8 hlineto
          60 -124 50 -115 -56 -129 -48 -112 rlineto
          -8 hlineto
          -59 123 -50 110 rlineto
          endchar
        </CharString>
        <CharString name="lslash">
          -58 44 callsubr
          33 -5 rmoveto
          hintmask 01100000
          8 callgsubr
          80 0 73 1 65 vhcurveto
          94 47 -31 93 -9 4 -51 -26 6 161 10 91 15 14 rlinecurve
          -9 26 rlineto
          0 -150 -21 -118 -15 -41 callsubr
          21 22 0 -5 12 hvcurveto
          14 -7 4 -15 -32 vvcurveto
          -181 vlineto
          -92 -46 31 -94 10 -2 51 25 rlineto
          -134 vlineto
          -36 -9 -12 -33 -4 vhcurveto
          endchar
        </CharString>
        <CharString name="m">
          438 -4 callsubr
          -26 callsubr
          302 -3 rmoveto
          0 86 3 36 40 84 -57 callgsubr
          13 84 -2 4 rlineto
          0 -10 -1 -10 -19 -6 9 28 vhcurveto
          14 198 rlineto
          10 13 17 11 15 -56 callsubr
          -2 -34 -7 -10 -23 -2 rlinecurve
          -8 -87 rlineto
          0 83 3 36 40 90 -57 callgsubr
          11 84 -2 4 rlineto
          0 -15 -1 -10 -20 -7 9 28 vhcurveto
          40 23 150 44 vvcurveto
          84 -58 46 -108 -13 -57 -47 -41 -42 vhcurveto
          59 -17 -52 29 -88 hhcurveto
          -13 -56 -47 -41 -43 hvcurveto
          -4 3 rlineto
          3 34 9 39 -66 callsubr
          39 9 -11 -47 hvcurveto
          -173 vlineto
          -38 -12 -12 -39 -2 vhcurveto
          hintmask 01100000
          -12 -87 rlineto
          hintmask 10100000
          0 79 5 63 42 80 46 callsubr
          86 -36 callsubr
          -12 -1 -4 -19 -5 7 25 16 6 107 5 76 vhcurveto
          10 14 17 12 15 -30 callsubr
          -23 -3 rlinecurve
          endchar
        </CharString>
        <CharString name="m.sups">
          197 327 59 -42 -21 226 104 -26 callsubr
          217 326 rmoveto
          0 61 1 25 27 61 -3 0 vhcurveto
          10 60 -2 3 rlineto
          0 -6 -1 -6 -13 -4 6 17 vhcurveto
          10 129 rlineto
          6 8 9 5 8 hhcurveto
          21 6 -10 -32 -1 hvcurveto
          -1 -90 -2 -22 -4 -6 -15 -1 rlinecurve
          -5 -63 rlineto
          0 59 2 9 callsubr
          16 101 30 vvcurveto
          57 -40 30 -77 -6 -36 -30 -30 -32 vhcurveto
          41 -11 -37 19 -62 hhcurveto
          -7 -36 -30 -30 -32 hvcurveto
          -3 2 -31 callgsubr
          -63 rlineto
          hintmask 10100000
          0 56 4 46 29 58 -3 0 vhcurveto
          8 62 -2 3 rlineto
          -9 hlineto
          -13 -3 4 15 9 4 68 4 52 hvcurveto
          6 9 9 6 7 1 callgsubr
          -15 -2 rlinecurve
          endchar
        </CharString>
        <CharString name="macron">
          -10 565 122 -102 -21 129 -33 callsubr
          347 693 -25 callgsubr
        </CharString>
        <CharString name="macron.cap">
          -10 695 122 -102 -21 129 -33 callsubr
          347 823 -25 callgsubr
        </CharString>
        <CharString name="minus">
          98 177 146 -126 -21 153 -33 callsubr
          483 329 rmoveto
          hintmask 10000000
          -29 callgsubr
          rlineto
          hintmask 01100000
          9 -13 rlineto
          hintmask 10000000
          -23 callsubr
          endchar
        </CharString>
        <CharString name="mu">
          138 -221 -21 230 140 -117 -21 494 -20 hstemhm
          hintmask 10110000
          45 455 rmoveto
          -10 -28 rlineto
          0 12 -45 -57 vvcurveto
          -9 -252 rlineto
          -6 -161 -14 -140 0 vvcurveto
          15 -14 156 25 8 12 rlineto
          0 -4 48 -2 52 vhcurveto
          13 -1 14 13 vvcurveto
          59 vlineto
          5 3 rlineto
          -4 7 12 -3 11 hhcurveto
          15 35 40 36 27 hvcurveto
          10 -5 rlineto
          hintmask 11010000
          -71 callsubr
          0 -17 -8 -16 -17 -12 14 21 139 14 125 19 31 vhcurveto
          -14 -35 callsubr
          -101 -15 -93 -13 vhcurveto
          -10 -27 rlineto
          0 13 -40 -62 vvcurveto
          -173 vlineto
          -7 -12 -19 -9 -15 hhcurveto
          -29 -14 20 42 120 12 115 16 31 hvcurveto
          -13 -35 callsubr
          -83 -16 -99 -13 vhcurveto
          endchar
        </CharString>
        <CharString name="multiply">
          98 47 -21 429 -20 hstem
          364 455 rmoveto
          0 -59 -65 -53 -54 vhcurveto
          -52 53 -54 55 0 vvcurveto
          -108 -83 -3 -16 rlineto
          0 58 -58 56 -55 vhcurveto
          -51 -50 -49 -49 0 vvcurveto
          79 -104 16 -3 rlineto
          0 52 53 53 53 vhcurveto
          108 -106 105 87 6 16 rlineto
          0 -61 55 -54 52 vhcurveto
          110 111 -84 102 rlineto
          endchar
        </CharString>
        <CharString name="n">
          171 -4 callsubr
          -26 callsubr
          -95 callgsubr
          hintmask 01100000
          -12 -87 rlineto
          hintmask 10100000
          -83 callsubr
          endchar
        </CharString>
        <CharString name="n.sups">
          13 327 59 -41 -21 225 104 -26 callsubr
          217 326 rmoveto
          0 61 1 25 vhcurveto
          hintmask 01100000
          27 66 -3 0 hvcurveto
          8 60 -2 3 rlineto
          hintmask 10100000
          0 -9 -1 -7 -13 -5 6 17 vhcurveto
          26 16 101 30 vvcurveto
          57 -41 30 -76 -13 -30 -31 -30 -28 vhcurveto
          -6 3 -31 callgsubr
          -62 rlineto
          hintmask 10100000
          0 56 3 46 vhcurveto
          hintmask 01100000
          29 58 -3 0 hvcurveto
          hintmask 10100000
          8 62 -2 3 rlineto
          -9 hlineto
          -13 -3 4 15 9 5 69 4 52 hvcurveto
          6 8 9 5 7 1 callgsubr
          -15 -2 rlinecurve
          endchar
        </CharString>
        <CharString name="nacute">
          171 -4 callsubr
          276 -20 hstemhm
          hintmask 10110000
          -95 callgsubr
          hintmask 01110000
          -12 -87 rlineto
          hintmask 10110000
          -83 callsubr
          177 575 -97 callsubr
          endchar
        </CharString>
        <CharString name="nbspace">
          -264 endchar
        </CharString>
        <CharString name="ncaron">
          171 -4 callsubr
          31 -20 245 -20 hstemhm
          hintmask 10111000
          -95 callgsubr
          hintmask 01111000
          -12 -87 rlineto
          hintmask 10111000
          -83 callsubr
          -180 587 -84 callsubr
        </CharString>
        <CharString name="ncommaaccent">
          171 32 callgsubr
          83 256 145 hstem
          -95 callgsubr
          -12 -87 rlineto
          -83 callsubr
          -119 -176 -104 callgsubr
          endchar
        </CharString>
        <CharString name="nine">
          65 -75 38 callgsubr
          52 -8 -56 callgsubr
        </CharString>
        <CharString name="nine.dnom">
          -60 12 -21 325 85 hstem
          45 55 -85 callsubr
        </CharString>
        <CharString name="nine.lf">
          65 8 38 callgsubr
          52 75 -56 callgsubr
        </CharString>
        <CharString name="nine.numr">
          -60 266 -21 230 -20 115 85 hstem
          45 309 -85 callsubr
        </CharString>
        <CharString name="nine.sinf">
          -60 -108 -21 325 85 hstem
          45 -65 -85 callsubr
        </CharString>
        <CharString name="nine.sups">
          -60 339 -21 325 85 hstem
          45 382 -85 callsubr
        </CharString>
        <CharString name="nine.tf">
          52 8 38 callgsubr
          48 75 rmoveto
          31 -81 12 -7 rlineto
          0 357 84 304 vvcurveto
          136 -81 87 -126 -144 -88 -82 -133 -108 63 -68 97 vhcurveto
          55 21 5 -11 rlineto
          -70 -102 -111 -40 0 vvcurveto
          177 252 rmoveto
          -33 -15 27 55 51 15 21 36 35 19 -4 callgsubr
          -19 -9 -23 hhcurveto
          endchar
        </CharString>
        <CharString name="nine.tosf">
          42 -75 38 callgsubr
          46 -8 rmoveto
          30 -81 13 -7 rlineto
          0 352 84 304 vvcurveto
          136 -80 87 -125 -142 -88 -82 -133 -108 62 -68 96 vhcurveto
          53 21 5 -11 rlineto
          -70 -102 -106 -40 0 vvcurveto
          174 252 rmoveto
          -31 -15 27 55 51 14 21 35 34 18 -4 callgsubr
          -18 -9 -22 hhcurveto
          endchar
        </CharString>
        <CharString name="notequal">
          98 -21 -21 119 146 54 146 134 -20 hstem
          480 429 rmoveto
          0 -75 -4 -71 -1 vhcurveto
          19 125 -7 8 -115 -10 -19 -124 rlineto
          -84 -98 -5 callgsubr
          88 1 82 vhcurveto
          -8 -54 rlineto
          -77 -76 -5 callgsubr
          68 0 72 1 vhcurveto
          -16 -110 4 -9 116 11 16 108 rlineto
          32 hlineto
          54 54 1 53 hhcurveto
          13 136 -7 15 rlineto
          1 -99 -7 -77 vhcurveto
          8 54 rlineto
          54 54 1 54 hhcurveto
          13 136 rlineto
          endchar
        </CharString>
        <CharString name="ntilde">
          171 -4 callsubr
          99 -43 callsubr
          hintmask 10101100
          -95 callgsubr
          hintmask 01101100
          -12 -87 rlineto
          hintmask 10110100
          -83 callsubr
          -125 441 -36 callgsubr
          -87 callgsubr
          hintmask 10101100
          -80 callsubr
        </CharString>
        <CharString name="numbersign">
          149 52 -21 114 116 79 120 122 -20 hstem
          47 339 rmoveto
          79 hlineto
          -5 -33 -7 -45 -93 1 -14 -105 9 -13 rlineto
          79 hlineto
          -18 -104 13 -9 106 14 14 100 rlineto
          82 hlineto
          -18 -105 13 -9 106 14 15 100 101 1 9 106 -7 15 -86 -3 10 60 2 16 103 1 9 106 -7 15 -85 -3 22 116 -14 7 -108 -9 -17 -117 rlineto
          -80 hlineto
          22 119 -14 7 -108 -9 -17 -117 -91 1 -14 -105 rlineto
          200 -28 rmoveto
          2 16 rlineto
          83 hlineto
          -5 -34 -7 -45 rlineto
          -83 hlineto
          endchar
        </CharString>
        <CharString name="o">
          -33 callgsubr
          hstem
          -99 callsubr
          endchar
        </CharString>
        <CharString name="o.sups">
          -45 callgsubr
        </CharString>
        <CharString name="oacute">
          -33 callgsubr
          276 -20 hstem
          -99 callsubr
          186 564 -97 callsubr
          endchar
        </CharString>
        <CharString name="obreve">
          -33 callgsubr
          51 43 callsubr
          hstem
          -99 callsubr
          8 575 -100 callsubr
        </CharString>
        <CharString name="ocircumflex">
          -33 callgsubr
          275 -20 hstem
          -99 callsubr
          -122 446 -105 callsubr
          endchar
        </CharString>
        <CharString name="odieresis">
          -33 callgsubr
          75 167 hstem
          -99 callsubr
          103 464 -104 callsubr
        </CharString>
        <CharString name="oe">
          362 -12 107 -107 131 245 120 -26 callsubr
          593 119 rmoveto
          -58 -30 23 63 -11 hvcurveto
          3 237 vlineto
          11 10 rlineto
          0 8 33 33 vvcurveto
          115 -45 85 -145 -82 -68 -63 0 0 -67 63 -77 -158 -94 -96 -163 -147 88 -90 142 80 73 66 0 0 62 -66 91 87 105 81 0 vhcurveto
          -22 74 -9 5 rlineto
          hintmask 01100000
          0 -54 -29 -64 vhcurveto
          hintmask 10100000
          -337 -24 rmoveto
          -40 -12 40 136 71 11 22 35 40 12 -39 -134 -74 -11 -22 -35 hvcurveto
          288 278 rmoveto
          27 13 -21 -44 -14 -2 -3 -10 -1 hvcurveto
          -83 -8 rlineto
          65 14 26 41 vhcurveto
          endchar
        </CharString>
        <CharString name="ogonek">
          -10 -242 85 199 -20 hstem
          285 -27 callgsubr
          29 19 31 76 98 vhcurveto
          -67 hlineto
          -98 -98 -31 -47 -50 -23 callgsubr
        </CharString>
        <CharString name="ograve">
          -33 callgsubr
          276 -20 hstem
          -99 callsubr
          -135 547 -78 callsubr
        </CharString>
        <CharString name="ohungarumlaut">
          -33 callgsubr
          270 -20 hstem
          -99 callsubr
          67 596 -65 callsubr
          160 14 -65 callsubr
          endchar
        </CharString>
        <CharString name="omacron">
          -33 callgsubr
          81 122 6 42 callgsubr
          -99 callsubr
          155 598 rmoveto
          hintmask 11100000
          -88 callgsubr
        </CharString>
        <CharString name="one">
          -31 0 88 hstem
          296 400 rmoveto
          8 36 11 20 21 16 -16 43 rcurveline
          -1 1 -77 -13 -96 -10 -42 -5 -45 -5 -45 26 callgsubr
          -201 46 callgsubr
          -1 113 11 74 17 callsubr
          135 4 63 11 49 vhcurveto
          endchar
        </CharString>
        <CharString name="one.dnom">
          -125 0 12 callgsubr
          322 -89 callgsubr
        </CharString>
        <CharString name="one.lf">
          -30 0 88 -77 -21 490 -33 callsubr
          294 483 rmoveto
          8 35 11 20 21 17 -16 43 rcurveline
          -1 1 -78 -13 -94 -10 -41 -5 -46 -5 -44 26 callgsubr
          -284 46 callgsubr
          hintmask 10100000
          0 114 10 73 17 callsubr
          169 5 120 8 41 vhcurveto
          endchar
        </CharString>
        <CharString name="one.numr">
          -125 254 63 -49 -21 408 -20 hstemhm
          hintmask 01100000
          219 576 -89 callgsubr
        </CharString>
        <CharString name="one.sinf">
          -125 -120 12 callgsubr
          202 -89 callgsubr
        </CharString>
        <CharString name="one.sups">
          -125 327 12 callgsubr
          649 -89 callgsubr
        </CharString>
        <CharString name="one.tf">
          52 0 88 -77 -21 490 -33 callsubr
          335 483 rmoveto
          8 35 12 20 25 17 -16 43 rcurveline
          -1 1 -71 -13 -108 -10 -143 -14 rcurveline
          -9 -75 9 -10 rlineto
          0 34 3 21 42 13 -11 -46 vhcurveto
          -284 vlineto
          -42 -27 -20 -74 -6 vhcurveto
          -9 -81 rlineto
          hintmask 10100000
          0 120 10 78 59 111 -6 0 vhcurveto
          15 90 -4 6 rlineto
          0 -25 -2 -27 -33 -13 20 45 169 5 120 8 41 vhcurveto
          endchar
        </CharString>
        <CharString name="one.tosf">
          42 0 88 hstem
          332 400 rmoveto
          8 36 12 20 24 16 -16 43 rcurveline
          -1 1 -70 -13 -109 -10 -143 -14 rcurveline
          -8 -75 9 -10 rlineto
          0 33 3 21 41 13 -11 -46 vhcurveto
          -201 vlineto
          -42 -27 -20 -72 -6 vhcurveto
          -10 -81 rlineto
          -1 119 11 78 59 110 -6 0 vhcurveto
          15 90 -4 6 rlineto
          0 -24 -2 -27 -33 -13 20 45 135 4 63 11 49 vhcurveto
          endchar
        </CharString>
        <CharString name="onedotenleader">
          -170 -9 32 callsubr
          -9 rmoveto
          11 callsubr
        </CharString>
        <CharString name="onehalf">
          469 -70 -21 112 -21 254 63 -34 118 254 -20 44 -20 hstemhm
          hintmask 11101100
          -68 callsubr
          -156 -627 rmoveto
          69 4 rlineto
          73 164 -8 0 hvcurveto
          13 13 rlineto
          3 61 15 93 0 vvcurveto
          -87 -6 rlineto
          -45 -3 -14 -16 -34 hhcurveto
          -31 hlineto
          -3 6 rlineto
          92 89 31 51 61 vvcurveto
          hintmask 11011100
          61 -55 41 -80 -54 -58 -29 -47 -40 vhcurveto
          18 -86 rlineto
          13 hlineto
          29 27 28 15 25 hhcurveto
          20 12 -9 -18 hvcurveto
          1 -21 -15 -23 -43 -46 -94 -97 rcurveline
          endchar
        </CharString>
        <CharString name="onequarter">
          437 -70 -21 746 -20 44 -20 hstem
          -68 callsubr
          -194 -538 rmoveto
          155 -2 rlineto
          -1 -43 -3 -40 0 vvcurveto
          7 -8 121 8 9 -2 callsubr
          -3 32 -1 39 vhcurveto
          44 -1 8 81 -8 10 rlineto
          -45 223 hlineto
          -106 9 -7 -2 -169 -242 rlineto
          147 93 rmoveto
          8 -81 -59 hlineto
          endchar
        </CharString>
        <CharString name="ordfeminine">
          -67 callgsubr
        </CharString>
        <CharString name="ordmasculine">
          -45 callgsubr
        </CharString>
        <CharString name="oslash">
          101 -117 -21 126 107 269 120 123 -48 callsubr
          187 36 8 callsubr
        </CharString>
        <CharString name="oslashacute">
          101 -117 -21 126 107 269 120 276 -48 callsubr
          373 600 -97 callsubr
          -184 -547 8 callsubr
        </CharString>
        <CharString name="otilde">
          -33 callgsubr
          65 -55 callgsubr
          hintmask 11010100
          -99 callsubr
          -116 430 -36 callgsubr
          hintmask 11100100
          -87 callgsubr
          hintmask 11001100
          -80 callsubr
        </CharString>
        <CharString name="p">
          140 -230 86 -70 -21 228 113 240 133 5 -20 hstemhm
          hintmask 01110000
          23 -148 rmoveto
          -12 -87 rlineto
          -1 callsubr
          85 5 54 45 107 -57 callgsubr
          14 88 -36 callsubr
          -29 -3 -19 -25 1 17 41 vhcurveto
          27 1 27 26 vvcurveto
          0 3 -1 5 176 108 85 173 138 -81 90 -124 -9 -28 -28 -54 -45 vhcurveto
          -4 2 rlineto
          4 33 8 40 0 vvcurveto
          hintmask 10101000
          -12 12 rlineto
          0 -117 -21 -116 -16 -41 callsubr
          16 hlineto
          39 9 -11 -47 hvcurveto
          -264 vlineto
          -7 -139 rlineto
          -39 -9 -11 -32 -2 vhcurveto
          225 263 rmoveto
          59 2 90 2 74 vhcurveto
          hintmask 10110000
          5 11 12 3 11 hhcurveto
          42 18 -40 -96 18 callsubr
        </CharString>
        <CharString name="p.sups">
          -8 173 62 -44 -21 153 81 151 95 3 -20 hstemhm
          hintmask 01110000
          24 232 rmoveto
          -9 -62 rlineto
          -1 callsubr
          61 3 37 vhcurveto
          hintmask 01110000
          33 80 -3 -3 hhcurveto
          10 63 -2 4 rlineto
          hintmask 10110000
          1 -21 -2 -14 hhcurveto
          -16 1 11 26 hvcurveto
          17 1 17 17 vvcurveto
          125 74 54 118 94 -56 61 -86 -6 -18 -20 -37 -30 hvcurveto
          -3 1 rlineto
          3 23 6 28 0 vvcurveto
          hintmask 10101000
          -9 -2 callsubr
          -85 -14 -84 -12 vhcurveto
          -6 -54 4 -5 rlineto
          11 hlineto
          27 6 -6 -32 hvcurveto
          -174 vlineto
          -1 -31 -2 -28 -2 -32 rrcurveto
          -24 -6 -8 -21 -1 vhcurveto
          164 177 rmoveto
          37 1 58 1 49 vhcurveto
          hintmask 10110000
          1 6 5 1 7 hhcurveto
          26 9 -24 -64 -44 -9 -19 -19 -17 -12 6 -1 2 hvcurveto
          endchar
        </CharString>
        <CharString name="paragraph">
          166 -94 106 548 92 -5 -27 callsubr
          319 106 rmoveto
          -68 -22 -26 -56 -52 -38 47 76 -9 vhcurveto
          -18 hlineto
          -25 -35 -21 -58 -37 vvcurveto
          -52 69 -47 77 148 137 136 148 91 7 192 5 43 vhcurveto
          3 31 4 5 38 10 2 4 rcurveline
          6 84 rlineto
          0 -133 -3 -31 vhcurveto
          hintmask 11000000
          -46 -64 5 -51 hhcurveto
          -142 -102 -96 -134 -136 113 -89 174 hvcurveto
          35 vlineto
          -44 60 -16 49 79 vvcurveto
          90 21 50 38 23 5 -3 -12 vhcurveto
          endchar
        </CharString>
        <CharString name="parenleft">
          -99 -125 -21 795 -20 hstem
          54 163 rmoveto
          -242 166 -67 0 vhcurveto
          12 hlineto
          62 60 rlineto
          11 vlineto
          0 -83 60 193 vvcurveto
          173 vlineto
          176 80 49 0 vhcurveto
          1 9 -52 64 rlineto
          -17 hlineto
          0 -169 -68 -245 vvcurveto
          endchar
        </CharString>
        <CharString name="parenright">
          -99 -125 -21 795 -20 hstem
          255 340 rmoveto
          242 -166 67 0 vhcurveto
          -12 hlineto
          -62 -60 rlineto
          -11 vlineto
          0 83 -60 -193 vvcurveto
          -173 vlineto
          -176 -80 -49 0 vhcurveto
          -1 -9 52 -64 rlineto
          17 hlineto
          0 169 68 245 vvcurveto
          endchar
        </CharString>
        <CharString name="partialdiff">
          103 -14 107 254 124 269 -20 hstem
          237 449 rmoveto
          0 -26 14 -14 8 vhcurveto
          16 callsubr
          196 -154 183 -255 105 hvcurveto
          -16 -8 -51 -81 109 -71 70 -58 42 -64 rlinecurve
          61 -258 -8 callgsubr
        </CharString>
        <CharString name="percent">
          350 -70 -21 79 138 89 142 -67 138 89 142 20 -20 hstemhm
          hintmask 11011000
          160 428 42 callsubr
          30 21 12 51 56 25 -15 -32 -29 -22 -13 -51 hvcurveto
          -1 callgsubr
          454 -164 42 callsubr
          hvcurveto
          hintmask 11100100
          30 21 12 51 56 25 -15 -32 -29 -22 -13 -51 vhcurveto
          -1 callgsubr
          34 659 -82 callsubr
          endchar
        </CharString>
        <CharString name="period">
          -170 -9 32 callsubr
          -9 rmoveto
          11 callsubr
        </CharString>
        <CharString name="periodcentered">
          -170 154 32 callsubr
          154 rmoveto
          11 callsubr
        </CharString>
        <CharString name="perthousand">
          688 -70 -21 79 138 89 142 -67 138 89 142 20 -20 hstemhm
          hintmask 11011000
          160 428 42 callsubr
          10 callgsubr
          hvcurveto
          -39 callsubr
          454 -164 42 callsubr
          hvcurveto
          hintmask 11100100
          10 callgsubr
          vhcurveto
          -39 callsubr
          348 138 42 callsubr
          10 callgsubr
          hvcurveto
          -39 callsubr
          -304 659 -82 callsubr
          endchar
        </CharString>
        <CharString name="pi">
          235 -73 -21 82 147 244 116 -100 100 10 42 callgsubr
          518 205 rmoveto
          38 4 78 3 19 vhcurveto
          47 7 12 8 66 hhcurveto
          7 7 16 96 rlineto
          hintmask 11001000
          -6 7 rlineto
          hintmask 11100000
          0 -122 -10 -84 vhcurveto
          hintmask 11001000
          -59 -171 10 -114 hhcurveto
          -15 -7 -90 -75 -2 -9 36 -69 10 1 rlineto
          hintmask 11100000
          0 45 33 26 16 5 -10 -36 -156 -7 -238 -5 -16 vhcurveto
          10 -17 166 28 11 15 rlineto
          0 -2 47 48 vvcurveto
          66 1 177 1 68 vhcurveto
          33 2 4 4 27 hhcurveto
          26 7 -9 -35 hvcurveto
          -1 -229 rlineto
          -90 42 -41 95 23 99 100 23 vhcurveto
          -15 24 rlineto
          -62 -12 11 59 hvcurveto
          endchar
        </CharString>
        <CharString name="plus">
          98 39 -21 159 146 170 -20 hstem
          312 493 rmoveto
          -131 -13 -1 -157 rlineto
          -20 callgsubr
          156 1 13 136 -7 15 rlineto
          0 -86 -4 -76 -2 vhcurveto
          2 75 4 88 0 vvcurveto
          endchar
        </CharString>
        <CharString name="plusminus">
          98 -124 124 -123 -20 342 146 170 -20 hstemhm
          hintmask 10110000
          312 515 rmoveto
          -131 -13 rlineto
          -52 -1 -53 -52 vvcurveto
          -20 callgsubr
          52 52 1 52 hhcurveto
          13 136 -7 15 rlineto
          0 -86 -4 -76 -2 vhcurveto
          2 75 4 88 0 vvcurveto
          137 -506 rmoveto
          0 -23 -2 -64 vhcurveto
          -335 hlineto
          -11 -105 11 -19 rlineto
          hintmask 01110000
          139 140 1 139 hhcurveto
          14 106 rlineto
          endchar
        </CharString>
        <CharString name="product">
          310 0 87 -71 -21 564 88 5 39 callgsubr
          643 510 rmoveto
          3 37 8 7 46 8 7 90 rcurveline
          hintmask 10100000
          0 -129 -5 -43 vhcurveto
          -348 hlineto
          hintmask 10010000
          -39 -120 5 0 hvcurveto
          -10 -80 9 -14 rlineto
          hintmask 01100000
          0 15 1 11 28 7 -10 -41 vhcurveto
          -346 vlineto
          -15 callsubr
          hintmask 10100000
          -1 105 5 62 hhcurveto
          40 118 -4 0 hvcurveto
          9 84 -8 10 rlineto
          0 -3 -1 -4 -1 vhcurveto
          -1 -5 -6 0 -9 hhcurveto
          -23 -5 13 56 106 4 113 6 122 hvcurveto
          40 2 11 12 37 hhcurveto
          69 22 6 -60 hvcurveto
          -333 vlineto
          -56 -10 -15 -46 -11 vhcurveto
          hintmask 01100000
          -8 -85 rlineto
          hintmask 10100000
          0 98 5 59 42 125 -57 callgsubr
          9 84 -8 10 rlineto
          0 -11 -3 -21 -26 -6 13 56 124 4 131 6 99 vhcurveto
          endchar
        </CharString>
        <CharString name="q">
          110 -230 83 -66 -21 93 -20 154 126 247 113 20 -20 hstemhm
          hintmask 01111000
          210 -234 rmoveto
          hintmask 10011000
          0 91 4 51 vhcurveto
          167 hlineto
          7 86 -3 4 rlineto
          hintmask 01110100
          0 -12 -1 -14 -21 -5 9 36 311 10 243 14 26 vhcurveto
          -15 15 rlineto
          0 -34 -14 -45 -17 vhcurveto
          7 -54 -44 4 -33 hhcurveto
          -158 -98 -99 -159 -145 68 -83 119 9 33 21 44 57 hvcurveto
          -4 -142 rlineto
          hintmask 10011000
          -1 -51 -14 -9 -63 -3 rrcurveto
          hintmask 01111000
          82 276 rmoveto
          0 -13 -10 -25 -41 -19 45 98 -8 callsubr
        </CharString>
        <CharString name="q.sups">
          -30 173 60 -42 -21 153 90 156 80 14 -20 hstemhm
          hintmask 01110000
          149 170 rmoveto
          hintmask 10101000
          0 65 3 36 vhcurveto
          122 hlineto
          4 62 -2 3 rlineto
          0 -8 -1 -10 -13 -4 6 21 206 7 166 10 17 vhcurveto
          -11 10 -56 -21 rlineto
          hintmask 10110000
          5 -40 -31 2 -23 hhcurveto
          -111 -66 -64 -108 -99 46 -55 82 6 22 13 30 38 hvcurveto
          -2 -91 -1 -34 -10 -6 -44 -2 rlinecurve
          hintmask 01110000
          57 182 rmoveto
          0 -4 -2 -16 -25 -10 27 35 callsubr
        </CharString>
        <CharString name="question">
          -27 -9 199 381 145 hstem
          93 240 rmoveto
          15 -8 118 20 9 14 -8 69 3 6 rlineto
          132 87 31 36 70 vvcurveto
          100 -126 78 -170 4 vhcurveto
          -17 -9 -41 -118 14 -18 rlineto
          105 -5 58 -28 -46 vvcurveto
          -21 -16 -19 -31 -17 vhcurveto
          -97 -47 -3 -15 rlineto
          92 -382 rmoveto
          11 callsubr
        </CharString>
        <CharString name="questiondown">
          -27 -241 145 381 199 hstem
          288 235 rmoveto
          -15 8 -118 -20 -9 -14 8 -69 -3 -6 rlineto
          -133 -88 -30 -36 -69 vvcurveto
          -100 126 -78 170 -4 vhcurveto
          17 9 41 118 -14 18 rlineto
          -104 4 -59 28 47 vvcurveto
          21 16 19 31 17 vhcurveto
          97 47 3 15 rlineto
          -92 382 rmoveto
          -62 -39 -40 -64 -60 34 -35 59 63 39 40 64 61 -33 34 -61 hvcurveto
          endchar
        </CharString>
        <CharString name="quotedbl">
          -62 422 -21 258 -20 hstem
          159 659 rmoveto
          -134 2 callsubr
          11 -118 -2 -120 vhcurveto
          19 -6 73 25 rlineto
          26 112 16 109 0 vvcurveto
          161 12 rmoveto
          -134 2 callsubr
          11 -118 -2 -120 vhcurveto
          19 -6 73 25 rlineto
          26 112 16 109 0 vvcurveto
          endchar
        </CharString>
        <CharString name="quotedblbase">
          39 -101 7 callgsubr
          -25 callsubr
          206 -14 -104 callgsubr
          endchar
        </CharString>
        <CharString name="quotedblleft">
          70 369 7 callgsubr
          433 406 -63 callsubr
          -212 14 -63 callsubr
          endchar
        </CharString>
        <CharString name="quotedblright">
          70 369 7 callgsubr
          260 601 -52 callgsubr
          -218 -14 -52 callgsubr
          endchar
        </CharString>
        <CharString name="quoteleft">
          -145 369 7 callgsubr
          218 406 -63 callsubr
          endchar
        </CharString>
        <CharString name="quoteright">
          -145 369 7 callgsubr
          45 601 -52 callgsubr
          endchar
        </CharString>
        <CharString name="quotesinglbase">
          -170 -101 7 callgsubr
          -25 callsubr
          endchar
        </CharString>
        <CharString name="quotesingle">
          -232 422 -21 258 -20 hstem
          159 659 rmoveto
          -134 2 callsubr
          11 -118 -2 -120 vhcurveto
          19 -6 73 25 rlineto
          26 112 16 109 0 vvcurveto
          endchar
        </CharString>
        <CharString name="r">
          1 callsubr
          10 -27 callsubr
          -5 callsubr
          vhcurveto
          hintmask 01100000
          24 callsubr
          hintmask 10010000
          -79 callgsubr
          hintmask 10001000
          -20 callsubr
          endchar
        </CharString>
        <CharString name="r.sups">
          -76 327 64 -47 -21 150 173 7 -27 callsubr
          25 386 rmoveto
          -9 -62 rlineto
          0 63 3 44 vhcurveto
          hintmask 01100000
          41 76 -4 0 hvcurveto
          10 66 -5 6 rlineto
          hintmask 10100000
          0 -24 -4 -16 -12 -7 7 13 8 8 110 0 vhcurveto
          4 7 7 2 7 hhcurveto
          17 4 -13 -51 hvcurveto
          70 4 rlineto
          4 74 14 86 0 vvcurveto
          -4 9 rlineto
          0 -16 2 -11 -37 -29 -17 -41 -31 vhcurveto
          -6 3 rlineto
          2 25 7 28 0 vvcurveto
          hintmask 10010000
          -9 9 rlineto
          0 -87 -14 -85 -11 vhcurveto
          -6 -55 4 -4 rlineto
          0 7 -1 3 29 5 -6 -32 vhcurveto
          -112 vlineto
          -23 -8 -8 -27 -1 vhcurveto
          endchar
        </CharString>
        <CharString name="racute">
          1 callsubr
          286 -20 hstemhm
          hintmask 10101000
          -5 callsubr
          vhcurveto
          hintmask 01101000
          24 callsubr
          hintmask 10011000
          -79 callgsubr
          -20 callsubr
          315 577 -97 callsubr
          endchar
        </CharString>
        <CharString name="radical">
          96 9 -21 754 -20 hstem
          64 320 rmoveto
          17 -71 63 -261 0 vvcurveto
          216 12 215 742 rlineto
          -116 hlineto
          -28 -20 -152 -577 rlineto
          -17 hlineto
          0 -49 281 -5 49 vhcurveto
          -6 7 -92 -12 rlineto
          -49 -6 -64 -5 0 vvcurveto
          -10 -86 2 -4 48 1 16 -11 11 -39 rlinecurve
          endchar
        </CharString>
        <CharString name="rcaron">
          1 callsubr
          41 -20 245 -20 hstemhm
          hintmask 10101100
          -5 callsubr
          vhcurveto
          hintmask 01101100
          24 callsubr
          hintmask 10011100
          -79 callgsubr
          -20 callsubr
          -42 589 -84 callsubr
        </CharString>
        <CharString name="rcommaaccent">
          37 32 callgsubr
          90 0 138 90 156 10 42 callgsubr
          -5 callsubr
          57 105 -6 0 vhcurveto
          14 93 -6 8 rlineto
          -79 callgsubr
          hintmask 10101000
          -20 callsubr
          33 -174 -104 callgsubr
          endchar
        </CharString>
        <CharString name="registered">
          60 303 42 72 200 -38 132 -122 -20 100 42 hstemhm
          hintmask 11001000
          30 507 rmoveto
          -113 91 -91 113 113 91 91 113 113 -91 91 -113 -113 -91 -91 -113 vhcurveto
          42 hmoveto
          89 73 73 89 89 73 -73 -89 -89 -73 -73 -89 -89 -73 73 89 vhcurveto
          62 -93 rmoveto
          0 27 2 18 1 vhcurveto
          12 hlineto
          13 34 -2 0 hvcurveto
          3 26 rlineto
          1 -1 0 1 vvcurveto
          -21 1 -2 1 20 vvcurveto
          21 17 vlineto
          19 -47 rlineto
          -26 11 8 -1 27 hhcurveto
          51 3 -13 5 2 18 -2 3 rcurveline
          -9 1 -14 13 -7 14 -20 32 rcurveline
          25 15 12 19 25 vvcurveto
          40 -31 17 -60 vhcurveto
          -1 -10 -22 -1 -9 hhcurveto
          -54 hlineto
          -3 -25 3 -2 rlineto
          hintmask 10011000
          0 5 1 6 6 2 -4 -14 vhcurveto
          -103 vlineto
          -17 -6 -7 -14 -3 vhcurveto
          84 130 rmoveto
          hintmask 10100000
          7 1 1 4 23 11 -9 -17 -18 -5 -8 -13 -4 vhcurveto
          -8 -12 1 -4 hhcurveto
          15 2 15 1 17 vhcurveto
          endchar
        </CharString>
        <CharString name="ring">
          -10 542 210 -72 72 hstemhm
          hintmask 01000000
          201 612 -51 callgsubr
          hintmask 10000000
          -7 -70 -58 callgsubr
          endchar
        </CharString>
        <CharString name="ring.cap">
          -10 682 210 -72 72 hstemhm
          hintmask 01000000
          201 752 -51 callgsubr
          hintmask 10000000
          -7 -70 -58 callgsubr
          endchar
        </CharString>
        <CharString name="s">
          -7 callgsubr
          -98 callsubr
          endchar
        </CharString>
        <CharString name="s.sups">
          -100 319 75 181 78 hstem
          125 319 rmoveto
          96 67 43 63 50 -22 21 -87 36 hvcurveto
          -20 7 -9 8 10 vvcurveto
          12 9 6 15 23 12 -14 -30 vhcurveto
          -1 vlineto
          59 3 rlineto
          5 46 8 48 0 vvcurveto
          -7 12 rlineto
          0 -33 14 -55 -102 -64 -44 -69 -46 25 -29 58 -23 vhcurveto
          45 -16 8 -6 -12 vvcurveto
          -9 -9 -5 -14 -27 -24 24 25 -1 vhcurveto
          -59 -4 -3 -31 -4 -30 -4 -25 rlinecurve
          8 -10 rlineto
          0 43 -24 63 vhcurveto
          endchar
        </CharString>
        <CharString name="sacute">
          -7 callgsubr
          276 -20 -98 callsubr
          232 671 -97 callsubr
          endchar
        </CharString>
        <CharString name="scaron">
          -7 callgsubr
          31 -20 245 -20 -98 callsubr
          -125 683 -84 callsubr
        </CharString>
        <CharString name="scedilla">
          8 28 callsubr
          129 103 -103 179 19 callsubr
          hstem
          131 -87 callsubr
          6 29 rlineto
          110 13 75 60 81 vvcurveto
          71 -31 34 -125 52 vhcurveto
          -33 14 -14 13 17 vvcurveto
          19 15 11 24 36 18 -21 -46 1 vhcurveto
          -4 vlineto
          80 4 rlineto
          6 68 12 70 0 vvcurveto
          -9 17 rlineto
          0 -48 20 -77 -142 -92 -65 -101 -66 36 -43 84 -34 vhcurveto
          67 -27 14 -10 -20 vvcurveto
          -16 -16 -10 -24 -43 -34 35 44 -1 vhcurveto
          -80 -6 -4 -44 -6 -50 -5 -35 rlinecurve
          10 2 callsubr
          53 -29 80 -4 vhcurveto
          endchar
        </CharString>
        <CharString name="scircumflex">
          -7 callgsubr
          276 -20 -98 callsubr
          -83 554 -105 callsubr
          endchar
        </CharString>
        <CharString name="scommaaccent">
          8 -324 -21 333 104 -104 180 208 108 -98 callsubr
          -60 -80 -104 callgsubr
          endchar
        </CharString>
        <CharString name="section">
          78 -95 118 456 -20 77 123 hstem
          418 67 rmoveto
          40 -20 29 -29 23 vhcurveto
          57 33 43 45 54 133 -205 29 57 vvcurveto
          15 14 11 17 26 27 -24 -33 12 vhcurveto
          25 hlineto
          18 15 24 76 38 vvcurveto
          27 -70 24 -77 -118 -87 -67 -91 -44 22 -31 30 -25 vhcurveto
          -50 -26 -56 -44 -69 -142 212 -5 -68 vvcurveto
          -15 -12 -9 -20 -44 -41 37 45 -7 vhcurveto
          -27 2 rlineto
          -26 -35 -14 -44 -46 vvcurveto
          -39 76 -38 80 125 95 70 92 vhcurveto
          -241 247 rmoveto
          17 7 14 12 12 vhcurveto
          56 -31 55 -28 -53 vvcurveto
          -16 -6 -12 -9 -11 vhcurveto
          -58 30 -57 27 51 vvcurveto
          endchar
        </CharString>
        <CharString name="semicolon">
          -170 -101 -21 311 67 0 199 hstemhm
          hintmask 11000000
          -25 callsubr
          85 111 rmoveto
          62 39 40 64 hvcurveto
          hintmask 10100000
          60 -34 35 -59 -63 -39 -40 -64 -61 33 -34 61 vhcurveto
          endchar
        </CharString>
        <CharString name="seven">
          27 -74 -6 callgsubr
          235 -95 -47 callgsubr
        </CharString>
        <CharString name="seven.dnom">
          -88 14 -18 callsubr
          -7 -78 callgsubr
        </CharString>
        <CharString name="seven.lf">
          25 10 -6 callgsubr
          235 -11 -47 callgsubr
        </CharString>
        <CharString name="seven.numr">
          -88 268 -18 callsubr
          247 -78 callgsubr
        </CharString>
        <CharString name="seven.sinf">
          -88 -106 -18 callsubr
          -127 -78 callgsubr
        </CharString>
        <CharString name="seven.sups">
          -88 341 -18 callsubr
          320 -78 callgsubr
        </CharString>
        <CharString name="seven.tf">
          52 10 -6 callgsubr
          245 -11 rmoveto
          39 143 61 152 31 63 83 170 rlinecurve
          -56 70 rlineto
          -232 hlineto
          hintmask 10100000
          -64 -62 4 0 hvcurveto
          -7 -5 rlineto
          -5 -106 -15 -133 0 vvcurveto
          83 6 11 65 13 11 62 6 rlinecurve
          101 9 -206 -389 12 -28 124 -38 rlineto
          endchar
        </CharString>
        <CharString name="seven.tosf">
          42 -74 -6 callgsubr
          241 -95 rmoveto
          38 143 61 152 29 63 81 170 rlinecurve
          -57 70 rlineto
          -228 hlineto
          hintmask 10100000
          -63 -61 4 0 hvcurveto
          -6 -5 rlineto
          -5 -106 -16 -133 0 vvcurveto
          84 6 11 65 12 11 61 6 rlinecurve
          97 9 -202 -389 13 -28 124 -38 rlineto
          endchar
        </CharString>
        <CharString name="six">
          -60 callsubr
        </CharString>
        <CharString name="six.dnom">
          -60 -8 41 callgsubr
          338 -85 callgsubr
        </CharString>
        <CharString name="six.lf">
          -60 callsubr
        </CharString>
        <CharString name="six.numr">
          -60 246 85 180 -20 164 -20 hstem
          303 592 -85 callgsubr
        </CharString>
        <CharString name="six.sinf">
          -60 -128 41 callgsubr
          218 -85 callgsubr
        </CharString>
        <CharString name="six.sups">
          -60 319 41 callgsubr
          665 -85 callgsubr
        </CharString>
        <CharString name="six.tf">
          52 -12 117 494 -20 hstem
          412 511 rmoveto
          -31 81 -12 7 rlineto
          0 -357 -84 -304 vvcurveto
          -136 81 -87 126 144 88 82 133 108 -63 68 -97 vhcurveto
          -55 -21 -6 11 rlineto
          70 101 112 41 0 vvcurveto
          -177 -252 rmoveto
          33 15 -27 -55 -51 -15 -21 -36 -35 -19 -6 callsubr
          19 9 24 hhcurveto
          endchar
        </CharString>
        <CharString name="six.tosf">
          42 -12 117 494 -20 hstem
          404 511 rmoveto
          -30 81 -13 7 rlineto
          0 -352 -84 -304 vvcurveto
          -136 80 -87 125 142 88 82 133 108 -62 68 -96 vhcurveto
          -53 -21 -6 11 rlineto
          70 101 107 41 0 vvcurveto
          -174 -252 rmoveto
          31 15 -27 -55 -51 -14 -21 -35 -34 -18 -6 callsubr
          18 9 23 hhcurveto
          endchar
        </CharString>
        <CharString name="slash">
          -79 -89 -21 785 -20 hstem
          327 675 rmoveto
          -119 hlineto
          -115 -449 rlineto
          -39 -152 -50 -169 0 vvcurveto
          11 -15 rlineto
          126 hlineto
          0 41 160 42 165 vhcurveto
          43 162 77 278 0 vvcurveto
          endchar
        </CharString>
        <CharString name="space">
          -264 endchar
        </CharString>
        <CharString name="square1">
          64 21 -21 472 -20 hstem
          0 vmoveto
          472 472 -472 hlineto
          endchar
        </CharString>
        <CharString name="square2">
          239 21 -21 647 -20 hstem
          0 vmoveto
          647 647 -647 hlineto
          endchar
        </CharString>
        <CharString name="sterling">
          103 -12 153 -99 99 133 86 121 117 hstemhm
          hintmask 01110000
          447 216 rmoveto
          -45 -22 -30 -32 vhcurveto
          -29 -54 17 -23 hhcurveto
          -59 -14 rlineto
          16 16 13 42 34 vvcurveto
          1 38 rlineto
          79 57 -3 0 hvcurveto
          11 85 -5 7 rlineto
          0 -61 -3 -78 vhcurveto
          2 57 rlineto
          48 12 16 36 29 30 -11 -32 55 vhcurveto
          19 3 43 131 -5 11 rlineto
          9 -26 -51 6 -46 hhcurveto
          -129 -135 -108 -103 hvcurveto
          -27 vlineto
          27 callsubr
          20 callsubr
          rlinecurve
          -34 vlineto
          -43 -26 -34 -54 -28 vhcurveto
          25 -91 15 -6 rlineto
          30 51 42 13 44 hhcurveto
          hintmask 10110000
          63 71 -54 63 hhcurveto
          70 50 49 68 39 -14 51 -17 21 hvcurveto
          endchar
        </CharString>
        <CharString name="summation">
          14 -21 655 -20 21 -20 30 -20 hstemhm
          hintmask 11000000
          555 19 rmoveto
          93 19 146 0 vhcurveto
          -126 -9 -10 -83 -25 -35 -60 -7 rlinecurve
          -153 -22 167 201 rlineto
          43 vlineto
          -124 199 96 -14 67 -11 22 -32 3 -78 rlinecurve
          120 17 rlineto
          0 -7 136 -2 85 vhcurveto
          hintmask 10010000
          -11 11 rlineto
          hintmask 11000000
          -181 -11 rlineto
          hintmask 10100000
          -93 -92 1 -93 hhcurveto
          -46 hlineto
          -18 -44 185 -297 -203 -247 36 -68 82 10 426 -6 rlineto
          endchar
        </CharString>
        <CharString name="t">
          -74 -12 133 242 89 121 -20 hstem
          53 114 rmoveto
          -82 53 -44 99 39 93 102 0 vhcurveto
          -77 callgsubr
          endchar
        </CharString>
        <CharString name="t.sups">
          -157 319 95 0 153 148 -20 hstem
          44 404 rmoveto
          -55 38 -30 69 29 65 72 0 vhcurveto
          -11 28 rlineto
          0 -18 -5 -15 -20 -10 14 28 44 1 35 2 33 vhcurveto
          54 -2 8 60 -3 5 -53 -2 rlineto
          5 43 6 27 0 vvcurveto
          -28 16 rlineto
          0 -79 -52 -81 -36 vhcurveto
          -6 -51 12 -7 rlineto
          29 1 6 -7 -33 vvcurveto
          endchar
        </CharString>
        <CharString name="tbar">
          -51 -12 133 91 66 85 89 121 -20 hstem
          67 114 rmoveto
          -82 53 -44 99 39 93 102 0 vhcurveto
          -16 40 rlineto
          0 -27 -9 -22 -32 -16 22 44 vhcurveto
          25 99 vlineto
          36 callgsubr
          -43 -3 -45 -1 vhcurveto
          1 31 1 29 2 27 86 -3 rcurveline
          11 85 -5 7 -84 -3 rlineto
          7 62 8 38 0 vvcurveto
          -38 -35 callsubr
          -108 -75 -112 -51 vhcurveto
          -8 -71 16 -9 rlineto
          42 9 -10 -48 hvcurveto
          -31 vlineto
          -37 -33 19 callgsubr
          0 30 0 37 1 vhcurveto
          endchar
        </CharString>
        <CharString name="tcaron">
          88 -12 133 242 89 121 -20 hstem
          487 559 rmoveto
          -134 2 callsubr
          11 -118 -2 -120 vhcurveto
          19 -6 73 25 rlineto
          26 112 16 109 0 vvcurveto
          -443 -433 rmoveto
          -82 53 -44 99 39 93 102 0 vhcurveto
          -77 callgsubr
          endchar
        </CharString>
        <CharString name="tcedilla">
          -74 28 callsubr
          503 89 121 -20 hstem
          142 -87 callsubr
          7 32 rlineto
          44 22 68 74 0 vvcurveto
          -77 callgsubr
          -195 vlineto
          -69 37 -42 72 -11 vhcurveto
          endchar
        </CharString>
        <CharString name="thorn">
          108 -230 86 -70 -21 228 113 247 126 263 -20 hstemhm
          hintmask 01111000
          50 55 rmoveto
          -6 -151 -2 -41 -9 -9 -35 -2 rlinecurve
          -12 -87 rlineto
          hintmask 10111000
          0 86 5 58 45 115 -57 callgsubr
          14 88 -36 callsubr
          -30 -3 -26 -36 12 90 48 0 15 -1 16 34 callgsubr
          -3 -5 -2 -4 -8 vhcurveto
          -15 -8 -26 -18 -38 -27 5 182 10 99 16 15 -51 callsubr
          172 -222 rmoveto
          6 6 16 4 16 hhcurveto
          41 19 -45 -98 18 callsubr
        </CharString>
        <CharString name="three">
          40 -95 27 callgsubr
          2 39 rmoveto
          -99 8 22 -35 69 hhcurveto
          164 162 103 104 63 -51 22 callsubr
          -89 -33 -44 -57 5 callgsubr
          31 39 37 9 callgsubr
          34 -17 -40 -33 -45 -22 -67 -38 -30 6 12 -24 hvcurveto
          endchar
        </CharString>
        <CharString name="three.dnom">
          -79 -8 24 callgsubr
          87 -90 callgsubr
        </CharString>
        <CharString name="three.lf">
          38 -12 27 callgsubr
          9 122 rmoveto
          -99 8 22 -35 69 hhcurveto
          163 153 95 101 70 -43 45 -100 34 hvcurveto
          11 vlineto
          68 21 43 52 60 vvcurveto
          73 -67 48 -101 -62 -89 -30 -39 -57 5 callgsubr
          26 39 37 14 28 hhcurveto
          27 17 -15 -23 -32 -21 -27 -37 -15 hvcurveto
          -65 -13 10 -90 13 -15 rlineto
          79 35 -16 -35 -36 -40 -23 -62 -35 -31 6 12 -26 hvcurveto
          endchar
        </CharString>
        <CharString name="three.numr">
          -79 246 24 callgsubr
          341 -90 callgsubr
        </CharString>
        <CharString name="three.sinf">
          -79 -128 24 callgsubr
          -33 -90 callgsubr
        </CharString>
        <CharString name="three.sups">
          -79 319 24 callgsubr
          414 -90 callgsubr
        </CharString>
</ttFont>
